{
.appVersion = "1352";
DisplayStrings = (

glyphs = (
{
glyphname = .notdef;
lastChange = "2021-11-29 06:54:51 +0000";
layers = (
{
layerId = "2018A826-CC5C-461A-95E5-9D849642E9B7";
paths = (
{
closed = 1;
nodes = (
"438 667 LINE",
"63 667 LINE",
"63 0 LINE",
"438 0 LINE",
"438 0 LINE"
);
},
{
closed = 1;
nodes = (
"375 605 LINE",
"375 63 LINE",
"125 63 LINE",
"125 605 LINE",
"125 605 LINE"
);
}
);
userData = {
assembly = "NPUSHB[ ]	/* 31 values pushed */\0121 8 8 64 9 2 7 4 4 1 0 6 5 4 3 2 5 4 6 0 7 6 6 1 2 1 3 0 1 0 70 \012SROUND[ ]	/* SuperRound */\012MDAP[1]	/* MoveDirectAbsPt */\012SHZ[1]	/* ShiftZoneByLastPoint */\012RTG[ ]	/* RoundToGrid */\012SVTCA[0]	/* SetFreedomAndProjectionVectorToAxis */\012MDAP[1]	/* MoveDirectAbsPt */\012ALIGNRP[ ]	/* AlignRelativePt */\012MDAP[1]	/* MoveDirectAbsPt */\012ALIGNRP[ ]	/* AlignRelativePt */\012SRP0[ ]	/* SetRefPoint0 */\012MIRP[11101]	/* MoveIndirectRelPt */\012ALIGNRP[ ]	/* AlignRelativePt */\012SRP0[ ]	/* SetRefPoint0 */\012MIRP[11101]	/* MoveIndirectRelPt */\012ALIGNRP[ ]	/* AlignRelativePt */\012SVTCA[1]	/* SetFreedomAndProjectionVectorToAxis */\012MDAP[1]	/* MoveDirectAbsPt */\012ALIGNRP[ ]	/* AlignRelativePt */\012MIRP[11101]	/* MoveIndirectRelPt */\012ALIGNRP[ ]	/* AlignRelativePt */\012MDAP[1]	/* MoveDirectAbsPt */\012ALIGNRP[ ]	/* AlignRelativePt */\012MIRP[11101]	/* MoveIndirectRelPt */\012ALIGNRP[ ]	/* AlignRelativePt */\012SVTCA[0]	/* SetFreedomAndProjectionVectorToAxis */\012IUP[1]	/* InterpolateUntPts */\012IUP[0]	/* InterpolateUntPts */\012SVTCA[1]	/* SetFreedomAndProjectionVectorToAxis */\012MD[0]	/* MeasureDistance */\012ROUND[00]	/* Round */\012PUSHW[ ]	/* 2 values pushed */\0120 8 \012MD[0]	/* MeasureDistance */\012ROUND[00]	/* Round */\012SUB[ ]	/* Subtract */\012PUSHB[ ]	/* 1 value pushed */\01264 \012GT[ ]	/* GreaterThan */\012IF[ ]	/* If */\012SHPIX[ ]	/* ShiftZoneByPixel */\012SRP1[ ]	/* SetRefPoint1 */\012SHZ[1]	/* ShiftZoneByLastPoint */\012PUSHW[ ]	/* 2 values pushed */\0128 -64 \012SHPIX[ ]	/* ShiftZoneByPixel */\012EIF[ ]	/* EndIf */";
};
width = 500;
}
);
note = .notdef;
},
{
glyphname = A;
lastChange = "2021-11-29 06:54:51 +0000";
layers = (
{
layerId = "2018A826-CC5C-461A-95E5-9D849642E9B7";
paths = (
{
closed = 1;
nodes = (
"316.667 42 OFFCURVE",
"310 77 OFFCURVE",
"304 103 CURVE SMOOTH",
"292 152 LINE SMOOTH",
"286 175 OFFCURVE",
"283.333 188.333 OFFCURVE",
"282 193 CURVE",
"299 201 LINE SMOOTH",
"302 203 OFFCURVE",
"309 210 OFFCURVE",
"309 223 CURVE SMOOTH",
"309 241.667 OFFCURVE",
"303 249 OFFCURVE",
"291 245 CURVE SMOOTH",
"277 239 LINE",
"264 360 LINE SMOOTH",
"260 393 OFFCURVE",
"256 419 OFFCURVE",
"250 436 CURVE SMOOTH",
"249 439 LINE",
"240.333 493.667 OFFCURVE",
"232 536.667 OFFCURVE",
"224 568 CURVE",
"225.333 580 OFFCURVE",
"215.333 604 OFFCURVE",
"202 604 CURVE SMOOTH",
"199.333 604 OFFCURVE",
"197 603.333 OFFCURVE",
"195 602 CURVE SMOOTH",
"189 598 OFFCURVE",
"184.667 590.333 OFFCURVE",
"182 579 CURVE SMOOTH",
"180 573 OFFCURVE",
"178.333 566.667 OFFCURVE",
"177 560 CURVE",
"167 530 OFFCURVE",
"160.333 508.333 OFFCURVE",
"157 495 CURVE",
"131 432 LINE",
"129 429 LINE",
"106.333 360.333 OFFCURVE",
"92 310 OFFCURVE",
"82 280 CURVE SMOOTH",
"52 192 LINE SMOOTH",
"0 41 OFFCURVE",
"72 210 OFFCURVE",
"21 101 CURVE",
"9 93.667 OFFCURVE",
"3.333 85.333 OFFCURVE",
"4 76 CURVE",
"0 70.667 OFFCURVE",
"0.667 63.667 OFFCURVE",
"6 55 CURVE",
"-9 10 LINE SMOOTH",
"-10.333 6 OFFCURVE",
"-11 2 OFFCURVE",
"-11 -2 CURVE SMOOTH",
"-11 -16.667 OFFCURVE",
"-6 -24 OFFCURVE",
"4 -24 CURVE SMOOTH",
"10.667 -24 OFFCURVE",
"16 -18.333 OFFCURVE",
"20 -7 CURVE SMOOTH",
"28 17.667 OFFCURVE",
"36 49 OFFCURVE",
"43 69 CURVE",
"81 93 OFFCURVE",
"90 100 OFFCURVE",
"161 138 CURVE SMOOTH",
"214 168 OFFCURVE",
"236 180 OFFCURVE",
"253 186 CURVE",
"264 143 OFFCURVE",
"271 104 OFFCURVE",
"274 87 CURVE SMOOTH",
"294 -20 LINE SMOOTH",
"296 -29 OFFCURVE",
"300 -34 OFFCURVE",
"306 -34 CURVE SMOOTH",
"316.667 -34 OFFCURVE",
"326.667 -19.333 OFFCURVE",
"324 -2 CURVE SMOOTH"
);
},
{
closed = 1;
nodes = (
"231 218 OFFCURVE",
"69 129 OFFCURVE",
"64 126 CURVE",
"66 130 OFFCURVE",
"69 139 OFFCURVE",
"109 264 CURVE SMOOTH",
"131 333 OFFCURVE",
"146.333 381.333 OFFCURVE",
"155 410 CURVE",
"181 478 LINE SMOOTH",
"189 500 OFFCURVE",
"195 516.667 OFFCURVE",
"199 526 CURVE",
"205 499 LINE SMOOTH",
"213 462 OFFCURVE",
"218 436 OFFCURVE",
"220 420 CURVE SMOOTH",
"231 347 LINE SMOOTH",
"236 316 OFFCURVE",
"240.667 284.667 OFFCURVE",
"244 254 CURVE SMOOTH",
"245.333 241.333 OFFCURVE",
"246 231.667 OFFCURVE",
"246 225 CURVE"
);
}
);
userData = {
assembly = "NPUSHB[ ]	/* 49 values pushed */\0121 110 110 64 111 0 103 101 100 98 97 89 72 69 65 63 38 37 35 34 9 103 101 100 79 74 71 70 67 38 37 35 34 30 28 24 0 53 71 2 70 2 22 1 3 1 1 24 70 \012SROUND[ ]	/* SuperRound */\012MDAP[1]	/* MoveDirectAbsPt */\012SHZ[1]	/* ShiftZoneByLastPoint */\012RTG[ ]	/* RoundToGrid */\012SVTCA[0]	/* SetFreedomAndProjectionVectorToAxis */\012MIAP[1]	/* MoveIndirectAbsPt */\012MIAP[1]	/* MoveIndirectAbsPt */\012MIAP[1]	/* MoveIndirectAbsPt */\012MIAP[1]	/* MoveIndirectAbsPt */\012MDAP[1]	/* MoveDirectAbsPt */\012SVTCA[1]	/* SetFreedomAndProjectionVectorToAxis */\012MDAP[0]	/* MoveDirectAbsPt */\012MDAP[0]	/* MoveDirectAbsPt */\012MDAP[0]	/* MoveDirectAbsPt */\012MDAP[0]	/* MoveDirectAbsPt */\012MDAP[0]	/* MoveDirectAbsPt */\012MDAP[0]	/* MoveDirectAbsPt */\012MDAP[0]	/* MoveDirectAbsPt */\012MDAP[0]	/* MoveDirectAbsPt */\012MDAP[0]	/* MoveDirectAbsPt */\012MDAP[0]	/* MoveDirectAbsPt */\012MDAP[0]	/* MoveDirectAbsPt */\012MDAP[0]	/* MoveDirectAbsPt */\012MDAP[0]	/* MoveDirectAbsPt */\012MDAP[0]	/* MoveDirectAbsPt */\012MDAP[0]	/* MoveDirectAbsPt */\012MDAP[0]	/* MoveDirectAbsPt */\012SVTCA[0]	/* SetFreedomAndProjectionVectorToAxis */\012MDAP[0]	/* MoveDirectAbsPt */\012MDAP[0]	/* MoveDirectAbsPt */\012MDAP[0]	/* MoveDirectAbsPt */\012MDAP[0]	/* MoveDirectAbsPt */\012MDAP[0]	/* MoveDirectAbsPt */\012MDAP[0]	/* MoveDirectAbsPt */\012MDAP[0]	/* MoveDirectAbsPt */\012MDAP[0]	/* MoveDirectAbsPt */\012MDAP[0]	/* MoveDirectAbsPt */\012MDAP[0]	/* MoveDirectAbsPt */\012MDAP[0]	/* MoveDirectAbsPt */\012MDAP[0]	/* MoveDirectAbsPt */\012MDAP[0]	/* MoveDirectAbsPt */\012MDAP[0]	/* MoveDirectAbsPt */\012MDAP[0]	/* MoveDirectAbsPt */\012IUP[1]	/* InterpolateUntPts */\012IUP[0]	/* InterpolateUntPts */\012SVTCA[1]	/* SetFreedomAndProjectionVectorToAxis */\012MD[0]	/* MeasureDistance */\012ROUND[00]	/* Round */\012PUSHW[ ]	/* 2 values pushed */\01224 110 \012MD[0]	/* MeasureDistance */\012ROUND[00]	/* Round */\012SUB[ ]	/* Subtract */\012PUSHB[ ]	/* 1 value pushed */\01264 \012GT[ ]	/* GreaterThan */\012IF[ ]	/* If */\012SHPIX[ ]	/* ShiftZoneByPixel */\012SRP1[ ]	/* SetRefPoint1 */\012SHZ[1]	/* ShiftZoneByLastPoint */\012PUSHW[ ]	/* 2 values pushed */\012110 -64 \012SHPIX[ ]	/* ShiftZoneByPixel */\012EIF[ ]	/* EndIf */";
};
width = 326;
}
);
note = A;
unicode = 0041;
},
{
glyphname = AE;
lastChange = "2021-11-29 06:54:51 +0000";
layers = (
{
layerId = "2018A826-CC5C-461A-95E5-9D849642E9B7";
paths = (
{
closed = 1;
nodes = (
"224.667 215 OFFCURVE",
"202.667 203.667 OFFCURVE",
"180 191 CURVE SMOOTH",
"166 182.333 OFFCURVE",
"155.667 176 OFFCURVE",
"149 172 CURVE SMOOTH",
"82 137 LINE SMOOTH",
"74.667 133 OFFCURVE",
"68.667 129.333 OFFCURVE",
"64 126 CURVE",
"68 132.667 OFFCURVE",
"70.333 139.333 OFFCURVE",
"71 146 CURVE SMOOTH",
"71 145 LINE",
"81 183 LINE",
"83 183 LINE",
"109 264 LINE SMOOTH",
"131 332.667 OFFCURVE",
"146.333 381.333 OFFCURVE",
"155 410 CURVE",
"181 478 LINE SMOOTH",
"189 500.667 OFFCURVE",
"195 516.667 OFFCURVE",
"199 526 CURVE",
"205 499 LINE SMOOTH",
"212.333 462.333 OFFCURVE",
"217.333 436 OFFCURVE",
"220 420 CURVE SMOOTH",
"231 347 LINE SMOOTH",
"236.333 315.667 OFFCURVE",
"240.667 284.667 OFFCURVE",
"244 254 CURVE SMOOTH",
"245.333 241.333 OFFCURVE",
"246 231.667 OFFCURVE",
"246 225 CURVE"
);
},
{
closed = 1;
nodes = (
"660 548.667 OFFCURVE",
"658 563.333 OFFCURVE",
"654 574 CURVE",
"644.667 585.333 OFFCURVE",
"637.333 592.333 OFFCURVE",
"632 595 CURVE",
"620 604.333 OFFCURVE",
"604.333 611 OFFCURVE",
"585 615 CURVE SMOOTH",
"576.333 617.667 OFFCURVE",
"558 620.667 OFFCURVE",
"530 624 CURVE SMOOTH",
"487.333 629.333 OFFCURVE",
"446.333 626.333 OFFCURVE",
"407 615 CURVE SMOOTH",
"387 609 OFFCURVE",
"365.333 599 OFFCURVE",
"342 585 CURVE SMOOTH",
"280 547 LINE SMOOTH",
"272.667 543 OFFCURVE",
"269 535.333 OFFCURVE",
"269 524 CURVE SMOOTH",
"269 509.333 OFFCURVE",
"274 502 OFFCURVE",
"284 502 CURVE SMOOTH",
"286 502 OFFCURVE",
"288 502.333 OFFCURVE",
"290 503 CURVE",
"323.333 521.667 OFFCURVE",
"346.667 535.667 OFFCURVE",
"360 545 CURVE",
"354 501 OFFCURVE",
"349 469.333 OFFCURVE",
"345 450 CURVE",
"343.667 448.667 OFFCURVE",
"336 414 OFFCURVE",
"336 406 CURVE",
"327.333 377.333 OFFCURVE",
"321 355.333 OFFCURVE",
"317 340 CURVE",
"321.667 340.667 OFFCURVE",
"312.667 341 OFFCURVE",
"290 341 CURVE SMOOTH",
"280 341 OFFCURVE",
"275 332.667 OFFCURVE",
"275 316 CURVE SMOOTH",
"275 302 OFFCURVE",
"279.333 295 OFFCURVE",
"288 295 CURVE SMOOTH",
"292.667 295.667 OFFCURVE",
"298.333 295.333 OFFCURVE",
"305 294 CURVE",
"302.333 282.667 OFFCURVE",
"298.333 266.333 OFFCURVE",
"293 245 CURVE",
"291 245 LINE",
"285 242.333 OFFCURVE",
"280.333 240.333 OFFCURVE",
"277 239 CURVE",
"264 360 LINE SMOOTH",
"258.667 392.667 OFFCURVE",
"254 418 OFFCURVE",
"250 436 CURVE SMOOTH",
"249 439 LINE",
"240.333 493.667 OFFCURVE",
"232 536.667 OFFCURVE",
"224 568 CURVE",
"225.333 580 OFFCURVE",
"215.333 604 OFFCURVE",
"202 604 CURVE SMOOTH",
"199.333 604 OFFCURVE",
"197 603.333 OFFCURVE",
"195 602 CURVE SMOOTH",
"189 598 OFFCURVE",
"184.667 590.333 OFFCURVE",
"182 579 CURVE SMOOTH",
"180 573 OFFCURVE",
"178.333 566.667 OFFCURVE",
"177 560 CURVE",
"167 530 OFFCURVE",
"160.333 508.333 OFFCURVE",
"157 495 CURVE",
"131 432 LINE",
"129 429 LINE",
"106.333 360.333 OFFCURVE",
"90.667 310.667 OFFCURVE",
"82 280 CURVE SMOOTH",
"52 192 LINE",
"54 194 LINE",
"48 176.667 OFFCURVE",
"44.667 165 OFFCURVE",
"44 159 CURVE",
"45 159 LINE",
"33.667 130.333 OFFCURVE",
"25.667 111 OFFCURVE",
"21 101 CURVE",
"9 93.667 OFFCURVE",
"3.333 85.333 OFFCURVE",
"4 76 CURVE",
"0 70.667 OFFCURVE",
"0.667 63.667 OFFCURVE",
"6 55 CURVE",
"-9 10 LINE SMOOTH",
"-10.333 6 OFFCURVE",
"-11 2 OFFCURVE",
"-11 -2 CURVE SMOOTH",
"-11 -16.667 OFFCURVE",
"-6 -24 OFFCURVE",
"4 -24 CURVE SMOOTH",
"10.667 -24 OFFCURVE",
"16 -18.333 OFFCURVE",
"20 -7 CURVE SMOOTH",
"28 17.667 OFFCURVE",
"35.667 39.667 OFFCURVE",
"43 59 CURVE",
"54 66 LINE SMOOTH",
"72.667 78 OFFCURVE",
"85.667 86.333 OFFCURVE",
"93 91 CURVE SMOOTH",
"161 128.5 LINE SMOOTH",
"175.667 136.833 OFFCURVE",
"185.333 142.667 OFFCURVE",
"190 146 CURVE SMOOTH",
"212.667 158.667 OFFCURVE",
"233.667 168.667 OFFCURVE",
"253 176 CURVE",
"261 144 OFFCURVE",
"267 119.333 OFFCURVE",
"271 102 CURVE",
"265 39 LINE SMOOTH",
"263.667 14.333 OFFCURVE",
"263.667 -1.667 OFFCURVE",
"265 -9 CURVE",
"274.333 -23 OFFCURVE",
"281 -30.333 OFFCURVE",
"285 -31 CURVE",
"288 -33 LINE",
"301 -32 LINE",
"305 -35.333 OFFCURVE",
"309.333 -35 OFFCURVE",
"314 -31 CURVE",
"334 -29 OFFCURVE",
"347.333 -27.333 OFFCURVE",
"354 -26 CURVE",
"354 -25 LINE",
"386.667 -25 OFFCURVE",
"413.667 -22.333 OFFCURVE",
"435 -17 CURVE SMOOTH",
"459.667 -8.333 OFFCURVE",
"476.667 -1.667 OFFCURVE",
"486 3 CURVE",
"510.667 11.667 OFFCURVE",
"528.333 17.667 OFFCURVE",
"539 21 CURVE SMOOTH",
"563 26 LINE SMOOTH",
"573 28 OFFCURVE",
"582 32 OFFCURVE",
"590 38 CURVE SMOOTH",
"605.333 52 OFFCURVE",
"615.833 62 OFFCURVE",
"621.5 68 CURVE SMOOTH",
"627.167 74 OFFCURVE",
"630 81.333 OFFCURVE",
"630 90 CURVE SMOOTH",
"630 104.667 OFFCURVE",
"625.667 112 OFFCURVE",
"617 112 CURVE SMOOTH",
"614.333 112 OFFCURVE",
"611.667 111 OFFCURVE",
"609 109 CURVE SMOOTH",
"577 81 LINE",
"558.333 73 OFFCURVE",
"544 68 OFFCURVE",
"534 66 CURVE SMOOTH",
"508.667 58.667 OFFCURVE",
"491 53 OFFCURVE",
"481 49 CURVE SMOOTH",
"434 30 LINE",
"416 25.333 OFFCURVE",
"389.333 22.333 OFFCURVE",
"354 21 CURVE",
"337.333 18.333 OFFCURVE",
"326.333 16 OFFCURVE",
"321 14 CURVE",
"315.667 48.667 OFFCURVE",
"310 78.333 OFFCURVE",
"304 103 CURVE SMOOTH",
"303 106 LINE",
"320 200 LINE",
"320 219.333 OFFCURVE",
"325.333 250.333 OFFCURVE",
"336 293 CURVE",
"364 293 LINE SMOOTH",
"375.333 293 OFFCURVE",
"388 294.667 OFFCURVE",
"402 298 CURVE SMOOTH",
"420 302 OFFCURVE",
"432.333 304.333 OFFCURVE",
"439 305 CURVE SMOOTH",
"469 308.333 OFFCURVE",
"498 310 OFFCURVE",
"526 310 CURVE SMOOTH",
"536.667 310 OFFCURVE",
"542 318.667 OFFCURVE",
"542 336 CURVE SMOOTH",
"542 349.333 OFFCURVE",
"537.667 356 OFFCURVE",
"529 356 CURVE SMOOTH",
"500.333 356 OFFCURVE",
"470.333 354.333 OFFCURVE",
"439 351 CURVE SMOOTH",
"431.667 350.333 OFFCURVE",
"419.333 348 OFFCURVE",
"402 344 CURVE SMOOTH",
"387.333 340.667 OFFCURVE",
"375 339 OFFCURVE",
"365 339 CURVE SMOOTH",
"352 339 LINE",
"358.667 361 OFFCURVE",
"363 376.667 OFFCURVE",
"365 386 CURVE SMOOTH",
"370 405 LINE SMOOTH",
"375.333 431.667 OFFCURVE",
"380 455 OFFCURVE",
"384 475 CURVE",
"394 561 LINE",
"396 563.667 OFFCURVE",
"398 565.333 OFFCURVE",
"400 566 CURVE",
"398.667 566 OFFCURVE",
"491.333 580 OFFCURVE",
"526 576 CURVE SMOOTH",
"562 572 OFFCURVE",
"601 570.333 OFFCURVE",
"621 549 CURVE SMOOTH",
"627.667 542.333 OFFCURVE",
"629.667 537.333 OFFCURVE",
"627 534 CURVE",
"626.333 527.333 OFFCURVE",
"624.333 521.333 OFFCURVE",
"621 516 CURVE",
"619 508 OFFCURVE",
"618.667 500 OFFCURVE",
"620 492 CURVE SMOOTH",
"622 483.333 OFFCURVE",
"625 479 OFFCURVE",
"629 479 CURVE",
"637 483 OFFCURVE",
"643.333 488.333 OFFCURVE",
"648 495 CURVE",
"654 509.667 OFFCURVE",
"658 521.333 OFFCURVE",
"660 530 CURVE"
);
}
);
width = 670;
}
);
unicode = 00C6;
},
{
glyphname = B;
lastChange = "2021-11-29 06:54:51 +0000";
layers = (
{
layerId = "2018A826-CC5C-461A-95E5-9D849642E9B7";
paths = (
{
closed = 1;
nodes = (
"345 161.333 OFFCURVE",
"341 179 OFFCURVE",
"331 193 CURVE",
"306 220 LINE",
"291.333 245.333 OFFCURVE",
"266.333 265 OFFCURVE",
"231 279 CURVE",
"215 283 OFFCURVE",
"203.333 285 OFFCURVE",
"196 285 CURVE",
"219 301 LINE SMOOTH",
"250 322 OFFCURVE",
"270.333 335.333 OFFCURVE",
"279 344 CURVE SMOOTH",
"327 390.667 OFFCURVE",
"357 442.333 OFFCURVE",
"357 473 CURVE SMOOTH",
"357 487.667 OFFCURVE",
"349 500 OFFCURVE",
"333 510 CURVE SMOOTH",
"296 533 LINE",
"288.667 540.333 OFFCURVE",
"274.333 548.333 OFFCURVE",
"253 557 CURVE SMOOTH",
"224.333 567.667 OFFCURVE",
"205 576 OFFCURVE",
"196 581 CURVE SMOOTH",
"187 586 LINE",
"164.333 602 OFFCURVE",
"148.333 612 OFFCURVE",
"139 616 CURVE",
"131.667 626.667 OFFCURVE",
"124.333 634.667 OFFCURVE",
"117 640 CURVE SMOOTH",
"115 641.333 OFFCURVE",
"113 642 OFFCURVE",
"111 642 CURVE SMOOTH",
"103 642 OFFCURVE",
"93 628 OFFCURVE",
"93 616 CURVE SMOOTH",
"93 609.333 OFFCURVE",
"95 604.333 OFFCURVE",
"99 601 CURVE",
"107.667 589.667 OFFCURVE",
"115.667 581 OFFCURVE",
"123 575 CURVE SMOOTH",
"141 560.333 OFFCURVE",
"166.333 545.333 OFFCURVE",
"199 530 CURVE SMOOTH",
"240.333 511.333 OFFCURVE",
"266.667 498.667 OFFCURVE",
"278 492 CURVE SMOOTH",
"280.667 490 OFFCURVE",
"289.667 487 OFFCURVE",
"305 483 CURVE SMOOTH",
"314.333 479.667 OFFCURVE",
"318.333 476 OFFCURVE",
"317 472 CURVE",
"320 453 LINE SMOOTH",
"320 450 OFFCURVE",
"318 446 OFFCURVE",
"314 439 CURVE SMOOTH",
"309 430 LINE",
"299 415 LINE",
"295 404 OFFCURVE",
"283 398 OFFCURVE",
"282 397 CURVE SMOOTH",
"265 382 LINE SMOOTH",
"241 361 OFFCURVE",
"221 349.333 OFFCURVE",
"209 342 CURVE SMOOTH",
"185 326 OFFCURVE",
"166 313.667 OFFCURVE",
"152 305 CURVE",
"144.667 286.333 OFFCURVE",
"141.667 273 OFFCURVE",
"143 265 CURVE",
"144 264 LINE",
"144.667 256.667 OFFCURVE",
"148.667 251.333 OFFCURVE",
"156 248 CURVE SMOOTH",
"158.667 246.667 OFFCURVE",
"162 245.667 OFFCURVE",
"166 245 CURVE",
"172.667 242.333 OFFCURVE",
"180.5 240.833 OFFCURVE",
"189.5 240.5 CURVE SMOOTH",
"198.5 240.167 OFFCURVE",
"205.333 238.333 OFFCURVE",
"210 235 CURVE",
"223 236 LINE",
"238 229 LINE SMOOTH",
"251 223 OFFCURVE",
"259.333 218 OFFCURVE",
"264 214 CURVE SMOOTH",
"266 212 OFFCURVE",
"273 203 OFFCURVE",
"285 187 CURVE SMOOTH",
"302.333 164.333 OFFCURVE",
"310.333 149 OFFCURVE",
"309 141 CURVE",
"300.333 118.333 OFFCURVE",
"292.333 101.667 OFFCURVE",
"285 91 CURVE",
"238.333 44.333 OFFCURVE",
"212 19 OFFCURVE",
"206 15 CURVE SMOOTH",
"170 -9 OFFCURVE",
"133 -26 OFFCURVE",
"95 -36 CURVE SMOOTH",
"63 -44 OFFCURVE",
"42 -44 OFFCURVE",
"30 -44 CURVE SMOOTH",
"29 -44 LINE SMOOTH",
"25.667 -44 OFFCURVE",
"20.5 -41.333 OFFCURVE",
"13.5 -36 CURVE SMOOTH",
"6.5 -30.667 OFFCURVE",
"1.333 -28 OFFCURVE",
"-2 -28 CURVE SMOOTH",
"-13.333 -28 OFFCURVE",
"-19 -37.333 OFFCURVE",
"-19 -56 CURVE SMOOTH",
"-19 -64 OFFCURVE",
"-17 -70 OFFCURVE",
"-11 -73 CURVE SMOOTH",
"23 -90 LINE",
"39 -93.333 OFFCURVE",
"64.333 -91.333 OFFCURVE",
"99 -84 CURVE SMOOTH",
"142.333 -74.667 OFFCURVE",
"182 -56.333 OFFCURVE",
"218 -29 CURVE",
"258.667 9 OFFCURVE",
"289 39 OFFCURVE",
"309 61 CURVE",
"310 64 LINE",
"329 95 LINE SMOOTH",
"337 109 OFFCURVE",
"341.667 124 OFFCURVE",
"343 140 CURVE SMOOTH"
);
},
{
closed = 1;
nodes = (
"143.333 551 OFFCURVE",
"140 560 OFFCURVE",
"130 560 CURVE SMOOTH",
"120.667 560 OFFCURVE",
"114 551.667 OFFCURVE",
"110 535 CURVE SMOOTH",
"102 493.667 OFFCURVE",
"97.333 465 OFFCURVE",
"96 449 CURVE",
"88 401.667 OFFCURVE",
"81.667 367.333 OFFCURVE",
"77 346 CURVE SMOOTH",
"72.333 315.333 OFFCURVE",
"65 281.667 OFFCURVE",
"55 245 CURVE SMOOTH",
"47.667 218.333 OFFCURVE",
"44 202.5 OFFCURVE",
"44 197.5 CURVE SMOOTH",
"44 192.5 OFFCURVE",
"43 182.333 OFFCURVE",
"41 167 CURVE SMOOTH",
"39 155.667 OFFCURVE",
"38.667 145.333 OFFCURVE",
"40 136 CURVE",
"39.333 126.667 OFFCURVE",
"40.5 115.667 OFFCURVE",
"43.5 103 CURVE SMOOTH",
"46.5 90.333 OFFCURVE",
"48 81.333 OFFCURVE",
"48 76 CURVE",
"50.667 64.667 OFFCURVE",
"55.333 59 OFFCURVE",
"62 59 CURVE SMOOTH",
"74 59 OFFCURVE",
"79 69.333 OFFCURVE",
"77 90 CURVE SMOOTH",
"73.667 119.333 OFFCURVE",
"72 137.333 OFFCURVE",
"72 144 CURVE SMOOTH",
"71.333 166.667 OFFCURVE",
"72.333 183.667 OFFCURVE",
"75 195 CURVE SMOOTH",
"78.333 211 OFFCURVE",
"81.333 223.667 OFFCURVE",
"84 233 CURVE SMOOTH",
"110 354.333 OFFCURVE",
"124 425.333 OFFCURVE",
"126 446 CURVE",
"134 490 LINE SMOOTH",
"138 512 OFFCURVE",
"140 526.333 OFFCURVE",
"140 533 CURVE"
);
}
);
userData = {
assembly = "NPUSHB[ ]	/* 30 values pushed */\0121 140 140 64 141 91 138 120 37 36 21 20 17 125 118 116 106 98 91 73 59 45 29 15 0 76 11 1 15 70 \012SROUND[ ]	/* SuperRound */\012MDAP[1]	/* MoveDirectAbsPt */\012SHZ[1]	/* ShiftZoneByLastPoint */\012RTG[ ]	/* RoundToGrid */\012SVTCA[0]	/* SetFreedomAndProjectionVectorToAxis */\012MDAP[1]	/* MoveDirectAbsPt */\012MDAP[1]	/* MoveDirectAbsPt */\012SVTCA[1]	/* SetFreedomAndProjectionVectorToAxis */\012MDAP[0]	/* MoveDirectAbsPt */\012MDAP[0]	/* MoveDirectAbsPt */\012MDAP[0]	/* MoveDirectAbsPt */\012MDAP[0]	/* MoveDirectAbsPt */\012MDAP[0]	/* MoveDirectAbsPt */\012MDAP[0]	/* MoveDirectAbsPt */\012MDAP[0]	/* MoveDirectAbsPt */\012MDAP[0]	/* MoveDirectAbsPt */\012MDAP[0]	/* MoveDirectAbsPt */\012MDAP[0]	/* MoveDirectAbsPt */\012MDAP[0]	/* MoveDirectAbsPt */\012MDAP[0]	/* MoveDirectAbsPt */\012SVTCA[0]	/* SetFreedomAndProjectionVectorToAxis */\012MDAP[0]	/* MoveDirectAbsPt */\012MDAP[0]	/* MoveDirectAbsPt */\012MDAP[0]	/* MoveDirectAbsPt */\012MDAP[0]	/* MoveDirectAbsPt */\012MDAP[0]	/* MoveDirectAbsPt */\012MDAP[0]	/* MoveDirectAbsPt */\012MDAP[0]	/* MoveDirectAbsPt */\012IUP[1]	/* InterpolateUntPts */\012IUP[0]	/* InterpolateUntPts */\012SVTCA[1]	/* SetFreedomAndProjectionVectorToAxis */\012MD[0]	/* MeasureDistance */\012ROUND[00]	/* Round */\012PUSHW[ ]	/* 2 values pushed */\01215 140 \012MD[0]	/* MeasureDistance */\012ROUND[00]	/* Round */\012SUB[ ]	/* Subtract */\012PUSHB[ ]	/* 1 value pushed */\01264 \012GT[ ]	/* GreaterThan */\012IF[ ]	/* If */\012SHPIX[ ]	/* ShiftZoneByPixel */\012SRP1[ ]	/* SetRefPoint1 */\012SHZ[1]	/* ShiftZoneByLastPoint */\012PUSHW[ ]	/* 2 values pushed */\012140 -64 \012SHPIX[ ]	/* ShiftZoneByPixel */\012EIF[ ]	/* EndIf */";
};
width = 353;
}
);
note = B;
unicode = 0042;
},
{
glyphname = C;
lastChange = "2021-11-29 06:54:51 +0000";
layers = (
{
layerId = "2018A826-CC5C-461A-95E5-9D849642E9B7";
paths = (
{
closed = 1;
nodes = (
"515.667 554.333 OFFCURVE",
"512.667 575.667 OFFCURVE",
"506 593 CURVE",
"505 593 LINE",
"490.333 611.667 OFFCURVE",
"484.333 621 OFFCURVE",
"447 621 CURVE SMOOTH",
"429.667 621 OFFCURVE",
"413.333 617.333 OFFCURVE",
"398 610 CURVE SMOOTH",
"393.333 607.333 OFFCURVE",
"378 597.333 OFFCURVE",
"352 580 CURVE SMOOTH",
"320.667 559.333 OFFCURVE",
"284 526.667 OFFCURVE",
"242 482 CURVE SMOOTH",
"219.333 458 OFFCURVE",
"194 423.667 OFFCURVE",
"166 379 CURVE SMOOTH",
"146 347 OFFCURVE",
"128.667 316 OFFCURVE",
"114 286 CURVE",
"112 284 LINE",
"106.667 270.667 OFFCURVE",
"102.667 263 OFFCURVE",
"100 261 CURVE",
"68 193 LINE SMOOTH",
"56.667 165.667 OFFCURVE",
"51 137.667 OFFCURVE",
"51 109 CURVE SMOOTH",
"50.333 53 OFFCURVE",
"64.333 10 OFFCURVE",
"93 -20 CURVE SMOOTH",
"101 -28.667 OFFCURVE",
"110.333 -35 OFFCURVE",
"121 -39 CURVE",
"151 -46 LINE SMOOTH",
"169.667 -50 OFFCURVE",
"202.333 -48.333 OFFCURVE",
"249 -41 CURVE SMOOTH",
"293 -34.333 OFFCURVE",
"361.667 -17.667 OFFCURVE",
"399 1 CURVE SMOOTH",
"421 12.333 OFFCURVE",
"443.333 26.333 OFFCURVE",
"466 43 CURVE",
"474 47 OFFCURVE",
"478 54 OFFCURVE",
"478 64 CURVE SMOOTH",
"478 78.667 OFFCURVE",
"473.333 86 OFFCURVE",
"464 86 CURVE SMOOTH",
"460 86 OFFCURVE",
"449 79.667 OFFCURVE",
"431 67 CURVE SMOOTH",
"411 52.333 OFFCURVE",
"398 43.667 OFFCURVE",
"392 41 CURVE SMOOTH",
"360.667 30.333 OFFCURVE",
"338.333 23.333 OFFCURVE",
"325 20 CURVE SMOOTH",
"289.667 12.667 OFFCURVE",
"264.333 8 OFFCURVE",
"249 6 CURVE SMOOTH",
"186 -3 LINE",
"176.667 -3 OFFCURVE",
"167 -1.667 OFFCURVE",
"157 1 CURVE",
"157 -4 LINE",
"156 1 LINE",
"139.333 1 OFFCURVE",
"123 8.667 OFFCURVE",
"107 24 CURVE",
"105 21 LINE",
"108 24 LINE",
"96.667 35.333 OFFCURVE",
"87.667 57.333 OFFCURVE",
"81 90 CURVE",
"80.333 102 OFFCURVE",
"82 115.667 OFFCURVE",
"86 131 CURVE SMOOTH",
"89.333 152.333 OFFCURVE",
"95.667 174.333 OFFCURVE",
"105 197 CURVE SMOOTH",
"110.333 208.333 OFFCURVE",
"119.667 226.333 OFFCURVE",
"133 251 CURVE",
"133 254 LINE",
"157.667 299.333 OFFCURVE",
"176 331 OFFCURVE",
"188 349 CURVE SMOOTH",
"211.333 385.667 OFFCURVE",
"235.333 417.333 OFFCURVE",
"260 444 CURVE SMOOTH",
"290 477.333 OFFCURVE",
"321.667 504.667 OFFCURVE",
"355 526 CURVE SMOOTH",
"385.667 548.667 OFFCURVE",
"417.333 575 OFFCURVE",
"444 575 CURVE SMOOTH",
"459.333 575 OFFCURVE",
"468 574 OFFCURVE",
"470 572 CURVE",
"473 571 LINE",
"475 571 OFFCURVE",
"477.333 567.333 OFFCURVE",
"480 560 CURVE",
"480 559.333 OFFCURVE",
"480 554.667 OFFCURVE",
"480 546 CURVE SMOOTH",
"479 527 LINE SMOOTH",
"476.333 508.333 OFFCURVE",
"482.667 499 OFFCURVE",
"498 499 CURVE SMOOTH",
"504.667 499 OFFCURVE",
"515 515.667 OFFCURVE",
"515 529 CURVE SMOOTH"
);
}
);
userData = {
assembly = "NPUSHB[ ]	/* 34 values pushed */\0121 90 90 64 91 0 88 87 50 40 38 37 34 33 14 3 67 52 38 37 33 32 30 24 23 9 7 5 0 84 61 1 67 70 \012SROUND[ ]	/* SuperRound */\012MDAP[1]	/* MoveDirectAbsPt */\012SHZ[1]	/* ShiftZoneByLastPoint */\012RTG[ ]	/* RoundToGrid */\012SVTCA[0]	/* SetFreedomAndProjectionVectorToAxis */\012MDAP[1]	/* MoveDirectAbsPt */\012MDAP[1]	/* MoveDirectAbsPt */\012SVTCA[1]	/* SetFreedomAndProjectionVectorToAxis */\012MDAP[0]	/* MoveDirectAbsPt */\012MDAP[0]	/* MoveDirectAbsPt */\012MDAP[0]	/* MoveDirectAbsPt */\012MDAP[0]	/* MoveDirectAbsPt */\012MDAP[0]	/* MoveDirectAbsPt */\012MDAP[0]	/* MoveDirectAbsPt */\012MDAP[0]	/* MoveDirectAbsPt */\012MDAP[0]	/* MoveDirectAbsPt */\012MDAP[0]	/* MoveDirectAbsPt */\012MDAP[0]	/* MoveDirectAbsPt */\012MDAP[0]	/* MoveDirectAbsPt */\012MDAP[0]	/* MoveDirectAbsPt */\012MDAP[0]	/* MoveDirectAbsPt */\012SVTCA[0]	/* SetFreedomAndProjectionVectorToAxis */\012MDAP[0]	/* MoveDirectAbsPt */\012MDAP[0]	/* MoveDirectAbsPt */\012MDAP[0]	/* MoveDirectAbsPt */\012MDAP[0]	/* MoveDirectAbsPt */\012MDAP[0]	/* MoveDirectAbsPt */\012MDAP[0]	/* MoveDirectAbsPt */\012MDAP[0]	/* MoveDirectAbsPt */\012MDAP[0]	/* MoveDirectAbsPt */\012MDAP[0]	/* MoveDirectAbsPt */\012MDAP[0]	/* MoveDirectAbsPt */\012IUP[1]	/* InterpolateUntPts */\012IUP[0]	/* InterpolateUntPts */\012SVTCA[1]	/* SetFreedomAndProjectionVectorToAxis */\012MD[0]	/* MeasureDistance */\012ROUND[00]	/* Round */\012PUSHW[ ]	/* 2 values pushed */\01267 90 \012MD[0]	/* MeasureDistance */\012ROUND[00]	/* Round */\012SUB[ ]	/* Subtract */\012PUSHB[ ]	/* 1 value pushed */\01264 \012GT[ ]	/* GreaterThan */\012IF[ ]	/* If */\012SHPIX[ ]	/* ShiftZoneByPixel */\012SRP1[ ]	/* SetRefPoint1 */\012SHZ[1]	/* ShiftZoneByLastPoint */\012PUSHW[ ]	/* 2 values pushed */\01290 -64 \012SHPIX[ ]	/* ShiftZoneByPixel */\012EIF[ ]	/* EndIf */";
};
width = 518;
}
);
note = C;
unicode = 0043;
},
{
glyphname = D;
lastChange = "2021-11-29 06:54:51 +0000";
layers = (
{
layerId = "2018A826-CC5C-461A-95E5-9D849642E9B7";
paths = (
{
closed = 1;
nodes = (
"427 219.333 OFFCURVE",
"429 234.667 OFFCURVE",
"429 250 CURVE SMOOTH",
"429 257.333 OFFCURVE",
"425.667 282 OFFCURVE",
"419 324 CURVE SMOOTH",
"410.333 375.333 OFFCURVE",
"389.667 420 OFFCURVE",
"357 458 CURVE",
"345.667 475.333 OFFCURVE",
"333 489.667 OFFCURVE",
"319 501 CURVE",
"276 529 LINE SMOOTH",
"263.333 537 OFFCURVE",
"235.667 548.667 OFFCURVE",
"193 564 CURVE SMOOTH",
"153.667 578.667 OFFCURVE",
"132.333 587.667 OFFCURVE",
"129 591 CURVE",
"121 602.333 OFFCURVE",
"114.333 611.333 OFFCURVE",
"109 618 CURVE",
"107 618 LINE",
"105 619.333 OFFCURVE",
"103 620 OFFCURVE",
"101 620 CURVE SMOOTH",
"88.333 620 OFFCURVE",
"82 610.667 OFFCURVE",
"82 592 CURVE SMOOTH",
"82 586.667 OFFCURVE",
"83.333 582.333 OFFCURVE",
"86 579 CURVE",
"91 581 LINE",
"87 577 LINE",
"112 551.5 LINE SMOOTH",
"117.333 545.833 OFFCURVE",
"139.667 535 OFFCURVE",
"179 519 CURVE SMOOTH",
"221 503 OFFCURVE",
"247.333 491.667 OFFCURVE",
"258 485 CURVE SMOOTH",
"298 461 OFFCURVE",
"324 440.667 OFFCURVE",
"336 424 CURVE SMOOTH",
"354 400 OFFCURVE",
"365.333 382.667 OFFCURVE",
"370 372 CURVE SMOOTH",
"379.333 354.667 OFFCURVE",
"385.333 333.667 OFFCURVE",
"388 309 CURVE SMOOTH",
"392.667 269 OFFCURVE",
"392.333 237.667 OFFCURVE",
"387 215 CURVE SMOOTH",
"383.667 201.667 OFFCURVE",
"378.667 190.333 OFFCURVE",
"372 181 CURVE",
"344 149 LINE SMOOTH",
"308.667 113.667 OFFCURVE",
"282.667 89.333 OFFCURVE",
"266 76 CURVE SMOOTH",
"240.667 54.667 OFFCURVE",
"220.333 39.667 OFFCURVE",
"205 31 CURVE",
"167.667 15.667 OFFCURVE",
"140.667 5.667 OFFCURVE",
"124 1 CURVE",
"117.333 -2.333 OFFCURVE",
"114 -8 OFFCURVE",
"114 -16 CURVE SMOOTH",
"114 -29.333 OFFCURVE",
"118.667 -36 OFFCURVE",
"128 -36 CURVE SMOOTH",
"130 -36 OFFCURVE",
"132 -35.333 OFFCURVE",
"134 -34 CURVE SMOOTH",
"142 -30.667 OFFCURVE",
"154.667 -27.667 OFFCURVE",
"172 -25 CURVE SMOOTH",
"186 -23 OFFCURVE",
"199 -18.667 OFFCURVE",
"211 -12 CURVE SMOOTH",
"233.667 0.667 OFFCURVE",
"256.667 16.667 OFFCURVE",
"280 36 CURVE SMOOTH",
"312.667 62.667 OFFCURVE",
"339.667 88.333 OFFCURVE",
"361 113 CURVE SMOOTH",
"395 148 LINE",
"407.667 163.333 OFFCURVE",
"417 182 OFFCURVE",
"423 204 CURVE SMOOTH"
);
},
{
closed = 1;
nodes = (
"135.667 521.333 OFFCURVE",
"131.333 530 OFFCURVE",
"120 530 CURVE SMOOTH",
"110 530 OFFCURVE",
"104 521.667 OFFCURVE",
"102 505 CURVE SMOOTH",
"91 422 LINE",
"83 386 OFFCURVE",
"76 358.667 OFFCURVE",
"70 340 CURVE",
"51 255 LINE SMOOTH",
"41 197 OFFCURVE",
"34 151.667 OFFCURVE",
"30 119 CURVE SMOOTH",
"30 116 LINE SMOOTH",
"30 85.333 OFFCURVE",
"34.667 61.667 OFFCURVE",
"44 45 CURVE SMOOTH",
"49.333 36.333 OFFCURVE",
"53.667 32 OFFCURVE",
"57 32 CURVE SMOOTH",
"67.667 32 OFFCURVE",
"77.667 50.333 OFFCURVE",
"75 65 CURVE",
"78 66 LINE",
"68 79.333 OFFCURVE",
"62.667 97 OFFCURVE",
"62 119 CURVE SMOOTH",
"59.333 185.667 OFFCURVE",
"92 287.333 OFFCURVE",
"104 326 CURVE",
"118.667 387.333 OFFCURVE",
"126 419 OFFCURVE",
"126 421 CURVE SMOOTH",
"133 504 LINE SMOOTH"
);
}
);
userData = {
assembly = "NPUSHB[ ]	/* 33 values pushed */\0121 98 98 64 99 64 97 96 94 79 43 42 97 96 84 83 75 73 66 64 45 42 41 30 16 50 49 47 14 1 1 83 70 \012SROUND[ ]	/* SuperRound */\012MDAP[1]	/* MoveDirectAbsPt */\012SHZ[1]	/* ShiftZoneByLastPoint */\012RTG[ ]	/* RoundToGrid */\012SVTCA[0]	/* SetFreedomAndProjectionVectorToAxis */\012MIAP[1]	/* MoveIndirectAbsPt */\012MDAP[1]	/* MoveDirectAbsPt */\012ALIGNRP[ ]	/* AlignRelativePt */\012ALIGNRP[ ]	/* AlignRelativePt */\012SVTCA[1]	/* SetFreedomAndProjectionVectorToAxis */\012MDAP[0]	/* MoveDirectAbsPt */\012MDAP[0]	/* MoveDirectAbsPt */\012MDAP[0]	/* MoveDirectAbsPt */\012MDAP[0]	/* MoveDirectAbsPt */\012MDAP[0]	/* MoveDirectAbsPt */\012MDAP[0]	/* MoveDirectAbsPt */\012MDAP[0]	/* MoveDirectAbsPt */\012MDAP[0]	/* MoveDirectAbsPt */\012MDAP[0]	/* MoveDirectAbsPt */\012MDAP[0]	/* MoveDirectAbsPt */\012MDAP[0]	/* MoveDirectAbsPt */\012MDAP[0]	/* MoveDirectAbsPt */\012MDAP[0]	/* MoveDirectAbsPt */\012SVTCA[0]	/* SetFreedomAndProjectionVectorToAxis */\012MDAP[0]	/* MoveDirectAbsPt */\012MDAP[0]	/* MoveDirectAbsPt */\012MDAP[0]	/* MoveDirectAbsPt */\012MDAP[0]	/* MoveDirectAbsPt */\012MDAP[0]	/* MoveDirectAbsPt */\012MDAP[0]	/* MoveDirectAbsPt */\012IUP[1]	/* InterpolateUntPts */\012IUP[0]	/* InterpolateUntPts */\012SVTCA[1]	/* SetFreedomAndProjectionVectorToAxis */\012MD[0]	/* MeasureDistance */\012ROUND[00]	/* Round */\012PUSHW[ ]	/* 2 values pushed */\01283 98 \012MD[0]	/* MeasureDistance */\012ROUND[00]	/* Round */\012SUB[ ]	/* Subtract */\012PUSHB[ ]	/* 1 value pushed */\01264 \012GT[ ]	/* GreaterThan */\012IF[ ]	/* If */\012SHPIX[ ]	/* ShiftZoneByPixel */\012SRP1[ ]	/* SetRefPoint1 */\012SHZ[1]	/* ShiftZoneByLastPoint */\012PUSHW[ ]	/* 2 values pushed */\01298 -64 \012SHPIX[ ]	/* ShiftZoneByPixel */\012EIF[ ]	/* EndIf */";
};
width = 443;
}
);
note = D;
unicode = 0044;
},
{
glyphname = E;
lastChange = "2021-11-29 06:54:51 +0000";
layers = (
{
layerId = "2018A826-CC5C-461A-95E5-9D849642E9B7";
paths = (
{
closed = 1;
nodes = (
"480 548.667 OFFCURVE",
"478 563.333 OFFCURVE",
"474 574 CURVE",
"464.667 585.333 OFFCURVE",
"457.333 592.333 OFFCURVE",
"452 595 CURVE",
"440 604.333 OFFCURVE",
"424.333 611 OFFCURVE",
"405 615 CURVE SMOOTH",
"396.333 617.667 OFFCURVE",
"378 620.667 OFFCURVE",
"350 624 CURVE SMOOTH",
"307.333 629.333 OFFCURVE",
"266.333 626.333 OFFCURVE",
"227 615 CURVE SMOOTH",
"206.333 609 OFFCURVE",
"185.167 599.333 OFFCURVE",
"163.5 586 CURVE SMOOTH",
"100 547 LINE SMOOTH",
"92.667 543 OFFCURVE",
"89 535.333 OFFCURVE",
"89 524 CURVE SMOOTH",
"89 509.333 OFFCURVE",
"94 502 OFFCURVE",
"104 502 CURVE SMOOTH",
"106 502 OFFCURVE",
"108 502.333 OFFCURVE",
"110 503 CURVE",
"143.333 521.667 OFFCURVE",
"166.667 535.667 OFFCURVE",
"180 545 CURVE",
"174 501 OFFCURVE",
"169 469.333 OFFCURVE",
"165 450 CURVE",
"163.667 448.667 OFFCURVE",
"156 414 OFFCURVE",
"156 406 CURVE",
"147.333 377.333 OFFCURVE",
"141 355.333 OFFCURVE",
"137 340 CURVE",
"141.667 340.667 OFFCURVE",
"132.667 341 OFFCURVE",
"110 341 CURVE SMOOTH",
"100 341 OFFCURVE",
"95 332.667 OFFCURVE",
"95 316 CURVE SMOOTH",
"95 302 OFFCURVE",
"99.333 295 OFFCURVE",
"108 295 CURVE SMOOTH",
"112.667 295.667 OFFCURVE",
"118.333 295.333 OFFCURVE",
"125 294 CURVE",
"114.333 251.333 OFFCURVE",
"106.333 219.667 OFFCURVE",
"101 199 CURVE",
"94 137 LINE SMOOTH",
"89.333 93 OFFCURVE",
"86.333 60.333 OFFCURVE",
"85 39 CURVE SMOOTH",
"83.667 14.333 OFFCURVE",
"83.667 -1.667 OFFCURVE",
"85 -9 CURVE",
"94.333 -23 OFFCURVE",
"101 -30.333 OFFCURVE",
"105 -31 CURVE",
"108 -33 LINE",
"130 -33 OFFCURVE",
"152 -30.667 OFFCURVE",
"174 -26 CURVE",
"174 -25 LINE",
"206 -25 OFFCURVE",
"233 -22.333 OFFCURVE",
"255 -17 CURVE",
"279.667 -8.333 OFFCURVE",
"296.667 -1.667 OFFCURVE",
"306 3 CURVE",
"330 11.667 OFFCURVE",
"347.667 17.667 OFFCURVE",
"359 21 CURVE SMOOTH",
"383 26 LINE SMOOTH",
"393 28 OFFCURVE",
"402 32 OFFCURVE",
"410 38 CURVE",
"441 68 LINE SMOOTH",
"447 74 OFFCURVE",
"450 81.333 OFFCURVE",
"450 90 CURVE SMOOTH",
"450 104.667 OFFCURVE",
"445.333 112 OFFCURVE",
"436 112 CURVE SMOOTH",
"434 112 OFFCURVE",
"431.667 111 OFFCURVE",
"429 109 CURVE SMOOTH",
"397 81 LINE",
"378.333 73 OFFCURVE",
"364 68 OFFCURVE",
"354 66 CURVE SMOOTH",
"328.667 58.667 OFFCURVE",
"311 53 OFFCURVE",
"301 49 CURVE SMOOTH",
"278.333 40.333 OFFCURVE",
"262.667 34 OFFCURVE",
"254 30 CURVE",
"236 25.333 OFFCURVE",
"209.333 22.333 OFFCURVE",
"174 21 CURVE",
"152 17.667 OFFCURVE",
"138 14.333 OFFCURVE",
"132 11 CURVE",
"124.667 10.333 OFFCURVE",
"120.667 15.333 OFFCURVE",
"120 26 CURVE SMOOTH",
"119.333 47.333 OFFCURVE",
"119.333 59.667 OFFCURVE",
"120 63 CURVE SMOOTH",
"121 83 LINE",
"127.667 135 OFFCURVE",
"134 174 OFFCURVE",
"140 200 CURVE",
"140 219.333 OFFCURVE",
"145.333 250.333 OFFCURVE",
"156 293 CURVE",
"184 293 LINE SMOOTH",
"194.667 293 OFFCURVE",
"207.333 294.667 OFFCURVE",
"222 298 CURVE SMOOTH",
"239.333 302 OFFCURVE",
"251.667 304.333 OFFCURVE",
"259 305 CURVE SMOOTH",
"288.333 308.333 OFFCURVE",
"317.333 310 OFFCURVE",
"346 310 CURVE SMOOTH",
"356.667 310 OFFCURVE",
"362 318.667 OFFCURVE",
"362 336 CURVE SMOOTH",
"362 349.333 OFFCURVE",
"357.667 356 OFFCURVE",
"349 356 CURVE SMOOTH",
"319.667 356 OFFCURVE",
"289.667 354.333 OFFCURVE",
"259 351 CURVE SMOOTH",
"251 350.333 OFFCURVE",
"238.333 348 OFFCURVE",
"221 344 CURVE SMOOTH",
"207 340.667 OFFCURVE",
"195 339 OFFCURVE",
"185 339 CURVE SMOOTH",
"172 339 LINE",
"178.667 361 OFFCURVE",
"183 376.667 OFFCURVE",
"185 386 CURVE SMOOTH",
"190 405 LINE",
"204 475 LINE",
"209.333 525.667 OFFCURVE",
"212.667 554.333 OFFCURVE",
"214 561 CURVE",
"216 563.667 OFFCURVE",
"218 565.333 OFFCURVE",
"220 566 CURVE",
"218.667 566 OFFCURVE",
"310 580 OFFCURVE",
"346 576 CURVE SMOOTH",
"382 572 OFFCURVE",
"421 570.333 OFFCURVE",
"441 549 CURVE SMOOTH",
"447 542.333 OFFCURVE",
"449 537.333 OFFCURVE",
"447 534 CURVE",
"446.333 527.333 OFFCURVE",
"444.333 521.333 OFFCURVE",
"441 516 CURVE",
"438.333 508 OFFCURVE",
"438 500 OFFCURVE",
"440 492 CURVE SMOOTH",
"441.333 483.333 OFFCURVE",
"444.333 479 OFFCURVE",
"449 479 CURVE",
"457 483 OFFCURVE",
"463.333 488.333 OFFCURVE",
"468 495 CURVE",
"474 509.667 OFFCURVE",
"478 521.333 OFFCURVE",
"480 530 CURVE"
);
}
);
userData = {
assembly = "NPUSHB[ ]	/* 41 values pushed */\0121 134 134 64 135 0 117 113 106 104 69 55 46 44 34 28 27 15 4 119 113 102 98 92 90 85 84 71 53 51 36 27 10 6 0 126 87 1 1 90 70 \012SROUND[ ]	/* SuperRound */\012MDAP[1]	/* MoveDirectAbsPt */\012SHZ[1]	/* ShiftZoneByLastPoint */\012RTG[ ]	/* RoundToGrid */\012SVTCA[0]	/* SetFreedomAndProjectionVectorToAxis */\012MIAP[1]	/* MoveIndirectAbsPt */\012MDAP[1]	/* MoveDirectAbsPt */\012SVTCA[1]	/* SetFreedomAndProjectionVectorToAxis */\012MDAP[0]	/* MoveDirectAbsPt */\012MDAP[0]	/* MoveDirectAbsPt */\012MDAP[0]	/* MoveDirectAbsPt */\012MDAP[0]	/* MoveDirectAbsPt */\012MDAP[0]	/* MoveDirectAbsPt */\012MDAP[0]	/* MoveDirectAbsPt */\012MDAP[0]	/* MoveDirectAbsPt */\012MDAP[0]	/* MoveDirectAbsPt */\012MDAP[0]	/* MoveDirectAbsPt */\012MDAP[0]	/* MoveDirectAbsPt */\012MDAP[0]	/* MoveDirectAbsPt */\012MDAP[0]	/* MoveDirectAbsPt */\012MDAP[0]	/* MoveDirectAbsPt */\012MDAP[0]	/* MoveDirectAbsPt */\012MDAP[0]	/* MoveDirectAbsPt */\012MDAP[0]	/* MoveDirectAbsPt */\012SVTCA[0]	/* SetFreedomAndProjectionVectorToAxis */\012MDAP[0]	/* MoveDirectAbsPt */\012MDAP[0]	/* MoveDirectAbsPt */\012MDAP[0]	/* MoveDirectAbsPt */\012MDAP[0]	/* MoveDirectAbsPt */\012MDAP[0]	/* MoveDirectAbsPt */\012MDAP[0]	/* MoveDirectAbsPt */\012MDAP[0]	/* MoveDirectAbsPt */\012MDAP[0]	/* MoveDirectAbsPt */\012MDAP[0]	/* MoveDirectAbsPt */\012MDAP[0]	/* MoveDirectAbsPt */\012MDAP[0]	/* MoveDirectAbsPt */\012MDAP[0]	/* MoveDirectAbsPt */\012MDAP[0]	/* MoveDirectAbsPt */\012IUP[1]	/* InterpolateUntPts */\012IUP[0]	/* InterpolateUntPts */\012SVTCA[1]	/* SetFreedomAndProjectionVectorToAxis */\012MD[0]	/* MeasureDistance */\012ROUND[00]	/* Round */\012PUSHW[ ]	/* 2 values pushed */\01290 134 \012MD[0]	/* MeasureDistance */\012ROUND[00]	/* Round */\012SUB[ ]	/* Subtract */\012PUSHB[ ]	/* 1 value pushed */\01264 \012GT[ ]	/* GreaterThan */\012IF[ ]	/* If */\012SHPIX[ ]	/* ShiftZoneByPixel */\012SRP1[ ]	/* SetRefPoint1 */\012SHZ[1]	/* ShiftZoneByLastPoint */\012PUSHW[ ]	/* 2 values pushed */\012134 -64 \012SHPIX[ ]	/* ShiftZoneByPixel */\012EIF[ ]	/* EndIf */";
};
width = 489;
}
);
note = E;
unicode = 0045;
},
{
glyphname = F;
lastChange = "2021-11-29 06:54:51 +0000";
layers = (
{
layerId = "2018A826-CC5C-461A-95E5-9D849642E9B7";
paths = (
{
closed = 1;
nodes = (
"480 548.667 OFFCURVE",
"478 563.333 OFFCURVE",
"474 574 CURVE",
"464.667 585.333 OFFCURVE",
"457.333 592.333 OFFCURVE",
"452 595 CURVE",
"440 604.333 OFFCURVE",
"424.333 611 OFFCURVE",
"405 615 CURVE SMOOTH",
"396.333 617.667 OFFCURVE",
"378 620.667 OFFCURVE",
"350 624 CURVE SMOOTH",
"307.333 629.333 OFFCURVE",
"266.333 626.333 OFFCURVE",
"227 615 CURVE SMOOTH",
"206.333 609 OFFCURVE",
"185.167 599.333 OFFCURVE",
"163.5 586 CURVE SMOOTH",
"100 547 LINE SMOOTH",
"92.667 543 OFFCURVE",
"89 535.333 OFFCURVE",
"89 524 CURVE SMOOTH",
"89 509.333 OFFCURVE",
"94 502 OFFCURVE",
"104 502 CURVE SMOOTH",
"106 502 OFFCURVE",
"108 502.333 OFFCURVE",
"110 503 CURVE",
"143.333 521.667 OFFCURVE",
"166.667 535.667 OFFCURVE",
"180 545 CURVE",
"174 500.333 OFFCURVE",
"169 468.333 OFFCURVE",
"165 449 CURVE SMOOTH",
"159.667 425.667 OFFCURVE",
"157.667 411.333 OFFCURVE",
"159 406 CURVE",
"159 408 LINE",
"149.667 378 OFFCURVE",
"143 355.333 OFFCURVE",
"139 340 CURVE",
"145 340.667 OFFCURVE",
"135.333 341 OFFCURVE",
"110 341 CURVE SMOOTH",
"100 341 OFFCURVE",
"95 332.667 OFFCURVE",
"95 316 CURVE SMOOTH",
"95 302 OFFCURVE",
"99.333 295 OFFCURVE",
"108 295 CURVE SMOOTH",
"112.667 295.667 OFFCURVE",
"118.333 295.333 OFFCURVE",
"125 294 CURVE",
"111 242.667 OFFCURVE",
"103 211 OFFCURVE",
"101 199 CURVE",
"101 199 LINE",
"94 137 LINE SMOOTH",
"89.333 93 OFFCURVE",
"86.333 60.333 OFFCURVE",
"85 39 CURVE SMOOTH",
"83.667 14.333 OFFCURVE",
"83.667 -1.667 OFFCURVE",
"85 -9 CURVE",
"94.333 -23 OFFCURVE",
"101 -30.333 OFFCURVE",
"105 -31 CURVE",
"108 -33 LINE",
"116 -33 OFFCURVE",
"134 -24.333 OFFCURVE",
"134 -15 CURVE SMOOTH",
"134 -10.333 OFFCURVE",
"131 -5.667 OFFCURVE",
"125 -1 CURVE",
"124 9 LINE",
"121 21 LINE SMOOTH",
"119 29.667 OFFCURVE",
"119 50.333 OFFCURVE",
"121 83 CURVE SMOOTH",
"127.667 152.333 OFFCURVE",
"131.667 190.667 OFFCURVE",
"133 198 CURVE SMOOTH",
"139 234 OFFCURVE",
"146.333 265 OFFCURVE",
"155 291 CURVE",
"169 291 OFFCURVE",
"186.333 293 OFFCURVE",
"207 297 CURVE SMOOTH",
"259 305 LINE SMOOTH",
"288.333 308.333 OFFCURVE",
"317.333 310 OFFCURVE",
"346 310 CURVE SMOOTH",
"356.667 310 OFFCURVE",
"362 318.667 OFFCURVE",
"362 336 CURVE SMOOTH",
"362 349.333 OFFCURVE",
"357.667 356 OFFCURVE",
"349 356 CURVE SMOOTH",
"319.667 356 OFFCURVE",
"289.667 354.333 OFFCURVE",
"259 351 CURVE SMOOTH",
"251 350.333 OFFCURVE",
"238.333 348 OFFCURVE",
"221 344 CURVE SMOOTH",
"207 340.667 OFFCURVE",
"195 339 OFFCURVE",
"185 339 CURVE SMOOTH",
"172 339 LINE",
"179.333 359 OFFCURVE",
"184 375.667 OFFCURVE",
"186 389 CURVE",
"190 401 LINE SMOOTH",
"196 419 OFFCURVE",
"200.667 443.333 OFFCURVE",
"204 474 CURVE SMOOTH",
"209.333 524.667 OFFCURVE",
"212.667 553.667 OFFCURVE",
"214 561 CURVE",
"216 563.667 OFFCURVE",
"218 565.333 OFFCURVE",
"220 566 CURVE",
"218.667 566 OFFCURVE",
"310 580 OFFCURVE",
"346 576 CURVE SMOOTH",
"382 572 OFFCURVE",
"421 570.333 OFFCURVE",
"441 549 CURVE SMOOTH",
"446.333 543.667 OFFCURVE",
"448 538 OFFCURVE",
"446 532 CURVE",
"446 526 OFFCURVE",
"444.333 520.333 OFFCURVE",
"441 515 CURVE",
"438.333 507.667 OFFCURVE",
"438 499.667 OFFCURVE",
"440 491 CURVE SMOOTH",
"441.333 483 OFFCURVE",
"444.333 479 OFFCURVE",
"449 479 CURVE",
"457 483 OFFCURVE",
"463.333 488.333 OFFCURVE",
"468 495 CURVE",
"474 509.667 OFFCURVE",
"478 521.333 OFFCURVE",
"480 530 CURVE"
);
}
);
userData = {
assembly = "NPUSHB[ ]	/* 44 values pushed */\0121 105 105 64 106 0 88 84 80 79 77 75 34 28 27 15 4 90 84 80 79 73 69 67 66 62 60 54 50 48 36 27 10 6 0 97 67 66 2 57 1 1 60 70 \012SROUND[ ]	/* SuperRound */\012MDAP[1]	/* MoveDirectAbsPt */\012SHZ[1]	/* ShiftZoneByLastPoint */\012RTG[ ]	/* RoundToGrid */\012SVTCA[0]	/* SetFreedomAndProjectionVectorToAxis */\012MIAP[1]	/* MoveIndirectAbsPt */\012MIAP[1]	/* MoveIndirectAbsPt */\012ALIGNRP[ ]	/* AlignRelativePt */\012MDAP[1]	/* MoveDirectAbsPt */\012SVTCA[1]	/* SetFreedomAndProjectionVectorToAxis */\012MDAP[0]	/* MoveDirectAbsPt */\012MDAP[0]	/* MoveDirectAbsPt */\012MDAP[0]	/* MoveDirectAbsPt */\012MDAP[0]	/* MoveDirectAbsPt */\012MDAP[0]	/* MoveDirectAbsPt */\012MDAP[0]	/* MoveDirectAbsPt */\012MDAP[0]	/* MoveDirectAbsPt */\012MDAP[0]	/* MoveDirectAbsPt */\012MDAP[0]	/* MoveDirectAbsPt */\012MDAP[0]	/* MoveDirectAbsPt */\012MDAP[0]	/* MoveDirectAbsPt */\012MDAP[0]	/* MoveDirectAbsPt */\012MDAP[0]	/* MoveDirectAbsPt */\012MDAP[0]	/* MoveDirectAbsPt */\012MDAP[0]	/* MoveDirectAbsPt */\012MDAP[0]	/* MoveDirectAbsPt */\012MDAP[0]	/* MoveDirectAbsPt */\012MDAP[0]	/* MoveDirectAbsPt */\012SVTCA[0]	/* SetFreedomAndProjectionVectorToAxis */\012MDAP[0]	/* MoveDirectAbsPt */\012MDAP[0]	/* MoveDirectAbsPt */\012MDAP[0]	/* MoveDirectAbsPt */\012MDAP[0]	/* MoveDirectAbsPt */\012MDAP[0]	/* MoveDirectAbsPt */\012MDAP[0]	/* MoveDirectAbsPt */\012MDAP[0]	/* MoveDirectAbsPt */\012MDAP[0]	/* MoveDirectAbsPt */\012MDAP[0]	/* MoveDirectAbsPt */\012MDAP[0]	/* MoveDirectAbsPt */\012MDAP[0]	/* MoveDirectAbsPt */\012IUP[1]	/* InterpolateUntPts */\012IUP[0]	/* InterpolateUntPts */\012SVTCA[1]	/* SetFreedomAndProjectionVectorToAxis */\012MD[0]	/* MeasureDistance */\012ROUND[00]	/* Round */\012PUSHW[ ]	/* 2 values pushed */\01260 105 \012MD[0]	/* MeasureDistance */\012ROUND[00]	/* Round */\012SUB[ ]	/* Subtract */\012PUSHB[ ]	/* 1 value pushed */\01264 \012GT[ ]	/* GreaterThan */\012IF[ ]	/* If */\012SHPIX[ ]	/* ShiftZoneByPixel */\012SRP1[ ]	/* SetRefPoint1 */\012SHZ[1]	/* ShiftZoneByLastPoint */\012PUSHW[ ]	/* 2 values pushed */\012105 -64 \012SHPIX[ ]	/* ShiftZoneByPixel */\012EIF[ ]	/* EndIf */";
};
width = 376;
}
);
note = F;
unicode = 0046;
},
{
glyphname = G;
lastChange = "2021-11-29 06:54:51 +0000";
layers = (
{
layerId = "2018A826-CC5C-461A-95E5-9D849642E9B7";
paths = (
{
closed = 1;
nodes = (
"488 263 OFFCURVE",
"480 262.5 OFFCURVE",
"470 261.5 CURVE SMOOTH",
"460 260.5 OFFCURVE",
"452 260 OFFCURVE",
"446 260 CURVE SMOOTH",
"430.667 260 OFFCURVE",
"410.333 258.5 OFFCURVE",
"385 255.5 CURVE SMOOTH",
"359.667 252.5 OFFCURVE",
"339.667 251 OFFCURVE",
"325 251 CURVE SMOOTH",
"315.667 251 OFFCURVE",
"304 251 OFFCURVE",
"290 251 CURVE SMOOTH",
"255 250 LINE SMOOTH",
"243.667 250 OFFCURVE",
"238 240 OFFCURVE",
"238 220 CURVE SMOOTH",
"238 206.667 OFFCURVE",
"242 200 OFFCURVE",
"250 200 CURVE SMOOTH",
"260 200 OFFCURVE",
"272.333 200.333 OFFCURVE",
"287 201 CURVE SMOOTH",
"323 201 LINE SMOOTH",
"339 201 OFFCURVE",
"358 202.333 OFFCURVE",
"380 205 CURVE SMOOTH",
"402 207.667 OFFCURVE",
"419 209 OFFCURVE",
"431 209 CURVE",
"423.667 173 OFFCURVE",
"418 150.333 OFFCURVE",
"414 141 CURVE SMOOTH",
"402.667 115.667 OFFCURVE",
"386 90 OFFCURVE",
"364 64 CURVE SMOOTH",
"336 31 LINE",
"319.333 23.667 OFFCURVE",
"304.667 20 OFFCURVE",
"292 20 CURVE",
"291 21 LINE",
"287.667 18.333 OFFCURVE",
"275.667 14.667 OFFCURVE",
"255 10 CURVE SMOOTH",
"230.333 4.667 OFFCURVE",
"208.333 2 OFFCURVE",
"189 2 CURVE SMOOTH",
"177 2 OFFCURVE",
"167 3.333 OFFCURVE",
"159 6 CURVE SMOOTH",
"130.333 15.333 OFFCURVE",
"112.667 22.667 OFFCURVE",
"106 28 CURVE",
"86.667 52.667 OFFCURVE",
"77 88.667 OFFCURVE",
"77 136 CURVE SMOOTH",
"77 150 OFFCURVE",
"78 164.333 OFFCURVE",
"80 179 CURVE SMOOTH",
"85.333 220.333 OFFCURVE",
"100 268.333 OFFCURVE",
"124 323 CURVE SMOOTH",
"140.667 360.333 OFFCURVE",
"162 397 OFFCURVE",
"188 433 CURVE SMOOTH",
"196.667 445 OFFCURVE",
"216 465 OFFCURVE",
"246 493 CURVE SMOOTH",
"278.667 524.333 OFFCURVE",
"302 543.333 OFFCURVE",
"316 550 CURVE",
"324 555.333 OFFCURVE",
"376.333 575 OFFCURVE",
"379 575 CURVE",
"379 575 OFFCURVE",
"387 573 OFFCURVE",
"403 569 CURVE",
"411 551 LINE",
"413.667 538.333 OFFCURVE",
"415 527.667 OFFCURVE",
"415 519 CURVE SMOOTH",
"415.667 508.333 OFFCURVE",
"419.667 503 OFFCURVE",
"427 503 CURVE SMOOTH",
"437.667 503 OFFCURVE",
"449.667 516.667 OFFCURVE",
"447 534 CURVE SMOOTH",
"444.333 555.333 OFFCURVE",
"442 570.167 OFFCURVE",
"440 578.5 CURVE SMOOTH",
"438 586.833 OFFCURVE",
"434 594.333 OFFCURVE",
"428 601 CURVE SMOOTH",
"426 603.667 OFFCURVE",
"421.333 608.333 OFFCURVE",
"414 615 CURVE",
"412 615 LINE",
"396.667 621.667 OFFCURVE",
"386.667 625 OFFCURVE",
"382 625 CURVE",
"379.333 625.667 OFFCURVE",
"367.333 622 OFFCURVE",
"346 614 CURVE SMOOTH",
"309 600 LINE",
"309 597 LINE",
"292.333 587.667 OFFCURVE",
"266.333 566.333 OFFCURVE",
"231 533 CURVE SMOOTH",
"199 503 OFFCURVE",
"178.333 481.667 OFFCURVE",
"169 469 CURVE SMOOTH",
"145.667 437 OFFCURVE",
"122.667 396 OFFCURVE",
"100 346 CURVE SMOOTH",
"69.333 278.667 OFFCURVE",
"51.333 224 OFFCURVE",
"46 182 CURVE SMOOTH",
"43.333 162 OFFCURVE",
"42 143.333 OFFCURVE",
"42 126 CURVE SMOOTH",
"42 82.667 OFFCURVE",
"49.667 45.333 OFFCURVE",
"65 14 CURVE",
"79 -4 OFFCURVE",
"89.333 -15.667 OFFCURVE",
"96 -21 CURVE",
"120 -33.667 OFFCURVE",
"137.667 -41.333 OFFCURVE",
"149 -44 CURVE SMOOTH",
"156.333 -46.667 OFFCURVE",
"166 -48 OFFCURVE",
"178 -48 CURVE SMOOTH",
"197.333 -48 OFFCURVE",
"238.333 -40 OFFCURVE",
"301 -24 CURVE",
"300 -24 LINE",
"343 -15 LINE",
"351.667 -11 OFFCURVE",
"359.667 -4.333 OFFCURVE",
"367 5 CURVE SMOOTH",
"381 26 LINE SMOOTH",
"411 65.333 OFFCURVE",
"430.333 95 OFFCURVE",
"439 115 CURVE SMOOTH",
"455.667 159.667 OFFCURVE",
"467 191.667 OFFCURVE",
"473 211 CURVE",
"478.333 213 OFFCURVE",
"484.333 214 OFFCURVE",
"491 214 CURVE SMOOTH",
"502.333 214 OFFCURVE",
"508 222.667 OFFCURVE",
"508 240 CURVE SMOOTH",
"508 255.333 OFFCURVE",
"503.333 263 OFFCURVE",
"494 263 CURVE SMOOTH"
);
}
);
userData = {
assembly = "NPUSHB[ ]	/* 39 values pushed */\0121 114 114 64 115 2 108 106 100 98 96 85 84 80 61 53 45 44 0 102 93 74 50 38 37 27 17 16 2 42 19 93 2 17 16 1 1 27 70 \012SROUND[ ]	/* SuperRound */\012MDAP[1]	/* MoveDirectAbsPt */\012SHZ[1]	/* ShiftZoneByLastPoint */\012RTG[ ]	/* RoundToGrid */\012SVTCA[0]	/* SetFreedomAndProjectionVectorToAxis */\012MIAP[1]	/* MoveIndirectAbsPt */\012ALIGNRP[ ]	/* AlignRelativePt */\012MIAP[1]	/* MoveIndirectAbsPt */\012MDAP[1]	/* MoveDirectAbsPt */\012MDAP[1]	/* MoveDirectAbsPt */\012SVTCA[1]	/* SetFreedomAndProjectionVectorToAxis */\012MDAP[0]	/* MoveDirectAbsPt */\012MDAP[0]	/* MoveDirectAbsPt */\012MDAP[0]	/* MoveDirectAbsPt */\012MDAP[0]	/* MoveDirectAbsPt */\012MDAP[0]	/* MoveDirectAbsPt */\012MDAP[0]	/* MoveDirectAbsPt */\012MDAP[0]	/* MoveDirectAbsPt */\012MDAP[0]	/* MoveDirectAbsPt */\012MDAP[0]	/* MoveDirectAbsPt */\012MDAP[0]	/* MoveDirectAbsPt */\012SVTCA[0]	/* SetFreedomAndProjectionVectorToAxis */\012MDAP[0]	/* MoveDirectAbsPt */\012MDAP[0]	/* MoveDirectAbsPt */\012MDAP[0]	/* MoveDirectAbsPt */\012MDAP[0]	/* MoveDirectAbsPt */\012MDAP[0]	/* MoveDirectAbsPt */\012MDAP[0]	/* MoveDirectAbsPt */\012MDAP[0]	/* MoveDirectAbsPt */\012MDAP[0]	/* MoveDirectAbsPt */\012MDAP[0]	/* MoveDirectAbsPt */\012MDAP[0]	/* MoveDirectAbsPt */\012MDAP[0]	/* MoveDirectAbsPt */\012MDAP[0]	/* MoveDirectAbsPt */\012MDAP[0]	/* MoveDirectAbsPt */\012IUP[1]	/* InterpolateUntPts */\012IUP[0]	/* InterpolateUntPts */\012SVTCA[1]	/* SetFreedomAndProjectionVectorToAxis */\012MD[0]	/* MeasureDistance */\012ROUND[00]	/* Round */\012PUSHW[ ]	/* 2 values pushed */\01227 114 \012MD[0]	/* MeasureDistance */\012ROUND[00]	/* Round */\012SUB[ ]	/* Subtract */\012PUSHB[ ]	/* 1 value pushed */\01264 \012GT[ ]	/* GreaterThan */\012IF[ ]	/* If */\012SHPIX[ ]	/* ShiftZoneByPixel */\012SRP1[ ]	/* SetRefPoint1 */\012SHZ[1]	/* ShiftZoneByLastPoint */\012PUSHW[ ]	/* 2 values pushed */\012114 -64 \012SHPIX[ ]	/* ShiftZoneByPixel */\012EIF[ ]	/* EndIf */";
};
width = 506;
}
);
note = G;
unicode = 0047;
},
{
glyphname = H;
lastChange = "2021-11-29 06:54:51 +0000";
layers = (
{
layerId = "2018A826-CC5C-461A-95E5-9D849642E9B7";
paths = (
{
closed = 1;
nodes = (
"352.667 601.333 OFFCURVE",
"348.333 610 OFFCURVE",
"337 610 CURVE SMOOTH",
"327 610 OFFCURVE",
"321 602 OFFCURVE",
"319 586 CURVE SMOOTH",
"309 509 LINE SMOOTH",
"301 461 OFFCURVE",
"294.667 426 OFFCURVE",
"290 404 CURVE",
"283.333 348 OFFCURVE",
"279 308.333 OFFCURVE",
"277 285 CURVE",
"271.667 256.333 OFFCURVE",
"267.667 235.333 OFFCURVE",
"265 222 CURVE",
"245.5 221 LINE SMOOTH",
"236.5 220.333 OFFCURVE",
"229.333 220 OFFCURVE",
"224 220 CURVE SMOOTH",
"112 230 LINE",
"96 228 OFFCURVE",
"89 227 OFFCURVE",
"91 227 CURVE",
"92 237 LINE SMOOTH",
"92.667 241 OFFCURVE",
"93 243.667 OFFCURVE",
"93 245 CURVE SMOOTH",
"111 359 LINE SMOOTH",
"117.667 401 OFFCURVE",
"123.667 432.333 OFFCURVE",
"129 453 CURVE",
"133 479 OFFCURVE",
"136.667 498.333 OFFCURVE",
"140 511 CURVE",
"144.667 544.333 OFFCURVE",
"147.667 569 OFFCURVE",
"149 585 CURVE SMOOTH",
"151.667 603.667 OFFCURVE",
"146.667 613 OFFCURVE",
"134 613 CURVE SMOOTH",
"123.333 613 OFFCURVE",
"116.667 605 OFFCURVE",
"114 589 CURVE SMOOTH",
"108.667 555 OFFCURVE",
"104.667 530.667 OFFCURVE",
"102 516 CURVE SMOOTH",
"95 454 LINE",
"87 412.667 OFFCURVE",
"80.333 381.667 OFFCURVE",
"75 361 CURVE",
"67 309 OFFCURVE",
"61.667 271.667 OFFCURVE",
"59 249 CURVE SMOOTH",
"59 246.333 OFFCURVE",
"58.333 242.167 OFFCURVE",
"57 236.5 CURVE SMOOTH",
"55.667 230.833 OFFCURVE",
"55 227 OFFCURVE",
"55 225 CURVE",
"48.333 221.667 OFFCURVE",
"43 220 OFFCURVE",
"39 220 CURVE SMOOTH",
"28.333 220 OFFCURVE",
"23 212 OFFCURVE",
"23 196 CURVE SMOOTH",
"23 181.333 OFFCURVE",
"28.333 174 OFFCURVE",
"39 174 CURVE SMOOTH",
"51 174 LINE",
"47 162 LINE",
"43.667 104.667 OFFCURVE",
"41 63 OFFCURVE",
"39 37 CURVE SMOOTH",
"39 14.333 OFFCURVE",
"39.333 -2.333 OFFCURVE",
"40 -13 CURVE SMOOTH",
"39.333 -27.667 OFFCURVE",
"43.333 -35 OFFCURVE",
"52 -35 CURVE SMOOTH",
"64 -35 OFFCURVE",
"71 -25.333 OFFCURVE",
"73 -6 CURVE SMOOTH",
"73.667 1.333 OFFCURVE",
"74 17.667 OFFCURVE",
"74 43 CURVE SMOOTH",
"74 85.667 OFFCURVE",
"77 126.667 OFFCURVE",
"83 166 CURVE SMOOTH",
"84.333 174.667 OFFCURVE",
"85 178 OFFCURVE",
"85 176 CURVE",
"97.667 180.667 OFFCURVE",
"105.333 183 OFFCURVE",
"108 183 CURVE SMOOTH",
"116.667 183 OFFCURVE",
"127.667 181.5 OFFCURVE",
"141 178.5 CURVE SMOOTH",
"154.333 175.5 OFFCURVE",
"165 174 OFFCURVE",
"173 174 CURVE SMOOTH",
"178.333 174 OFFCURVE",
"185.667 173.667 OFFCURVE",
"195 173 CURVE SMOOTH",
"220 172 LINE SMOOTH",
"224.667 172 OFFCURVE",
"231.333 172.333 OFFCURVE",
"240 173 CURVE SMOOTH",
"259 174 LINE",
"249 96.667 OFFCURVE",
"242.667 38.333 OFFCURVE",
"240 -1 CURVE SMOOTH",
"237.333 -19 OFFCURVE",
"241.333 -28 OFFCURVE",
"252 -28 CURVE SMOOTH",
"261.333 -28 OFFCURVE",
"267.333 -19.333 OFFCURVE",
"270 -2 CURVE SMOOTH",
"274.667 23.333 OFFCURVE",
"278.333 42 OFFCURVE",
"281 54 CURVE",
"288.333 130 OFFCURVE",
"292.333 169.667 OFFCURVE",
"293 173 CURVE",
"300.333 174.333 OFFCURVE",
"305.333 175 OFFCURVE",
"308 175 CURVE SMOOTH",
"318.667 174.333 OFFCURVE",
"324 183.333 OFFCURVE",
"324 202 CURVE SMOOTH",
"324 214.667 OFFCURVE",
"320 221 OFFCURVE",
"312 221 CURVE",
"309.333 223 OFFCURVE",
"306 224 OFFCURVE",
"302 224 CURVE",
"318.667 349.333 OFFCURVE",
"331.333 443.333 OFFCURVE",
"340 506 CURVE SMOOTH",
"351 583 LINE",
"350 584 LINE"
);
}
);
userData = {
assembly = "NPUSHB[ ]	/* 33 values pushed */\0121 105 105 64 106 0 102 89 84 82 50 49 31 25 22 82 71 52 49 45 22 20 8 4 0 69 41 1 18 1 1 52 70 \012SROUND[ ]	/* SuperRound */\012MDAP[1]	/* MoveDirectAbsPt */\012SHZ[1]	/* ShiftZoneByLastPoint */\012RTG[ ]	/* RoundToGrid */\012SVTCA[0]	/* SetFreedomAndProjectionVectorToAxis */\012MIAP[1]	/* MoveIndirectAbsPt */\012MIAP[1]	/* MoveIndirectAbsPt */\012MDAP[1]	/* MoveDirectAbsPt */\012SVTCA[1]	/* SetFreedomAndProjectionVectorToAxis */\012MDAP[0]	/* MoveDirectAbsPt */\012MDAP[0]	/* MoveDirectAbsPt */\012MDAP[0]	/* MoveDirectAbsPt */\012MDAP[0]	/* MoveDirectAbsPt */\012MDAP[0]	/* MoveDirectAbsPt */\012MDAP[0]	/* MoveDirectAbsPt */\012MDAP[0]	/* MoveDirectAbsPt */\012MDAP[0]	/* MoveDirectAbsPt */\012MDAP[0]	/* MoveDirectAbsPt */\012MDAP[0]	/* MoveDirectAbsPt */\012SVTCA[0]	/* SetFreedomAndProjectionVectorToAxis */\012MDAP[0]	/* MoveDirectAbsPt */\012MDAP[0]	/* MoveDirectAbsPt */\012MDAP[0]	/* MoveDirectAbsPt */\012MDAP[0]	/* MoveDirectAbsPt */\012MDAP[0]	/* MoveDirectAbsPt */\012MDAP[0]	/* MoveDirectAbsPt */\012MDAP[0]	/* MoveDirectAbsPt */\012MDAP[0]	/* MoveDirectAbsPt */\012MDAP[0]	/* MoveDirectAbsPt */\012IUP[1]	/* InterpolateUntPts */\012IUP[0]	/* InterpolateUntPts */\012SVTCA[1]	/* SetFreedomAndProjectionVectorToAxis */\012MD[0]	/* MeasureDistance */\012ROUND[00]	/* Round */\012PUSHW[ ]	/* 2 values pushed */\01252 105 \012MD[0]	/* MeasureDistance */\012ROUND[00]	/* Round */\012SUB[ ]	/* Subtract */\012PUSHB[ ]	/* 1 value pushed */\01264 \012GT[ ]	/* GreaterThan */\012IF[ ]	/* If */\012SHPIX[ ]	/* ShiftZoneByPixel */\012SRP1[ ]	/* SetRefPoint1 */\012SHZ[1]	/* ShiftZoneByLastPoint */\012PUSHW[ ]	/* 2 values pushed */\012105 -64 \012SHPIX[ ]	/* ShiftZoneByPixel */\012EIF[ ]	/* EndIf */";
};
width = 359;
}
);
note = H;
unicode = 0048;
},
{
glyphname = I;
lastChange = "2021-11-29 06:54:51 +0000";
layers = (
{
layerId = "2018A826-CC5C-461A-95E5-9D849642E9B7";
paths = (
{
closed = 1;
nodes = (
"248.667 600 OFFCURVE",
"243.333 600.833 OFFCURVE",
"236 602.5 CURVE SMOOTH",
"228.667 604.167 OFFCURVE",
"222 605 OFFCURVE",
"216 605 CURVE SMOOTH",
"212 605 OFFCURVE",
"206.333 605 OFFCURVE",
"199 605 CURVE SMOOTH",
"185 604 LINE",
"180.333 606 OFFCURVE",
"176.667 606.333 OFFCURVE",
"174 605 CURVE",
"132 605 LINE SMOOTH",
"126.667 605 OFFCURVE",
"120.333 604.167 OFFCURVE",
"113 602.5 CURVE SMOOTH",
"105.667 600.833 OFFCURVE",
"100 600 OFFCURVE",
"96 600 CURVE SMOOTH",
"84.667 600 OFFCURVE",
"79 590 OFFCURVE",
"79 570 CURVE SMOOTH",
"79 556 OFFCURVE",
"83 549 OFFCURVE",
"91 549 CURVE SMOOTH",
"97.667 549 OFFCURVE",
"104.667 550.167 OFFCURVE",
"112 552.5 CURVE SMOOTH",
"119.333 554.833 OFFCURVE",
"124.667 556 OFFCURVE",
"128 556 CURVE SMOOTH",
"134.667 556 OFFCURVE",
"143.333 555.333 OFFCURVE",
"154 554 CURVE",
"154.667 553.333 OFFCURVE",
"154.667 551.667 OFFCURVE",
"154 549 CURVE",
"153.333 519 OFFCURVE",
"150.333 477.333 OFFCURVE",
"145 424 CURVE SMOOTH",
"135.667 343.333 OFFCURVE",
"127 272.333 OFFCURVE",
"119 211 CURVE SMOOTH",
"111 157.667 OFFCURVE",
"103.667 113 OFFCURVE",
"97 77 CURVE",
"91 61.667 OFFCURVE",
"85 49.333 OFFCURVE",
"79 40 CURVE",
"76.333 40 OFFCURVE",
"72.333 39 OFFCURVE",
"67 37 CURVE SMOOTH",
"61.667 35 OFFCURVE",
"57.667 34 OFFCURVE",
"55 34 CURVE",
"6.5 23 LINE SMOOTH",
"-3.167 21 OFFCURVE",
"-8 12.667 OFFCURVE",
"-8 -2 CURVE SMOOTH",
"-8 -18 OFFCURVE",
"-3.333 -26 OFFCURVE",
"6 -26 CURVE",
"55 -16 LINE SMOOTH",
"83 -10 OFFCURVE",
"99 -7 OFFCURVE",
"103 -7 CURVE SMOOTH",
"148 -8 LINE SMOOTH",
"150.667 -8 OFFCURVE",
"154 -8.333 OFFCURVE",
"158 -9 CURVE SMOOTH",
"169 -9 LINE SMOOTH",
"181 -9 OFFCURVE",
"187 0.667 OFFCURVE",
"187 20 CURVE SMOOTH",
"187 33.333 OFFCURVE",
"182.667 40 OFFCURVE",
"174 40 CURVE SMOOTH",
"171.333 40 OFFCURVE",
"167.5 40.5 OFFCURVE",
"162.5 41.5 CURVE SMOOTH",
"157.5 42.5 OFFCURVE",
"153.333 43 OFFCURVE",
"150 43 CURVE SMOOTH",
"119 40 LINE",
"121.667 46 OFFCURVE",
"124 53.667 OFFCURVE",
"126 63 CURVE SMOOTH",
"139.333 106.333 OFFCURVE",
"148.333 155.333 OFFCURVE",
"153 210 CURVE SMOOTH",
"159 278 OFFCURVE",
"166.667 349 OFFCURVE",
"176 423 CURVE SMOOTH",
"180.667 461.667 OFFCURVE",
"184 503.333 OFFCURVE",
"186 548 CURVE SMOOTH",
"186 548.667 OFFCURVE",
"186.333 549.833 OFFCURVE",
"187 551.5 CURVE SMOOTH",
"188 555 LINE",
"190.667 555 OFFCURVE",
"194.667 555.333 OFFCURVE",
"200 556 CURVE SMOOTH",
"213 556 LINE SMOOTH",
"217 556 OFFCURVE",
"222.833 554.833 OFFCURVE",
"230.5 552.5 CURVE SMOOTH",
"238.167 550.167 OFFCURVE",
"244.667 549 OFFCURVE",
"250 549 CURVE SMOOTH",
"260 549 OFFCURVE",
"265 558.333 OFFCURVE",
"265 577 CURVE SMOOTH",
"265 592.333 OFFCURVE",
"260.667 600 OFFCURVE",
"252 600 CURVE SMOOTH"
);
}
);
userData = {
assembly = "NPUSHB[ ]	/* 34 values pushed */\0121 83 83 64 84 2 64 61 37 33 31 24 22 9 7 4 66 59 57 43 29 22 2 79 77 75 73 4 71 41 1 1 43 70 \012SROUND[ ]	/* SuperRound */\012MDAP[1]	/* MoveDirectAbsPt */\012SHZ[1]	/* ShiftZoneByLastPoint */\012RTG[ ]	/* RoundToGrid */\012SVTCA[0]	/* SetFreedomAndProjectionVectorToAxis */\012MIAP[1]	/* MoveIndirectAbsPt */\012MDAP[1]	/* MoveDirectAbsPt */\012SLOOP[ ]	/* SetLoopVariable */\012ALIGNRP[ ]	/* AlignRelativePt */\012SVTCA[1]	/* SetFreedomAndProjectionVectorToAxis */\012MDAP[0]	/* MoveDirectAbsPt */\012MDAP[0]	/* MoveDirectAbsPt */\012MDAP[0]	/* MoveDirectAbsPt */\012MDAP[0]	/* MoveDirectAbsPt */\012MDAP[0]	/* MoveDirectAbsPt */\012MDAP[0]	/* MoveDirectAbsPt */\012MDAP[0]	/* MoveDirectAbsPt */\012SVTCA[0]	/* SetFreedomAndProjectionVectorToAxis */\012MDAP[0]	/* MoveDirectAbsPt */\012MDAP[0]	/* MoveDirectAbsPt */\012MDAP[0]	/* MoveDirectAbsPt */\012MDAP[0]	/* MoveDirectAbsPt */\012MDAP[0]	/* MoveDirectAbsPt */\012MDAP[0]	/* MoveDirectAbsPt */\012MDAP[0]	/* MoveDirectAbsPt */\012MDAP[0]	/* MoveDirectAbsPt */\012MDAP[0]	/* MoveDirectAbsPt */\012MDAP[0]	/* MoveDirectAbsPt */\012IUP[1]	/* InterpolateUntPts */\012IUP[0]	/* InterpolateUntPts */\012SVTCA[1]	/* SetFreedomAndProjectionVectorToAxis */\012MD[0]	/* MeasureDistance */\012ROUND[00]	/* Round */\012PUSHW[ ]	/* 2 values pushed */\01243 83 \012MD[0]	/* MeasureDistance */\012ROUND[00]	/* Round */\012SUB[ ]	/* Subtract */\012PUSHB[ ]	/* 1 value pushed */\01264 \012GT[ ]	/* GreaterThan */\012IF[ ]	/* If */\012SHPIX[ ]	/* ShiftZoneByPixel */\012SRP1[ ]	/* SetRefPoint1 */\012SHZ[1]	/* ShiftZoneByLastPoint */\012PUSHW[ ]	/* 2 values pushed */\01283 -64 \012SHPIX[ ]	/* ShiftZoneByPixel */\012EIF[ ]	/* EndIf */";
};
width = 225;
}
);
note = I;
unicode = 0049;
},
{
glyphname = J;
lastChange = "2021-11-29 06:54:51 +0000";
layers = (
{
layerId = "2018A826-CC5C-461A-95E5-9D849642E9B7";
paths = (
{
closed = 1;
nodes = (
"439 583 OFFCURVE",
"435.5 590 OFFCURVE",
"428.5 594 CURVE SMOOTH",
"406 607 LINE SMOOTH",
"396 613 OFFCURVE",
"385.667 616 OFFCURVE",
"375 616 CURVE SMOOTH",
"367.667 616 OFFCURVE",
"358.5 613.5 OFFCURVE",
"347.5 608.5 CURVE SMOOTH",
"336.5 603.5 OFFCURVE",
"328.667 601 OFFCURVE",
"324 601 CURVE SMOOTH",
"300 601 OFFCURVE",
"285.333 600.333 OFFCURVE",
"280 599 CURVE SMOOTH",
"263.333 594.333 OFFCURVE",
"247.333 587 OFFCURVE",
"232 577 CURVE",
"190 544 LINE",
"190 545 LINE",
"180.667 536.333 OFFCURVE",
"176 526 OFFCURVE",
"176 514 CURVE SMOOTH",
"176 498 OFFCURVE",
"185.333 487 OFFCURVE",
"196 495 CURVE",
"208 508 LINE",
"225.333 522.667 OFFCURVE",
"236 531 OFFCURVE",
"240 533 CURVE SMOOTH",
"260 540.333 OFFCURVE",
"273 544.667 OFFCURVE",
"279 546 CURVE SMOOTH",
"297 552 OFFCURVE",
"312.333 555 OFFCURVE",
"325 555 CURVE",
"325 554 LINE",
"331 558 LINE",
"339 558.667 OFFCURVE",
"346.833 560.5 OFFCURVE",
"354.5 563.5 CURVE SMOOTH",
"362.167 566.5 OFFCURVE",
"368.333 568 OFFCURVE",
"373 568 CURVE SMOOTH",
"379.667 568 OFFCURVE",
"386.667 565.333 OFFCURVE",
"394 560 CURVE SMOOTH",
"405.333 552 OFFCURVE",
"413.667 547 OFFCURVE",
"419 545 CURVE SMOOTH",
"429.667 541 OFFCURVE",
"439 557 OFFCURVE",
"439 573 CURVE SMOOTH"
);
},
{
closed = 1;
nodes = (
"322.333 536 OFFCURVE",
"317 545 OFFCURVE",
"305 545 CURVE SMOOTH",
"294.333 545 OFFCURVE",
"288.333 536.333 OFFCURVE",
"287 519 CURVE SMOOTH",
"283.667 479.667 OFFCURVE",
"281.333 455.333 OFFCURVE",
"280 446 CURVE SMOOTH",
"272.667 378 OFFCURVE",
"264.333 318.333 OFFCURVE",
"255 267 CURVE SMOOTH",
"240.333 185 OFFCURVE",
"229 131.667 OFFCURVE",
"221 107 CURVE SMOOTH",
"201 41 LINE SMOOTH",
"193.667 21.667 OFFCURVE",
"185 6.333 OFFCURVE",
"175 -5 CURVE SMOOTH",
"157.667 -24.333 OFFCURVE",
"142.667 -34.667 OFFCURVE",
"130 -36 CURVE SMOOTH",
"116.667 -37.333 OFFCURVE",
"101.333 -29.333 OFFCURVE",
"84 -12 CURVE SMOOTH",
"61.333 10.667 OFFCURVE",
"54.333 42.333 OFFCURVE",
"45 73 CURVE SMOOTH",
"43 82.333 OFFCURVE",
"39 87 OFFCURVE",
"33 87 CURVE SMOOTH",
"22.333 87 OFFCURVE",
"11.333 70.667 OFFCURVE",
"14 52 CURVE SMOOTH",
"16 37.333 OFFCURVE",
"19.667 22.333 OFFCURVE",
"25 7 CURVE SMOOTH",
"33 -16.333 OFFCURVE",
"44.667 -35.667 OFFCURVE",
"60 -51 CURVE SMOOTH",
"63 -54 LINE SMOOTH",
"87 -78 OFFCURVE",
"110.333 -88.333 OFFCURVE",
"133 -85 CURVE SMOOTH",
"131 -85 LINE",
"153 -81 OFFCURVE",
"174.333 -67.333 OFFCURVE",
"195 -44 CURVE SMOOTH",
"208.333 -28.667 OFFCURVE",
"219.333 -8 OFFCURVE",
"228 18 CURVE SMOOTH",
"234.667 42 OFFCURVE",
"241.667 66 OFFCURVE",
"249 90 CURVE SMOOTH",
"259 118 OFFCURVE",
"267 146.333 OFFCURVE",
"273 175 CURVE SMOOTH",
"288 259 LINE SMOOTH",
"298.667 316.333 OFFCURVE",
"307.333 377.667 OFFCURVE",
"314 443 CURVE SMOOTH",
"321 518 LINE SMOOTH"
);
}
);
userData = {
assembly = "NPUSHB[ ]	/* 35 values pushed */\0121 90 90 64 91 1 86 72 65 62 61 26 25 20 13 12 8 4 62 61 54 53 39 26 25 23 13 12 1 35 54 53 1 61 70 \012SROUND[ ]	/* SuperRound */\012MDAP[1]	/* MoveDirectAbsPt */\012SHZ[1]	/* ShiftZoneByLastPoint */\012RTG[ ]	/* RoundToGrid */\012SVTCA[0]	/* SetFreedomAndProjectionVectorToAxis */\012MDAP[1]	/* MoveDirectAbsPt */\012ALIGNRP[ ]	/* AlignRelativePt */\012MDAP[1]	/* MoveDirectAbsPt */\012SVTCA[1]	/* SetFreedomAndProjectionVectorToAxis */\012MDAP[0]	/* MoveDirectAbsPt */\012MDAP[0]	/* MoveDirectAbsPt */\012MDAP[0]	/* MoveDirectAbsPt */\012MDAP[0]	/* MoveDirectAbsPt */\012MDAP[0]	/* MoveDirectAbsPt */\012MDAP[0]	/* MoveDirectAbsPt */\012MDAP[0]	/* MoveDirectAbsPt */\012MDAP[0]	/* MoveDirectAbsPt */\012MDAP[0]	/* MoveDirectAbsPt */\012MDAP[0]	/* MoveDirectAbsPt */\012MDAP[0]	/* MoveDirectAbsPt */\012SVTCA[0]	/* SetFreedomAndProjectionVectorToAxis */\012MDAP[0]	/* MoveDirectAbsPt */\012MDAP[0]	/* MoveDirectAbsPt */\012MDAP[0]	/* MoveDirectAbsPt */\012MDAP[0]	/* MoveDirectAbsPt */\012MDAP[0]	/* MoveDirectAbsPt */\012MDAP[0]	/* MoveDirectAbsPt */\012MDAP[0]	/* MoveDirectAbsPt */\012MDAP[0]	/* MoveDirectAbsPt */\012MDAP[0]	/* MoveDirectAbsPt */\012MDAP[0]	/* MoveDirectAbsPt */\012MDAP[0]	/* MoveDirectAbsPt */\012MDAP[0]	/* MoveDirectAbsPt */\012IUP[1]	/* InterpolateUntPts */\012IUP[0]	/* InterpolateUntPts */\012SVTCA[1]	/* SetFreedomAndProjectionVectorToAxis */\012MD[0]	/* MeasureDistance */\012ROUND[00]	/* Round */\012PUSHW[ ]	/* 2 values pushed */\01261 90 \012MD[0]	/* MeasureDistance */\012ROUND[00]	/* Round */\012SUB[ ]	/* Subtract */\012PUSHB[ ]	/* 1 value pushed */\01264 \012GT[ ]	/* GreaterThan */\012IF[ ]	/* If */\012SHPIX[ ]	/* ShiftZoneByPixel */\012SRP1[ ]	/* SetRefPoint1 */\012SHZ[1]	/* ShiftZoneByLastPoint */\012PUSHW[ ]	/* 2 values pushed */\01290 -64 \012SHPIX[ ]	/* ShiftZoneByPixel */\012EIF[ ]	/* EndIf */";
};
width = 379;
}
);
note = J;
unicode = 004A;
},
{
glyphname = K;
lastChange = "2021-11-29 06:54:51 +0000";
layers = (
{
layerId = "2018A826-CC5C-461A-95E5-9D849642E9B7";
paths = (
{
closed = 1;
nodes = (
"430.333 538.667 OFFCURVE",
"438 559 OFFCURVE",
"438 567 CURVE SMOOTH",
"438 581.667 OFFCURVE",
"433 589 OFFCURVE",
"423 589 CURVE SMOOTH",
"416.333 589 OFFCURVE",
"411 584 OFFCURVE",
"407 574 CURVE SMOOTH",
"399 556 OFFCURVE",
"393.333 542.667 OFFCURVE",
"390 534 CURVE",
"374.667 513.333 OFFCURVE",
"363 498.667 OFFCURVE",
"355 490 CURVE SMOOTH",
"329 462.667 OFFCURVE",
"309.667 444 OFFCURVE",
"297 434 CURVE",
"257 394 OFFCURVE",
"223 359 OFFCURVE",
"195 329 CURVE SMOOTH",
"179 309 OFFCURVE",
"163 290 OFFCURVE",
"147 272 CURVE",
"146 265 LINE SMOOTH",
"146 260.333 OFFCURVE",
"149 256.333 OFFCURVE",
"155 253 CURVE SMOOTH",
"161 249.667 OFFCURVE",
"164.333 246.667 OFFCURVE",
"165 244 CURVE",
"202.333 157.333 OFFCURVE",
"222.333 111.667 OFFCURVE",
"225 107 CURVE SMOOTH",
"243 81 OFFCURVE",
"255.667 61.667 OFFCURVE",
"263 49 CURVE",
"323 -33 LINE",
"325.667 -35.667 OFFCURVE",
"328.667 -37 OFFCURVE",
"332 -37 CURVE SMOOTH",
"343.333 -37 OFFCURVE",
"349 -28.333 OFFCURVE",
"349 -11 CURVE SMOOTH",
"349 -4.333 OFFCURVE",
"347.333 1 OFFCURVE",
"344 5 CURVE",
"345 5 LINE",
"320.333 34.333 OFFCURVE",
"300.667 60.667 OFFCURVE",
"286 84 CURVE SMOOTH",
"266.667 114 OFFCURVE",
"255 134 OFFCURVE",
"251 144 CURVE SMOOTH",
"242.333 166 OFFCURVE",
"234.333 186 OFFCURVE",
"227 204 CURVE",
"202 245 LINE SMOOTH",
"194 257.667 OFFCURVE",
"191 264.667 OFFCURVE",
"193 266 CURVE",
"199.667 278 OFFCURVE",
"204 284.667 OFFCURVE",
"206 286 CURVE",
"224.667 308 OFFCURVE",
"260.667 343.667 OFFCURVE",
"314 393 CURVE SMOOTH",
"344 421 OFFCURVE",
"363 440 OFFCURVE",
"371 450 CURVE",
"393.667 472.667 OFFCURVE",
"408.333 491.333 OFFCURVE",
"415 506 CURVE SMOOTH"
);
},
{
closed = 1;
nodes = (
"161 578.667 OFFCURVE",
"156 588 OFFCURVE",
"144 588 CURVE SMOOTH",
"132.667 588 OFFCURVE",
"126.333 579.333 OFFCURVE",
"125 562 CURVE SMOOTH",
"119 500 LINE SMOOTH",
"114.333 453.333 OFFCURVE",
"110 413.667 OFFCURVE",
"106 381 CURVE SMOOTH",
"100 312.333 OFFCURVE",
"96.333 263.333 OFFCURVE",
"95 234 CURVE",
"87 185.333 OFFCURVE",
"80.333 151 OFFCURVE",
"75 131 CURVE SMOOTH",
"68.333 99 OFFCURVE",
"63 67 OFFCURVE",
"51 47 CURVE",
"41 35 OFFCURVE",
"33 26.167 OFFCURVE",
"27 20.5 CURVE SMOOTH",
"21 14.833 OFFCURVE",
"18 7.667 OFFCURVE",
"18 -1 CURVE SMOOTH",
"18 -17 OFFCURVE",
"23 -25 OFFCURVE",
"33 -25 CURVE SMOOTH",
"35.667 -25 OFFCURVE",
"38.333 -23.667 OFFCURVE",
"41 -21 CURVE SMOOTH",
"58 -4.5 LINE SMOOTH",
"64 1.167 OFFCURVE",
"70 8.667 OFFCURVE",
"76 18 CURVE SMOOTH",
"84.667 32 OFFCURVE",
"91.667 49 OFFCURVE",
"97 69 CURVE SMOOTH",
"109 119 LINE SMOOTH",
"118.333 170.333 OFFCURVE",
"124 208.333 OFFCURVE",
"126 233 CURVE SMOOTH",
"132 301 OFFCURVE",
"136 349.667 OFFCURVE",
"138 379 CURVE SMOOTH",
"144.667 433.667 OFFCURVE",
"149.667 473.333 OFFCURVE",
"153 498 CURVE SMOOTH",
"160 561 LINE",
"159 560 LINE"
);
}
);
userData = {
assembly = "NPUSHB[ ]	/* 27 values pushed */\0121 89 89 64 90 49 88 51 19 18 70 51 49 33 21 19 18 8 86 47 68 1 23 1 1 70 70 \012SROUND[ ]	/* SuperRound */\012MDAP[1]	/* MoveDirectAbsPt */\012SHZ[1]	/* ShiftZoneByLastPoint */\012RTG[ ]	/* RoundToGrid */\012SVTCA[0]	/* SetFreedomAndProjectionVectorToAxis */\012MIAP[1]	/* MoveIndirectAbsPt */\012MIAP[1]	/* MoveIndirectAbsPt */\012MDAP[1]	/* MoveDirectAbsPt */\012ALIGNRP[ ]	/* AlignRelativePt */\012SVTCA[1]	/* SetFreedomAndProjectionVectorToAxis */\012MDAP[0]	/* MoveDirectAbsPt */\012MDAP[0]	/* MoveDirectAbsPt */\012MDAP[0]	/* MoveDirectAbsPt */\012MDAP[0]	/* MoveDirectAbsPt */\012MDAP[0]	/* MoveDirectAbsPt */\012MDAP[0]	/* MoveDirectAbsPt */\012MDAP[0]	/* MoveDirectAbsPt */\012MDAP[0]	/* MoveDirectAbsPt */\012SVTCA[0]	/* SetFreedomAndProjectionVectorToAxis */\012MDAP[0]	/* MoveDirectAbsPt */\012MDAP[0]	/* MoveDirectAbsPt */\012MDAP[0]	/* MoveDirectAbsPt */\012MDAP[0]	/* MoveDirectAbsPt */\012IUP[1]	/* InterpolateUntPts */\012IUP[0]	/* InterpolateUntPts */\012SVTCA[1]	/* SetFreedomAndProjectionVectorToAxis */\012MD[0]	/* MeasureDistance */\012ROUND[00]	/* Round */\012PUSHW[ ]	/* 2 values pushed */\01270 89 \012MD[0]	/* MeasureDistance */\012ROUND[00]	/* Round */\012SUB[ ]	/* Subtract */\012PUSHB[ ]	/* 1 value pushed */\01264 \012GT[ ]	/* GreaterThan */\012IF[ ]	/* If */\012SHPIX[ ]	/* ShiftZoneByPixel */\012SRP1[ ]	/* SetRefPoint1 */\012SHZ[1]	/* ShiftZoneByLastPoint */\012PUSHW[ ]	/* 2 values pushed */\01289 -64 \012SHPIX[ ]	/* ShiftZoneByPixel */\012EIF[ ]	/* EndIf */";
};
width = 351;
}
);
note = K;
unicode = 004B;
},
{
glyphname = L;
lastChange = "2021-11-29 06:54:51 +0000";
layers = (
{
layerId = "2018A826-CC5C-461A-95E5-9D849642E9B7";
paths = (
{
closed = 1;
nodes = (
"409 16 OFFCURVE",
"414 30 OFFCURVE",
"414 50 CURVE SMOOTH",
"414 61.333 OFFCURVE",
"410.667 67 OFFCURVE",
"404 67 CURVE SMOOTH",
"400 67 OFFCURVE",
"395 64.667 OFFCURVE",
"389 60 CURVE SMOOTH",
"374.333 48.667 OFFCURVE",
"343.667 40 OFFCURVE",
"297 34 CURVE SMOOTH",
"291 33.333 OFFCURVE",
"281.167 30.667 OFFCURVE",
"267.5 26 CURVE SMOOTH",
"253.833 21.333 OFFCURVE",
"243 19.333 OFFCURVE",
"235 20 CURVE SMOOTH",
"229 20 OFFCURVE",
"217.667 21 OFFCURVE",
"201 23 CURVE SMOOTH",
"167 24 LINE",
"141 20 OFFCURVE",
"123.333 16 OFFCURVE",
"114 12 CURVE",
"107.333 25.333 OFFCURVE",
"104 31 OFFCURVE",
"104 29 CURVE",
"100.667 40.333 OFFCURVE",
"102.333 72.333 OFFCURVE",
"109 125 CURVE SMOOTH",
"121.667 197 OFFCURVE",
"132 249 OFFCURVE",
"140 281 CURVE SMOOTH",
"144 300.333 OFFCURVE",
"151.667 327.667 OFFCURVE",
"163 363 CURVE SMOOTH",
"173.667 396.333 OFFCURVE",
"181.333 425.333 OFFCURVE",
"186 450 CURVE SMOOTH",
"197.333 516 OFFCURVE",
"205 563.667 OFFCURVE",
"209 593 CURVE SMOOTH",
"209 594 LINE SMOOTH",
"211 610.667 OFFCURVE",
"206 619 OFFCURVE",
"194 619 CURVE SMOOTH",
"182 619 OFFCURVE",
"174.667 610.667 OFFCURVE",
"172 594 CURVE SMOOTH",
"162 532 OFFCURVE",
"155.333 488 OFFCURVE",
"152 462 CURVE",
"133.333 383.333 OFFCURVE",
"119.333 326.333 OFFCURVE",
"110 291 CURVE SMOOTH",
"90 212 LINE SMOOTH",
"82.667 182.667 OFFCURVE",
"77.667 154.333 OFFCURVE",
"75 127 CURVE SMOOTH",
"67 47 LINE",
"67 33 OFFCURVE",
"68.333 19.667 OFFCURVE",
"71 7 CURVE SMOOTH",
"71 8 LINE",
"76.333 -6 OFFCURVE",
"80.333 -15 OFFCURVE",
"83 -19 CURVE",
"81.667 -27 OFFCURVE",
"86 -31 OFFCURVE",
"96 -31 CURVE",
"126.667 -26.333 OFFCURVE",
"149.667 -24.333 OFFCURVE",
"165 -25 CURVE SMOOTH",
"172.333 -25 OFFCURVE",
"183.333 -26 OFFCURVE",
"198 -28 CURVE SMOOTH",
"210.667 -29.333 OFFCURVE",
"221.667 -30 OFFCURVE",
"231 -30 CURVE SMOOTH",
"248.333 -30 OFFCURVE",
"271.333 -26.333 OFFCURVE",
"300 -19 CURVE SMOOTH",
"365 -5 LINE SMOOTH",
"381 -1.667 OFFCURVE",
"392.333 2.667 OFFCURVE",
"399 8 CURVE SMOOTH"
);
}
);
userData = {
assembly = "NPUSHB[ ]	/* 28 values pushed */\0121 63 63 64 64 61 59 52 48 46 17 16 61 44 34 33 19 17 16 31 10 1 12 6 1 1 19 70 \012SROUND[ ]	/* SuperRound */\012MDAP[1]	/* MoveDirectAbsPt */\012SHZ[1]	/* ShiftZoneByLastPoint */\012RTG[ ]	/* RoundToGrid */\012SVTCA[0]	/* SetFreedomAndProjectionVectorToAxis */\012MIAP[1]	/* MoveIndirectAbsPt */\012ALIGNRP[ ]	/* AlignRelativePt */\012MIAP[1]	/* MoveIndirectAbsPt */\012MDAP[1]	/* MoveDirectAbsPt */\012SVTCA[1]	/* SetFreedomAndProjectionVectorToAxis */\012MDAP[0]	/* MoveDirectAbsPt */\012MDAP[0]	/* MoveDirectAbsPt */\012MDAP[0]	/* MoveDirectAbsPt */\012MDAP[0]	/* MoveDirectAbsPt */\012MDAP[0]	/* MoveDirectAbsPt */\012MDAP[0]	/* MoveDirectAbsPt */\012MDAP[0]	/* MoveDirectAbsPt */\012SVTCA[0]	/* SetFreedomAndProjectionVectorToAxis */\012MDAP[0]	/* MoveDirectAbsPt */\012MDAP[0]	/* MoveDirectAbsPt */\012MDAP[0]	/* MoveDirectAbsPt */\012MDAP[0]	/* MoveDirectAbsPt */\012MDAP[0]	/* MoveDirectAbsPt */\012MDAP[0]	/* MoveDirectAbsPt */\012IUP[1]	/* InterpolateUntPts */\012IUP[0]	/* InterpolateUntPts */\012SVTCA[1]	/* SetFreedomAndProjectionVectorToAxis */\012MD[0]	/* MeasureDistance */\012ROUND[00]	/* Round */\012PUSHW[ ]	/* 2 values pushed */\01219 63 \012MD[0]	/* MeasureDistance */\012ROUND[00]	/* Round */\012SUB[ ]	/* Subtract */\012PUSHB[ ]	/* 1 value pushed */\01264 \012GT[ ]	/* GreaterThan */\012IF[ ]	/* If */\012SHPIX[ ]	/* ShiftZoneByPixel */\012SRP1[ ]	/* SetRefPoint1 */\012SHZ[1]	/* ShiftZoneByLastPoint */\012PUSHW[ ]	/* 2 values pushed */\01263 -64 \012SHPIX[ ]	/* ShiftZoneByPixel */\012EIF[ ]	/* EndIf */";
};
width = 431;
}
);
note = L;
unicode = 004C;
},
{
glyphname = M;
lastChange = "2021-11-29 06:54:51 +0000";
layers = (
{
layerId = "2018A826-CC5C-461A-95E5-9D849642E9B7";
paths = (
{
closed = 1;
nodes = (
"542 565.667 OFFCURVE",
"533 578 OFFCURVE",
"525 578 CURVE SMOOTH",
"519.667 578 OFFCURVE",
"513.667 575.333 OFFCURVE",
"507 570 CURVE",
"510 569 LINE",
"504 563 OFFCURVE",
"498.667 552.667 OFFCURVE",
"494 538 CURVE SMOOTH",
"489.333 526 OFFCURVE",
"486.333 520 OFFCURVE",
"485 520 CURVE",
"484 519 LINE",
"459.333 468.333 OFFCURVE",
"443 436.667 OFFCURVE",
"435 424 CURVE SMOOTH",
"406.333 385.333 OFFCURVE",
"385 357.667 OFFCURVE",
"371 341 CURVE SMOOTH",
"355 321 OFFCURVE",
"331 293 OFFCURVE",
"299 257 CURVE",
"284 276 LINE SMOOTH",
"262.667 299.333 OFFCURVE",
"247.333 327.333 OFFCURVE",
"238 360 CURVE SMOOTH",
"233.333 376.667 OFFCURVE",
"227.667 408.333 OFFCURVE",
"221 455 CURVE SMOOTH",
"219.667 465 OFFCURVE",
"217.667 485.333 OFFCURVE",
"215 516 CURVE SMOOTH",
"213 541.333 OFFCURVE",
"210 563.667 OFFCURVE",
"206 583 CURVE SMOOTH",
"200.667 609.667 OFFCURVE",
"195.333 631.667 OFFCURVE",
"190 649 CURVE SMOOTH",
"187.333 657.667 OFFCURVE",
"183.333 662 OFFCURVE",
"178 662 CURVE SMOOTH",
"167.333 662 OFFCURVE",
"162 654 OFFCURVE",
"162 638 CURVE SMOOTH",
"162 634 OFFCURVE",
"162.333 630.333 OFFCURVE",
"163 627 CURVE SMOOTH",
"165 609.667 OFFCURVE",
"169.333 589 OFFCURVE",
"176 565 CURVE",
"181 527 LINE",
"170.333 533 OFFCURVE",
"163 526 OFFCURVE",
"159 506 CURVE SMOOTH",
"147 456 OFFCURVE",
"137.667 419.667 OFFCURVE",
"131 397 CURVE",
"115 302 LINE SMOOTH",
"105.667 233.333 OFFCURVE",
"99.333 184 OFFCURVE",
"96 154 CURVE",
"88.667 118.667 OFFCURVE",
"83 92.667 OFFCURVE",
"79 76 CURVE SMOOTH",
"64 -9 LINE SMOOTH",
"60.667 -31 OFFCURVE",
"65.667 -42 OFFCURVE",
"79 -42 CURVE SMOOTH",
"87.667 -42 OFFCURVE",
"93 -34.333 OFFCURVE",
"95 -19 CURVE",
"96 -19 LINE",
"102.667 20.333 OFFCURVE",
"107.667 48.333 OFFCURVE",
"111 65 CURVE SMOOTH",
"118.333 102.333 OFFCURVE",
"124 129.333 OFFCURVE",
"128 146 CURVE",
"137.333 216.667 OFFCURVE",
"143.333 267.333 OFFCURVE",
"146 298 CURVE",
"148 298 LINE",
"150 309.333 OFFCURVE",
"153 324 OFFCURVE",
"157 342 CURVE SMOOTH",
"161 360 OFFCURVE",
"164 375.333 OFFCURVE",
"166 388 CURVE SMOOTH",
"174.667 428 OFFCURVE",
"181.333 457 OFFCURVE",
"186 475 CURVE",
"186 468.333 OFFCURVE",
"192.667 419 OFFCURVE",
"198 379 CURVE SMOOTH",
"200.667 357 OFFCURVE",
"205 338 OFFCURVE",
"211 322 CURVE SMOOTH",
"223 291.333 OFFCURVE",
"239.333 263 OFFCURVE",
"260 237 CURVE SMOOTH",
"264 232 LINE",
"277 219 LINE SMOOTH",
"284.333 212.333 OFFCURVE",
"291.667 209 OFFCURVE",
"299 209 CURVE SMOOTH",
"307 209 OFFCURVE",
"321.667 221.667 OFFCURVE",
"343 247 CURVE SMOOTH",
"389 304 LINE SMOOTH",
"417.667 336.667 OFFCURVE",
"440 366.333 OFFCURVE",
"456 393 CURVE SMOOTH",
"475.333 425 OFFCURVE",
"493.333 457.667 OFFCURVE",
"510 491 CURVE",
"511 491 LINE",
"515.667 509.667 OFFCURVE",
"518.667 519 OFFCURVE",
"520 519 CURVE",
"521.333 518.333 OFFCURVE",
"522.667 516.667 OFFCURVE",
"524 514 CURVE",
"516 431 LINE SMOOTH",
"512 373.667 OFFCURVE",
"509.667 333 OFFCURVE",
"509 309 CURVE",
"500.333 237 OFFCURVE",
"495.667 187.333 OFFCURVE",
"495 160 CURVE SMOOTH",
"494.333 137.333 OFFCURVE",
"495.333 100.667 OFFCURVE",
"498 50 CURVE SMOOTH",
"500.667 27.333 OFFCURVE",
"503.333 11 OFFCURVE",
"506 1 CURVE SMOOTH",
"506.667 -3 OFFCURVE",
"510 -5 OFFCURVE",
"516 -5 CURVE SMOOTH",
"533.333 -5 OFFCURVE",
"540.333 4.333 OFFCURVE",
"537 23 CURVE SMOOTH",
"530 65 LINE SMOOTH",
"527.333 81 OFFCURVE",
"527.333 114.333 OFFCURVE",
"530 165 CURVE SMOOTH",
"534 246.333 OFFCURVE",
"537.667 293 OFFCURVE",
"541 305 CURVE",
"546.333 371.667 OFFCURVE",
"549 414.333 OFFCURVE",
"549 433 CURVE SMOOTH",
"549 434 LINE SMOOTH",
"549 439.333 OFFCURVE",
"550.667 450 OFFCURVE",
"554 466 CURVE SMOOTH",
"557.333 482 OFFCURVE",
"559 495 OFFCURVE",
"559 505 CURVE SMOOTH",
"559 517.667 OFFCURVE",
"556.667 529.667 OFFCURVE",
"552 541 CURVE SMOOTH"
);
}
);
userData = {
assembly = "NPUSHB[ ]	/* 41 values pushed */\0121 121 121 64 122 2 119 105 71 70 59 58 53 41 33 32 30 16 117 116 89 83 71 70 28 22 14 12 10 6 5 2 91 68 1 66 65 1 1 70 70 \012SROUND[ ]	/* SuperRound */\012MDAP[1]	/* MoveDirectAbsPt */\012SHZ[1]	/* ShiftZoneByLastPoint */\012RTG[ ]	/* RoundToGrid */\012SVTCA[0]	/* SetFreedomAndProjectionVectorToAxis */\012MIAP[1]	/* MoveIndirectAbsPt */\012ALIGNRP[ ]	/* AlignRelativePt */\012MIAP[1]	/* MoveIndirectAbsPt */\012MDAP[1]	/* MoveDirectAbsPt */\012SVTCA[1]	/* SetFreedomAndProjectionVectorToAxis */\012MDAP[0]	/* MoveDirectAbsPt */\012MDAP[0]	/* MoveDirectAbsPt */\012MDAP[0]	/* MoveDirectAbsPt */\012MDAP[0]	/* MoveDirectAbsPt */\012MDAP[0]	/* MoveDirectAbsPt */\012MDAP[0]	/* MoveDirectAbsPt */\012MDAP[0]	/* MoveDirectAbsPt */\012MDAP[0]	/* MoveDirectAbsPt */\012MDAP[0]	/* MoveDirectAbsPt */\012MDAP[0]	/* MoveDirectAbsPt */\012MDAP[0]	/* MoveDirectAbsPt */\012MDAP[0]	/* MoveDirectAbsPt */\012MDAP[0]	/* MoveDirectAbsPt */\012MDAP[0]	/* MoveDirectAbsPt */\012SVTCA[0]	/* SetFreedomAndProjectionVectorToAxis */\012MDAP[0]	/* MoveDirectAbsPt */\012MDAP[0]	/* MoveDirectAbsPt */\012MDAP[0]	/* MoveDirectAbsPt */\012MDAP[0]	/* MoveDirectAbsPt */\012MDAP[0]	/* MoveDirectAbsPt */\012MDAP[0]	/* MoveDirectAbsPt */\012MDAP[0]	/* MoveDirectAbsPt */\012MDAP[0]	/* MoveDirectAbsPt */\012MDAP[0]	/* MoveDirectAbsPt */\012MDAP[0]	/* MoveDirectAbsPt */\012MDAP[0]	/* MoveDirectAbsPt */\012MDAP[0]	/* MoveDirectAbsPt */\012IUP[1]	/* InterpolateUntPts */\012IUP[0]	/* InterpolateUntPts */\012SVTCA[1]	/* SetFreedomAndProjectionVectorToAxis */\012MD[0]	/* MeasureDistance */\012ROUND[00]	/* Round */\012PUSHW[ ]	/* 2 values pushed */\01270 121 \012MD[0]	/* MeasureDistance */\012ROUND[00]	/* Round */\012SUB[ ]	/* Subtract */\012PUSHB[ ]	/* 1 value pushed */\01264 \012GT[ ]	/* GreaterThan */\012IF[ ]	/* If */\012SHPIX[ ]	/* ShiftZoneByPixel */\012SRP1[ ]	/* SetRefPoint1 */\012SHZ[1]	/* ShiftZoneByLastPoint */\012PUSHW[ ]	/* 2 values pushed */\012121 -64 \012SHPIX[ ]	/* ShiftZoneByPixel */\012EIF[ ]	/* EndIf */";
};
width = 593;
}
);
note = M;
unicode = 004D;
},
{
glyphname = N;
lastChange = "2021-11-29 06:54:51 +0000";
layers = (
{
layerId = "2018A826-CC5C-461A-95E5-9D849642E9B7";
paths = (
{
closed = 1;
nodes = (
"446 599 OFFCURVE",
"441 608 OFFCURVE",
"429 608 CURVE SMOOTH",
"418 608 OFFCURVE",
"411 599 OFFCURVE",
"410 582 CURVE SMOOTH",
"409 566 OFFCURVE",
"403 525 OFFCURVE",
"403 525 CURVE",
"394 468 OFFCURVE",
"388 427 OFFCURVE",
"383 400 CURVE",
"372 296 LINE SMOOTH",
"365 228 OFFCURVE",
"354 179 OFFCURVE",
"348 149 CURVE",
"348 137 OFFCURVE",
"344 110 OFFCURVE",
"336 65 CURVE",
"329 85 OFFCURVE",
"324 98 OFFCURVE",
"321 105 CURVE SMOOTH",
"304 150 OFFCURVE",
"291 182 OFFCURVE",
"283 201 CURVE",
"268 260 OFFCURVE",
"260 294 OFFCURVE",
"248 332 CURVE SMOOTH",
"238 363 OFFCURVE",
"235 375 OFFCURVE",
"228 394 CURVE SMOOTH",
"191 501 LINE SMOOTH",
"173 552 OFFCURVE",
"163 578 OFFCURVE",
"162 580 CURVE SMOOTH",
"146 618 LINE SMOOTH",
"143 625 OFFCURVE",
"138 629 OFFCURVE",
"132 629 CURVE SMOOTH",
"121 629 OFFCURVE",
"115 621 OFFCURVE",
"113 606 CURVE SMOOTH",
"108 564 LINE SMOOTH",
"103 526 OFFCURVE",
"99 498 OFFCURVE",
"96 480 CURVE SMOOTH",
"89 434 OFFCURVE",
"84 401 OFFCURVE",
"82 380 CURVE SMOOTH",
"72 281 LINE SMOOTH",
"68 237 OFFCURVE",
"63 198 OFFCURVE",
"51 76 CURVE SMOOTH",
"48 45 OFFCURVE",
"44 22 OFFCURVE",
"41 7 CURVE SMOOTH",
"38 -13 OFFCURVE",
"43 -23 OFFCURVE",
"56 -23 CURVE SMOOTH",
"67 -23 OFFCURVE",
"73 -14 OFFCURVE",
"74 4 CURVE SMOOTH",
"79 35 OFFCURVE",
"83 59 OFFCURVE",
"86 75 CURVE",
"94 170 OFFCURVE",
"97 203 OFFCURVE",
"102 232 CURVE SMOOTH",
"104 247 OFFCURVE",
"116 378 OFFCURVE",
"116 379 CURVE SMOOTH",
"121 424 OFFCURVE",
"125 457 OFFCURVE",
"127 478 CURVE SMOOTH",
"129 495 OFFCURVE",
"132 516 OFFCURVE",
"137 539 CURVE",
"162 475 LINE SMOOTH",
"176 439 OFFCURVE",
"211 323 OFFCURVE",
"219 299 CURVE SMOOTH",
"223 287 OFFCURVE",
"229 275 OFFCURVE",
"236 244 CURVE SMOOTH",
"241 215 OFFCURVE",
"248 191 OFFCURVE",
"255 172 CURVE SMOOTH",
"272 128 OFFCURVE",
"284 97 OFFCURVE",
"292 80 CURVE",
"329 -24 LINE",
"330 -31 OFFCURVE",
"334 -35 OFFCURVE",
"340 -35 CURVE SMOOTH",
"351 -35 OFFCURVE",
"358 -27 OFFCURVE",
"359 -12 CURVE SMOOTH",
"362 16 OFFCURVE",
"364 37 OFFCURVE",
"366 50 CURVE SMOOTH",
"371 83 OFFCURVE",
"382 127 OFFCURVE",
"382 145 CURVE SMOOTH",
"382 157 OFFCURVE",
"400 264 OFFCURVE",
"404 295 CURVE SMOOTH",
"416 396 LINE SMOOTH",
"422 447 OFFCURVE",
"429 482 OFFCURVE",
"434 501 CURVE",
"433 501 OFFCURVE",
"435 511 OFFCURVE",
"438 531 CURVE SMOOTH",
"442 555 OFFCURVE",
"444 571 OFFCURVE",
"445 580 CURVE SMOOTH"
);
}
);
userData = {
assembly = "NPUSHB[ ]	/* 33 values pushed */\0121 98 98 64 99 0 96 83 39 38 32 11 10 86 85 56 55 51 43 42 39 38 11 10 0 68 49 1 17 1 1 51 70 \012SROUND[ ]	/* SuperRound */\012MDAP[1]	/* MoveDirectAbsPt */\012SHZ[1]	/* ShiftZoneByLastPoint */\012RTG[ ]	/* RoundToGrid */\012SVTCA[0]	/* SetFreedomAndProjectionVectorToAxis */\012MIAP[1]	/* MoveIndirectAbsPt */\012MIAP[1]	/* MoveIndirectAbsPt */\012MDAP[1]	/* MoveDirectAbsPt */\012SVTCA[1]	/* SetFreedomAndProjectionVectorToAxis */\012MDAP[0]	/* MoveDirectAbsPt */\012MDAP[0]	/* MoveDirectAbsPt */\012MDAP[0]	/* MoveDirectAbsPt */\012MDAP[0]	/* MoveDirectAbsPt */\012MDAP[0]	/* MoveDirectAbsPt */\012MDAP[0]	/* MoveDirectAbsPt */\012MDAP[0]	/* MoveDirectAbsPt */\012MDAP[0]	/* MoveDirectAbsPt */\012MDAP[0]	/* MoveDirectAbsPt */\012MDAP[0]	/* MoveDirectAbsPt */\012MDAP[0]	/* MoveDirectAbsPt */\012MDAP[0]	/* MoveDirectAbsPt */\012SVTCA[0]	/* SetFreedomAndProjectionVectorToAxis */\012MDAP[0]	/* MoveDirectAbsPt */\012MDAP[0]	/* MoveDirectAbsPt */\012MDAP[0]	/* MoveDirectAbsPt */\012MDAP[0]	/* MoveDirectAbsPt */\012MDAP[0]	/* MoveDirectAbsPt */\012MDAP[0]	/* MoveDirectAbsPt */\012MDAP[0]	/* MoveDirectAbsPt */\012IUP[1]	/* InterpolateUntPts */\012IUP[0]	/* InterpolateUntPts */\012SVTCA[1]	/* SetFreedomAndProjectionVectorToAxis */\012MD[0]	/* MeasureDistance */\012ROUND[00]	/* Round */\012PUSHW[ ]	/* 2 values pushed */\01251 98 \012MD[0]	/* MeasureDistance */\012ROUND[00]	/* Round */\012SUB[ ]	/* Subtract */\012PUSHB[ ]	/* 1 value pushed */\01264 \012GT[ ]	/* GreaterThan */\012IF[ ]	/* If */\012SHPIX[ ]	/* ShiftZoneByPixel */\012SRP1[ ]	/* SetRefPoint1 */\012SHZ[1]	/* ShiftZoneByLastPoint */\012PUSHW[ ]	/* 2 values pushed */\01298 -64 \012SHPIX[ ]	/* ShiftZoneByPixel */\012EIF[ ]	/* EndIf */";
};
width = 485;
}
);
note = N;
unicode = 004E;
},
{
glyphname = Eng;
lastChange = "2021-11-29 06:54:51 +0000";
layers = (
{
layerId = "2018A826-CC5C-461A-95E5-9D849642E9B7";
paths = (
{
closed = 1;
nodes = (
"440 599 OFFCURVE",
"435 608 OFFCURVE",
"423 608 CURVE SMOOTH",
"412 608 OFFCURVE",
"405 599 OFFCURVE",
"404 582 CURVE SMOOTH",
"403 566 OFFCURVE",
"397 525 OFFCURVE",
"397 525 CURVE",
"388 468 OFFCURVE",
"382 427 OFFCURVE",
"377 400 CURVE",
"366 296 LINE SMOOTH",
"364 280 OFFCURVE",
"337 103 OFFCURVE",
"330 65 CURVE",
"323 85 OFFCURVE",
"318 98 OFFCURVE",
"315 105 CURVE SMOOTH",
"298 150 OFFCURVE",
"285 182 OFFCURVE",
"277 201 CURVE",
"262 260 OFFCURVE",
"251 304 OFFCURVE",
"246 335 CURVE",
"237 356 OFFCURVE",
"229 375 OFFCURVE",
"222 394 CURVE SMOOTH",
"185 501 LINE SMOOTH",
"167 552 OFFCURVE",
"157 578 OFFCURVE",
"156 580 CURVE SMOOTH",
"140 618 LINE SMOOTH",
"137 625 OFFCURVE",
"132 629 OFFCURVE",
"126 629 CURVE SMOOTH",
"115 629 OFFCURVE",
"109 621 OFFCURVE",
"107 606 CURVE SMOOTH",
"102 564 LINE SMOOTH",
"97 526 OFFCURVE",
"93 498 OFFCURVE",
"90 480 CURVE SMOOTH",
"83 434 OFFCURVE",
"78 401 OFFCURVE",
"76 380 CURVE SMOOTH",
"66 281 LINE SMOOTH",
"62 238 OFFCURVE",
"55 202 OFFCURVE",
"55 175 CURVE SMOOTH",
"55 174 LINE",
"45 76 LINE SMOOTH",
"42 45 OFFCURVE",
"38 22 OFFCURVE",
"35 7 CURVE SMOOTH",
"32 -13 OFFCURVE",
"37 -23 OFFCURVE",
"50 -23 CURVE SMOOTH",
"61 -23 OFFCURVE",
"67 -14 OFFCURVE",
"68 4 CURVE SMOOTH",
"73 35 OFFCURVE",
"77 59 OFFCURVE",
"80 75 CURVE",
"89 173 LINE",
"89 174 LINE SMOOTH",
"89 183 OFFCURVE",
"91 201 OFFCURVE",
"96 229 CURVE SMOOTH",
"100 257 OFFCURVE",
"102 277 OFFCURVE",
"103 288 CURVE",
"100 288 LINE",
"105 329 OFFCURVE",
"109 360 OFFCURVE",
"110 379 CURVE SMOOTH",
"115 424 OFFCURVE",
"119 457 OFFCURVE",
"121 478 CURVE SMOOTH",
"123 495 OFFCURVE",
"126 516 OFFCURVE",
"131 539 CURVE",
"156 475 LINE SMOOTH",
"175 427 OFFCURVE",
"184 390 OFFCURVE",
"191 367 CURVE",
"213 309 LINE SMOOTH",
"218 297 OFFCURVE",
"223 275 OFFCURVE",
"230 244 CURVE SMOOTH",
"235 215 OFFCURVE",
"242 191 OFFCURVE",
"249 172 CURVE SMOOTH",
"266 128 OFFCURVE",
"278 97 OFFCURVE",
"286 80 CURVE",
"323 -24 LINE",
"324 -31 OFFCURVE",
"328 -35 OFFCURVE",
"334 -35 CURVE SMOOTH",
"345 -35 OFFCURVE",
"352 -27 OFFCURVE",
"353 -12 CURVE SMOOTH",
"356 16 OFFCURVE",
"358 37 OFFCURVE",
"360 50 CURVE SMOOTH",
"363 70 OFFCURVE",
"396 275 OFFCURVE",
"398 295 CURVE SMOOTH",
"410 396 LINE SMOOTH",
"416 447 OFFCURVE",
"423 482 OFFCURVE",
"428 501 CURVE",
"427 501 OFFCURVE",
"429 511 OFFCURVE",
"432 531 CURVE SMOOTH",
"436 555 OFFCURVE",
"438 571 OFFCURVE",
"439 580 CURVE SMOOTH"
);
},
{
closed = 1;
nodes = (
"322 1 OFFCURVE",
"319 -14 OFFCURVE",
"317 -28 CURVE SMOOTH",
"302 -110 OFFCURVE",
"291 -163 OFFCURVE",
"283 -188 CURVE SMOOTH",
"263 -254 LINE SMOOTH",
"257 -274 OFFCURVE",
"247 -288 OFFCURVE",
"237 -300 CURVE SMOOTH",
"219 -319 OFFCURVE",
"204 -329 OFFCURVE",
"192 -331 CURVE SMOOTH",
"178 -332 OFFCURVE",
"163 -324 OFFCURVE",
"146 -307 CURVE SMOOTH",
"123 -284 OFFCURVE",
"116 -252 OFFCURVE",
"107 -222 CURVE SMOOTH",
"105 -212 OFFCURVE",
"101 -208 OFFCURVE",
"95 -208 CURVE SMOOTH",
"84 -208 OFFCURVE",
"73 -224 OFFCURVE",
"76 -243 CURVE SMOOTH",
"78 -257 OFFCURVE",
"81 -272 OFFCURVE",
"87 -288 CURVE SMOOTH",
"95 -311 OFFCURVE",
"106 -330 OFFCURVE",
"122 -346 CURVE SMOOTH",
"125 -349 LINE SMOOTH",
"149 -373 OFFCURVE",
"218 -380 OFFCURVE",
"195 -380 CURVE SMOOTH",
"193 -380 LINE",
"215 -376 OFFCURVE",
"236 -362 OFFCURVE",
"257 -339 CURVE SMOOTH",
"270 -323 OFFCURVE",
"281 -303 OFFCURVE",
"290 -277 CURVE SMOOTH",
"296 -253 OFFCURVE",
"303 -229 OFFCURVE",
"311 -205 CURVE SMOOTH",
"321 -177 OFFCURVE",
"330 -148 OFFCURVE",
"335 -120 CURVE SMOOTH",
"350 -36 LINE SMOOTH",
"352 -24 OFFCURVE",
"351 -24 OFFCURVE",
"353 -12 CURVE",
"324 16 LINE"
);
}
);
width = 400;
}
);
unicode = 014A;
},
{
glyphname = O;
lastChange = "2021-11-29 06:54:51 +0000";
layers = (
{
layerId = "2018A826-CC5C-461A-95E5-9D849642E9B7";
paths = (
{
closed = 1;
nodes = (
"501 427.667 OFFCURVE",
"491.333 458.667 OFFCURVE",
"482 478 CURVE SMOOTH",
"464 515.333 OFFCURVE",
"442.333 544 OFFCURVE",
"417 564 CURVE SMOOTH",
"401 576.667 OFFCURVE",
"388.667 585 OFFCURVE",
"380 589 CURVE SMOOTH",
"359.333 597.667 OFFCURVE",
"344.333 602 OFFCURVE",
"335 602 CURVE SMOOTH",
"330.333 602 OFFCURVE",
"325.667 601.667 OFFCURVE",
"321 601 CURVE",
"323 605 OFFCURVE",
"324 609.333 OFFCURVE",
"324 614 CURVE SMOOTH",
"324 630 OFFCURVE",
"319 638 OFFCURVE",
"309 638 CURVE SMOOTH",
"295 638 OFFCURVE",
"272.333 627.667 OFFCURVE",
"241 607 CURVE SMOOTH",
"230.333 599.667 OFFCURVE",
"218.667 589.333 OFFCURVE",
"206 576 CURVE SMOOTH",
"175 540 LINE SMOOTH",
"150.333 512 OFFCURVE",
"132.333 487 OFFCURVE",
"121 465 CURVE SMOOTH",
"70.333 369 OFFCURVE",
"46 281 OFFCURVE",
"48 201 CURVE SMOOTH",
"49.333 147 OFFCURVE",
"66.667 98 OFFCURVE",
"100 54 CURVE SMOOTH",
"121.333 26 OFFCURVE",
"151 9.333 OFFCURVE",
"189 4 CURVE SMOOTH",
"213 0.667 OFFCURVE",
"256.333 17.333 OFFCURVE",
"319 54 CURVE SMOOTH",
"379.667 88.667 OFFCURVE",
"423 120.667 OFFCURVE",
"449 150 CURVE SMOOTH",
"471 174.667 OFFCURVE",
"486 193.667 OFFCURVE",
"494 207 CURVE SMOOTH",
"512 239 OFFCURVE",
"521 274.667 OFFCURVE",
"521 314 CURVE SMOOTH",
"521 336 OFFCURVE",
"518 359.667 OFFCURVE",
"512 385 CURVE",
"511 385 LINE"
);
},
{
closed = 1;
nodes = (
"487.667 349.333 OFFCURVE",
"490 333.333 OFFCURVE",
"490 318 CURVE SMOOTH",
"490 291.333 OFFCURVE",
"483 265.667 OFFCURVE",
"469 241 CURVE SMOOTH",
"465 234.333 OFFCURVE",
"452 216 OFFCURVE",
"430 186 CURVE SMOOTH",
"391.333 134 OFFCURVE",
"236.333 46.333 OFFCURVE",
"195 53 CURVE SMOOTH",
"163.667 57.667 OFFCURVE",
"139.333 71 OFFCURVE",
"122 93 CURVE SMOOTH",
"97.333 124.333 OFFCURVE",
"83.333 161 OFFCURVE",
"80 203 CURVE",
"80.667 229 OFFCURVE",
"87.333 265.667 OFFCURVE",
"100 313 CURVE SMOOTH",
"114 365 OFFCURVE",
"129.333 406 OFFCURVE",
"146 436 CURVE",
"167.333 466.667 OFFCURVE",
"183.333 488 OFFCURVE",
"194 500 CURVE SMOOTH",
"228.667 538.667 OFFCURVE",
"248.333 559.667 OFFCURVE",
"253 563 CURVE SMOOTH",
"261.667 569 OFFCURVE",
"273.333 574.333 OFFCURVE",
"288 579 CURVE",
"286 579 LINE",
"284 577 OFFCURVE",
"282.333 575.667 OFFCURVE",
"281 575 CURVE",
"275.667 570.333 OFFCURVE",
"273 562.667 OFFCURVE",
"273 552 CURVE SMOOTH",
"273 536 OFFCURVE",
"277 528 OFFCURVE",
"285 528 CURVE SMOOTH",
"287 528 OFFCURVE",
"288.667 528.333 OFFCURVE",
"290 529 CURVE SMOOTH",
"293 530 LINE",
"308.333 542.667 OFFCURVE",
"323.333 549 OFFCURVE",
"338 549 CURVE SMOOTH",
"346 549 OFFCURVE",
"356.667 546 OFFCURVE",
"370 540 CURVE SMOOTH",
"385.333 532 OFFCURVE",
"395.667 525.333 OFFCURVE",
"401 520 CURVE SMOOTH",
"422.333 502.667 OFFCURVE",
"440.333 478.333 OFFCURVE",
"455 447 CURVE SMOOTH",
"464.333 427.667 OFFCURVE",
"473.667 400.667 OFFCURVE",
"483 366 CURVE SMOOTH"
);
}
);
userData = {
assembly = "NPUSHB[ ]	/* 28 values pushed */\0121 82 82 64 83 2 73 59 58 52 47 38 30 28 0 80 69 59 54 28 26 14 2 24 10 1 14 70 \012SROUND[ ]	/* SuperRound */\012MDAP[1]	/* MoveDirectAbsPt */\012SHZ[1]	/* ShiftZoneByLastPoint */\012RTG[ ]	/* RoundToGrid */\012SVTCA[0]	/* SetFreedomAndProjectionVectorToAxis */\012MDAP[1]	/* MoveDirectAbsPt */\012MDAP[1]	/* MoveDirectAbsPt */\012SVTCA[1]	/* SetFreedomAndProjectionVectorToAxis */\012MDAP[0]	/* MoveDirectAbsPt */\012MDAP[0]	/* MoveDirectAbsPt */\012MDAP[0]	/* MoveDirectAbsPt */\012MDAP[0]	/* MoveDirectAbsPt */\012MDAP[0]	/* MoveDirectAbsPt */\012MDAP[0]	/* MoveDirectAbsPt */\012MDAP[0]	/* MoveDirectAbsPt */\012MDAP[0]	/* MoveDirectAbsPt */\012SVTCA[0]	/* SetFreedomAndProjectionVectorToAxis */\012MDAP[0]	/* MoveDirectAbsPt */\012MDAP[0]	/* MoveDirectAbsPt */\012MDAP[0]	/* MoveDirectAbsPt */\012MDAP[0]	/* MoveDirectAbsPt */\012MDAP[0]	/* MoveDirectAbsPt */\012MDAP[0]	/* MoveDirectAbsPt */\012MDAP[0]	/* MoveDirectAbsPt */\012MDAP[0]	/* MoveDirectAbsPt */\012MDAP[0]	/* MoveDirectAbsPt */\012IUP[1]	/* InterpolateUntPts */\012IUP[0]	/* InterpolateUntPts */\012SVTCA[1]	/* SetFreedomAndProjectionVectorToAxis */\012MD[0]	/* MeasureDistance */\012ROUND[00]	/* Round */\012PUSHW[ ]	/* 2 values pushed */\01214 82 \012MD[0]	/* MeasureDistance */\012ROUND[00]	/* Round */\012SUB[ ]	/* Subtract */\012PUSHB[ ]	/* 1 value pushed */\01264 \012GT[ ]	/* GreaterThan */\012IF[ ]	/* If */\012SHPIX[ ]	/* ShiftZoneByPixel */\012SRP1[ ]	/* SetRefPoint1 */\012SHZ[1]	/* ShiftZoneByLastPoint */\012PUSHW[ ]	/* 2 values pushed */\01282 -64 \012SHPIX[ ]	/* ShiftZoneByPixel */\012EIF[ ]	/* EndIf */";
};
width = 494;
}
);
note = O;
unicode = 004F;
},
{
glyphname = OE;
lastChange = "2021-11-29 06:54:51 +0000";
layers = (
{
background = {
paths = (
{
closed = 1;
nodes = (
"813 549 OFFCURVE",
"811 563 OFFCURVE",
"807 574 CURVE",
"798 585 OFFCURVE",
"790 592 OFFCURVE",
"785 595 CURVE",
"773 604 OFFCURVE",
"757 611 OFFCURVE",
"738 615 CURVE SMOOTH",
"729 618 OFFCURVE",
"711 621 OFFCURVE",
"683 624 CURVE SMOOTH",
"640 629 OFFCURVE",
"599 626 OFFCURVE",
"560 615 CURVE SMOOTH",
"539 609 OFFCURVE",
"518 599 OFFCURVE",
"497 586 CURVE SMOOTH",
"433 547 LINE SMOOTH",
"426 543 OFFCURVE",
"422 535 OFFCURVE",
"422 524 CURVE SMOOTH",
"422 509 OFFCURVE",
"427 502 OFFCURVE",
"437 502 CURVE SMOOTH",
"439 502 OFFCURVE",
"441 502 OFFCURVE",
"443 503 CURVE",
"476 522 OFFCURVE",
"500 536 OFFCURVE",
"513 545 CURVE",
"507 501 OFFCURVE",
"502 469 OFFCURVE",
"498 450 CURVE",
"497 449 OFFCURVE",
"489 414 OFFCURVE",
"489 406 CURVE",
"480 377 OFFCURVE",
"474 355 OFFCURVE",
"470 340 CURVE",
"475 341 OFFCURVE",
"466 341 OFFCURVE",
"443 341 CURVE SMOOTH",
"433 341 OFFCURVE",
"428 333 OFFCURVE",
"428 316 CURVE SMOOTH",
"428 302 OFFCURVE",
"432 295 OFFCURVE",
"441 295 CURVE SMOOTH",
"446 296 OFFCURVE",
"451 295 OFFCURVE",
"458 294 CURVE",
"447 251 OFFCURVE",
"439 220 OFFCURVE",
"434 199 CURVE",
"427 137 LINE SMOOTH",
"422 93 OFFCURVE",
"419 60 OFFCURVE",
"418 39 CURVE SMOOTH",
"417 14 OFFCURVE",
"417 -2 OFFCURVE",
"418 -9 CURVE",
"427 -23 OFFCURVE",
"434 -30 OFFCURVE",
"438 -31 CURVE",
"441 -33 LINE",
"463 -33 OFFCURVE",
"485 -31 OFFCURVE",
"507 -26 CURVE",
"507 -25 LINE",
"539 -25 OFFCURVE",
"566 -22 OFFCURVE",
"588 -17 CURVE",
"613 -8 OFFCURVE",
"630 -2 OFFCURVE",
"639 3 CURVE",
"663 12 OFFCURVE",
"681 18 OFFCURVE",
"692 21 CURVE SMOOTH",
"716 26 LINE SMOOTH",
"726 28 OFFCURVE",
"735 32 OFFCURVE",
"743 38 CURVE",
"774 68 LINE SMOOTH",
"780 74 OFFCURVE",
"783 81 OFFCURVE",
"783 90 CURVE SMOOTH",
"783 105 OFFCURVE",
"778 112 OFFCURVE",
"769 112 CURVE SMOOTH",
"767 112 OFFCURVE",
"765 111 OFFCURVE",
"762 109 CURVE SMOOTH",
"730 81 LINE",
"711 73 OFFCURVE",
"697 68 OFFCURVE",
"687 66 CURVE SMOOTH",
"662 59 OFFCURVE",
"644 53 OFFCURVE",
"634 49 CURVE SMOOTH",
"611 40 OFFCURVE",
"596 34 OFFCURVE",
"587 30 CURVE",
"569 25 OFFCURVE",
"542 22 OFFCURVE",
"507 21 CURVE",
"485 18 OFFCURVE",
"471 14 OFFCURVE",
"465 11 CURVE",
"458 10 OFFCURVE",
"454 15 OFFCURVE",
"453 26 CURVE SMOOTH",
"452 47 OFFCURVE",
"452 60 OFFCURVE",
"453 63 CURVE SMOOTH",
"454 83 LINE",
"461 135 OFFCURVE",
"467 174 OFFCURVE",
"473 200 CURVE",
"473 219 OFFCURVE",
"478 250 OFFCURVE",
"489 293 CURVE",
"517 293 LINE SMOOTH",
"528 293 OFFCURVE",
"540 295 OFFCURVE",
"555 298 CURVE SMOOTH",
"572 302 OFFCURVE",
"585 304 OFFCURVE",
"592 305 CURVE SMOOTH",
"621 308 OFFCURVE",
"650 310 OFFCURVE",
"679 310 CURVE SMOOTH",
"690 310 OFFCURVE",
"695 319 OFFCURVE",
"695 336 CURVE SMOOTH",
"695 349 OFFCURVE",
"691 356 OFFCURVE",
"682 356 CURVE SMOOTH",
"653 356 OFFCURVE",
"623 354 OFFCURVE",
"592 351 CURVE SMOOTH",
"584 350 OFFCURVE",
"571 348 OFFCURVE",
"554 344 CURVE SMOOTH",
"540 341 OFFCURVE",
"528 339 OFFCURVE",
"518 339 CURVE SMOOTH",
"505 339 LINE",
"512 361 OFFCURVE",
"516 377 OFFCURVE",
"518 386 CURVE SMOOTH",
"523 405 LINE",
"537 475 LINE",
"542 526 OFFCURVE",
"546 554 OFFCURVE",
"547 561 CURVE",
"549 564 OFFCURVE",
"551 565 OFFCURVE",
"553 566 CURVE",
"552 566 OFFCURVE",
"643 580 OFFCURVE",
"679 576 CURVE SMOOTH",
"715 572 OFFCURVE",
"754 570 OFFCURVE",
"774 549 CURVE SMOOTH",
"780 542 OFFCURVE",
"782 537 OFFCURVE",
"780 534 CURVE",
"779 527 OFFCURVE",
"777 521 OFFCURVE",
"774 516 CURVE",
"771 508 OFFCURVE",
"771 500 OFFCURVE",
"773 492 CURVE SMOOTH",
"774 483 OFFCURVE",
"777 479 OFFCURVE",
"782 479 CURVE",
"790 483 OFFCURVE",
"796 488 OFFCURVE",
"801 495 CURVE",
"807 510 OFFCURVE",
"811 521 OFFCURVE",
"813 530 CURVE"
);
}
);
};
layerId = "2018A826-CC5C-461A-95E5-9D849642E9B7";
paths = (
{
closed = 1;
nodes = (
"798 585 OFFCURVE",
"790 592 OFFCURVE",
"785 595 CURVE SMOOTH",
"773 604 OFFCURVE",
"757 611 OFFCURVE",
"738 615 CURVE SMOOTH",
"729 618 OFFCURVE",
"711 621 OFFCURVE",
"683 624 CURVE SMOOTH",
"640 629 OFFCURVE",
"599 626 OFFCURVE",
"560 615 CURVE SMOOTH",
"539 609 OFFCURVE",
"518 599 OFFCURVE",
"497 586 CURVE SMOOTH",
"435 548 LINE",
"429 554 OFFCURVE",
"423 559 OFFCURVE",
"417 564 CURVE SMOOTH",
"401 577 OFFCURVE",
"389 585 OFFCURVE",
"380 589 CURVE SMOOTH",
"359 598 OFFCURVE",
"344 602 OFFCURVE",
"335 602 CURVE SMOOTH",
"330 602 OFFCURVE",
"326 602 OFFCURVE",
"321 601 CURVE",
"323 605 OFFCURVE",
"324 609 OFFCURVE",
"324 614 CURVE SMOOTH",
"324 630 OFFCURVE",
"319 638 OFFCURVE",
"309 638 CURVE SMOOTH",
"295 638 OFFCURVE",
"272 628 OFFCURVE",
"241 607 CURVE SMOOTH",
"230 600 OFFCURVE",
"218 590 OFFCURVE",
"206 576 CURVE SMOOTH",
"175 540 LINE SMOOTH",
"151 512 OFFCURVE",
"132 487 OFFCURVE",
"121 465 CURVE SMOOTH",
"70 369 OFFCURVE",
"46 281 OFFCURVE",
"48 201 CURVE SMOOTH",
"49 147 OFFCURVE",
"67 98 OFFCURVE",
"100 54 CURVE SMOOTH",
"121 26 OFFCURVE",
"151 9 OFFCURVE",
"189 4 CURVE SMOOTH",
"213 1 OFFCURVE",
"256 17 OFFCURVE",
"319 54 CURVE SMOOTH",
"365 80 OFFCURVE",
"400 105 OFFCURVE",
"426 127 CURVE",
"422 88 OFFCURVE",
"419 58 OFFCURVE",
"418 39 CURVE SMOOTH",
"417 14 OFFCURVE",
"417 -2 OFFCURVE",
"418 -9 CURVE",
"427 -23 OFFCURVE",
"434 -30 OFFCURVE",
"438 -31 CURVE",
"441 -33 LINE",
"463 -33 OFFCURVE",
"485 -31 OFFCURVE",
"507 -26 CURVE",
"507 -25 LINE",
"539 -25 OFFCURVE",
"566 -22 OFFCURVE",
"588 -17 CURVE",
"613 -8 OFFCURVE",
"630 -2 OFFCURVE",
"639 3 CURVE",
"663 12 OFFCURVE",
"681 18 OFFCURVE",
"692 21 CURVE SMOOTH",
"716 26 LINE SMOOTH",
"726 28 OFFCURVE",
"735 32 OFFCURVE",
"743 38 CURVE",
"774 68 LINE SMOOTH",
"780 74 OFFCURVE",
"783 81 OFFCURVE",
"783 90 CURVE SMOOTH",
"783 105 OFFCURVE",
"778 112 OFFCURVE",
"769 112 CURVE SMOOTH",
"767 112 OFFCURVE",
"765 111 OFFCURVE",
"762 109 CURVE SMOOTH",
"730 81 LINE",
"711 73 OFFCURVE",
"697 68 OFFCURVE",
"687 66 CURVE SMOOTH",
"662 59 OFFCURVE",
"644 53 OFFCURVE",
"634 49 CURVE SMOOTH",
"611 40 OFFCURVE",
"596 34 OFFCURVE",
"587 30 CURVE",
"569 25 OFFCURVE",
"542 22 OFFCURVE",
"507 21 CURVE",
"485 18 OFFCURVE",
"471 14 OFFCURVE",
"465 11 CURVE",
"458 10 OFFCURVE",
"454 15 OFFCURVE",
"453 26 CURVE SMOOTH",
"452 47 OFFCURVE",
"452 60 OFFCURVE",
"453 63 CURVE",
"454 83 LINE",
"461 135 OFFCURVE",
"467 174 OFFCURVE",
"473 200 CURVE",
"473 219 OFFCURVE",
"478 250 OFFCURVE",
"489 293 CURVE",
"517 293 LINE SMOOTH",
"528 293 OFFCURVE",
"540 295 OFFCURVE",
"555 298 CURVE SMOOTH",
"572 302 OFFCURVE",
"585 304 OFFCURVE",
"592 305 CURVE SMOOTH",
"621 308 OFFCURVE",
"650 310 OFFCURVE",
"679 310 CURVE SMOOTH",
"690 310 OFFCURVE",
"695 319 OFFCURVE",
"695 336 CURVE SMOOTH",
"695 349 OFFCURVE",
"691 356 OFFCURVE",
"682 356 CURVE SMOOTH",
"653 356 OFFCURVE",
"623 354 OFFCURVE",
"592 351 CURVE SMOOTH",
"584 350 OFFCURVE",
"571 348 OFFCURVE",
"554 344 CURVE SMOOTH",
"540 341 OFFCURVE",
"528 339 OFFCURVE",
"518 339 CURVE SMOOTH",
"505 339 LINE",
"512 361 OFFCURVE",
"516 377 OFFCURVE",
"518 386 CURVE SMOOTH",
"523 405 LINE",
"537 475 LINE",
"542 526 OFFCURVE",
"546 554 OFFCURVE",
"547 561 CURVE",
"549 564 OFFCURVE",
"551 565 OFFCURVE",
"553 566 CURVE",
"552 566 OFFCURVE",
"643 580 OFFCURVE",
"679 576 CURVE SMOOTH",
"715 572 OFFCURVE",
"754 570 OFFCURVE",
"774 549 CURVE SMOOTH",
"780 542 OFFCURVE",
"782 537 OFFCURVE",
"780 534 CURVE",
"779 527 OFFCURVE",
"777 521 OFFCURVE",
"774 516 CURVE",
"771 508 OFFCURVE",
"771 500 OFFCURVE",
"773 492 CURVE SMOOTH",
"774 483 OFFCURVE",
"777 479 OFFCURVE",
"782 479 CURVE",
"790 483 OFFCURVE",
"796 488 OFFCURVE",
"801 495 CURVE",
"807 510 OFFCURVE",
"811 521 OFFCURVE",
"813 530 CURVE",
"813 549 OFFCURVE",
"811 563 OFFCURVE",
"807 574 CURVE"
);
},
{
closed = 1;
nodes = (
"443 341 LINE SMOOTH",
"433 341 OFFCURVE",
"428 333 OFFCURVE",
"428 316 CURVE SMOOTH",
"428 302 OFFCURVE",
"432 295 OFFCURVE",
"441 295 CURVE",
"446 296 OFFCURVE",
"451 295 OFFCURVE",
"458 294 CURVE",
"434 199 LINE",
"433 190 LINE",
"430 186 LINE SMOOTH",
"391 134 OFFCURVE",
"236 46 OFFCURVE",
"195 53 CURVE SMOOTH",
"164 58 OFFCURVE",
"139 71 OFFCURVE",
"122 93 CURVE SMOOTH",
"97 124 OFFCURVE",
"83 161 OFFCURVE",
"80 203 CURVE",
"81 229 OFFCURVE",
"87 266 OFFCURVE",
"100 313 CURVE SMOOTH",
"114 365 OFFCURVE",
"129 406 OFFCURVE",
"146 436 CURVE SMOOTH",
"167 467 OFFCURVE",
"183 488 OFFCURVE",
"194 500 CURVE SMOOTH",
"229 539 OFFCURVE",
"248 560 OFFCURVE",
"253 563 CURVE SMOOTH",
"261 569 OFFCURVE",
"271 573 OFFCURVE",
"285 578 CURVE SMOOTH",
"283 577 OFFCURVE",
"282 576 OFFCURVE",
"281 575 CURVE SMOOTH",
"276 570 OFFCURVE",
"273 563 OFFCURVE",
"273 552 CURVE SMOOTH",
"273 536 OFFCURVE",
"277 528 OFFCURVE",
"285 528 CURVE SMOOTH",
"287 528 OFFCURVE",
"289 529 OFFCURVE",
"290 529 CURVE SMOOTH",
"293 530 LINE",
"308 543 OFFCURVE",
"323 549 OFFCURVE",
"338 549 CURVE SMOOTH",
"346 549 OFFCURVE",
"357 546 OFFCURVE",
"370 540 CURVE SMOOTH",
"385 532 OFFCURVE",
"396 525 OFFCURVE",
"401 520 CURVE SMOOTH",
"422 503 OFFCURVE",
"440 478 OFFCURVE",
"455 447 CURVE SMOOTH",
"463 430 OFFCURVE",
"472 407 OFFCURVE",
"480 377 CURVE",
"476 362 OFFCURVE",
"473 350 OFFCURVE",
"470 341 CURVE"
);
},
{
closed = 1;
nodes = (
"496 442 LINE",
"491 457 OFFCURVE",
"486 469 OFFCURVE",
"482 478 CURVE SMOOTH",
"476 491 OFFCURVE",
"469 503 OFFCURVE",
"462 514 CURVE",
"485 527 OFFCURVE",
"503 538 OFFCURVE",
"513 545 CURVE",
"507 501 OFFCURVE",
"502 469 OFFCURVE",
"498 450 CURVE SMOOTH"
);
}
);
width = 822;
}
);
unicode = 0152;
},
{
glyphname = P;
lastChange = "2021-11-29 06:54:51 +0000";
layers = (
{
layerId = "2018A826-CC5C-461A-95E5-9D849642E9B7";
paths = (
{
closed = 1;
nodes = (
"325.667 411 OFFCURVE",
"332 432.333 OFFCURVE",
"332 453 CURVE SMOOTH",
"332 477.667 OFFCURVE",
"324.333 499.333 OFFCURVE",
"309 518 CURVE",
"301.667 530 OFFCURVE",
"291 537 OFFCURVE",
"279 541 CURVE SMOOTH",
"254 549 LINE",
"232.667 561.667 OFFCURVE",
"217 570.667 OFFCURVE",
"207 576 CURVE SMOOTH",
"185 588 OFFCURVE",
"169 596.333 OFFCURVE",
"159 601 CURVE SMOOTH",
"141.667 607.667 OFFCURVE",
"127 615 OFFCURVE",
"115 623 CURVE SMOOTH",
"102.333 633.667 OFFCURVE",
"93 642 OFFCURVE",
"87 648 CURVE SMOOTH",
"86 649 LINE SMOOTH",
"84 651 OFFCURVE",
"81.667 652 OFFCURVE",
"79 652 CURVE SMOOTH",
"69.667 652 OFFCURVE",
"60 634.667 OFFCURVE",
"60 620 CURVE SMOOTH",
"60 614.667 OFFCURVE",
"61.333 610.333 OFFCURVE",
"64 607 CURVE",
"80 594.333 OFFCURVE",
"91.667 584 OFFCURVE",
"99 576 CURVE",
"140.333 554 OFFCURVE",
"172.667 538.667 OFFCURVE",
"196 530 CURVE",
"216 518 OFFCURVE",
"231 509.333 OFFCURVE",
"241 504 CURVE SMOOTH",
"245 502 OFFCURVE",
"253.667 499 OFFCURVE",
"267 495 CURVE SMOOTH",
"275 492.333 OFFCURVE",
"281.333 488 OFFCURVE",
"286 482 CURVE",
"289 474 OFFCURVE",
"298 461 OFFCURVE",
"298 453 CURVE SMOOTH",
"298 447 OFFCURVE",
"295.667 437.667 OFFCURVE",
"287 419 CURVE SMOOTH",
"275 393.667 OFFCURVE",
"255 377.333 OFFCURVE",
"235 360 CURVE SMOOTH",
"197.667 330 OFFCURVE",
"170 309 OFFCURVE",
"152 297 CURVE",
"115 265 LINE SMOOTH",
"106 257 OFFCURVE",
"101 248 OFFCURVE",
"101 236 CURVE SMOOTH",
"101 227.333 OFFCURVE",
"103.333 221 OFFCURVE",
"108 217 CURVE SMOOTH",
"112.667 213 OFFCURVE",
"118 213.333 OFFCURVE",
"124 218 CURVE SMOOTH",
"166.667 258 OFFCURVE",
"162.667 254.667 OFFCURVE",
"208 284 CURVE SMOOTH",
"224.667 295.333 OFFCURVE",
"239.667 307.333 OFFCURVE",
"253 320 CURVE SMOOTH",
"282.333 347.333 OFFCURVE",
"302.333 370.333 OFFCURVE",
"313 389 CURVE SMOOTH"
);
},
{
closed = 1;
nodes = (
"113 537 OFFCURVE",
"105.333 545 OFFCURVE",
"94 545 CURVE SMOOTH",
"83.333 545 OFFCURVE",
"77.333 536.5 OFFCURVE",
"76 519.5 CURVE SMOOTH",
"74.667 502.5 OFFCURVE",
"72.667 482.333 OFFCURVE",
"70 459 CURVE SMOOTH",
"60 375 OFFCURVE",
"52 314 OFFCURVE",
"47 277 CURVE SMOOTH",
"36 190 LINE SMOOTH",
"32 158 OFFCURVE",
"29 127.667 OFFCURVE",
"29 99 CURVE SMOOTH",
"29 89.667 OFFCURVE",
"28.167 74.833 OFFCURVE",
"26.5 54.5 CURVE SMOOTH",
"24.833 34.167 OFFCURVE",
"24 18.667 OFFCURVE",
"24 8 CURVE SMOOTH",
"24 -22 OFFCURVE",
"29 -48 OFFCURVE",
"39 -70 CURVE SMOOTH",
"41.667 -74.667 OFFCURVE",
"45 -77 OFFCURVE",
"49 -77 CURVE SMOOTH",
"59.667 -77 OFFCURVE",
"72 -61.667 OFFCURVE",
"72 -47 CURVE SMOOTH",
"72 -43.667 OFFCURVE",
"71.333 -40.333 OFFCURVE",
"70 -37 CURVE SMOOTH",
"62.667 -23 OFFCURVE",
"59 -6 OFFCURVE",
"59 14 CURVE SMOOTH",
"59 21.333 OFFCURVE",
"60 34 OFFCURVE",
"61 53 CURVE SMOOTH",
"64 104 LINE SMOOTH",
"69 182 OFFCURVE",
"77 238 OFFCURVE",
"81 274 CURVE SMOOTH",
"100 455 LINE",
"105.333 483.667 OFFCURVE",
"109.667 504.667 OFFCURVE",
"113 518 CURVE"
);
}
);
userData = {
assembly = "NPUSHB[ ]	/* 27 values pushed */\0121 94 94 64 95 57 93 91 59 51 50 9 79 72 68 59 57 51 50 36 22 11 39 75 1 79 70 \012SROUND[ ]	/* SuperRound */\012MDAP[1]	/* MoveDirectAbsPt */\012SHZ[1]	/* ShiftZoneByLastPoint */\012RTG[ ]	/* RoundToGrid */\012SVTCA[0]	/* SetFreedomAndProjectionVectorToAxis */\012MDAP[1]	/* MoveDirectAbsPt */\012MDAP[1]	/* MoveDirectAbsPt */\012SVTCA[1]	/* SetFreedomAndProjectionVectorToAxis */\012MDAP[0]	/* MoveDirectAbsPt */\012MDAP[0]	/* MoveDirectAbsPt */\012MDAP[0]	/* MoveDirectAbsPt */\012MDAP[0]	/* MoveDirectAbsPt */\012MDAP[0]	/* MoveDirectAbsPt */\012MDAP[0]	/* MoveDirectAbsPt */\012MDAP[0]	/* MoveDirectAbsPt */\012MDAP[0]	/* MoveDirectAbsPt */\012MDAP[0]	/* MoveDirectAbsPt */\012MDAP[0]	/* MoveDirectAbsPt */\012SVTCA[0]	/* SetFreedomAndProjectionVectorToAxis */\012MDAP[0]	/* MoveDirectAbsPt */\012MDAP[0]	/* MoveDirectAbsPt */\012MDAP[0]	/* MoveDirectAbsPt */\012MDAP[0]	/* MoveDirectAbsPt */\012MDAP[0]	/* MoveDirectAbsPt */\012MDAP[0]	/* MoveDirectAbsPt */\012IUP[1]	/* InterpolateUntPts */\012IUP[0]	/* InterpolateUntPts */\012SVTCA[1]	/* SetFreedomAndProjectionVectorToAxis */\012MD[0]	/* MeasureDistance */\012ROUND[00]	/* Round */\012PUSHW[ ]	/* 2 values pushed */\01279 94 \012MD[0]	/* MeasureDistance */\012ROUND[00]	/* Round */\012SUB[ ]	/* Subtract */\012PUSHB[ ]	/* 1 value pushed */\01264 \012GT[ ]	/* GreaterThan */\012IF[ ]	/* If */\012SHPIX[ ]	/* ShiftZoneByPixel */\012SRP1[ ]	/* SetRefPoint1 */\012SHZ[1]	/* ShiftZoneByLastPoint */\012PUSHW[ ]	/* 2 values pushed */\01294 -64 \012SHPIX[ ]	/* ShiftZoneByPixel */\012EIF[ ]	/* EndIf */";
};
width = 288;
}
);
note = P;
unicode = 0050;
},
{
glyphname = Thorn;
lastChange = "2021-11-29 06:54:51 +0000";
layers = (
{
layerId = "2018A826-CC5C-461A-95E5-9D849642E9B7";
paths = (
{
closed = 1;
nodes = (
"304 313 OFFCURVE",
"310 334 OFFCURVE",
"310 355 CURVE SMOOTH",
"310 380 OFFCURVE",
"302 401 OFFCURVE",
"287 420 CURVE",
"280 432 OFFCURVE",
"269 439 OFFCURVE",
"257 443 CURVE SMOOTH",
"232 451 LINE",
"211 464 OFFCURVE",
"195 473 OFFCURVE",
"185 478 CURVE SMOOTH",
"163 490 OFFCURVE",
"147 498 OFFCURVE",
"137 503 CURVE SMOOTH",
"120 510 OFFCURVE",
"105 517 OFFCURVE",
"93 525 CURVE SMOOTH",
"80 536 OFFCURVE",
"71 544 OFFCURVE",
"65 550 CURVE SMOOTH",
"64 551 LINE SMOOTH",
"62 553 OFFCURVE",
"60 554 OFFCURVE",
"57 554 CURVE SMOOTH",
"48 554 OFFCURVE",
"38 537 OFFCURVE",
"38 522 CURVE SMOOTH",
"38 517 OFFCURVE",
"39 512 OFFCURVE",
"42 509 CURVE",
"58 496 OFFCURVE",
"70 486 OFFCURVE",
"77 478 CURVE",
"118 456 OFFCURVE",
"151 441 OFFCURVE",
"174 432 CURVE",
"194 420 OFFCURVE",
"209 411 OFFCURVE",
"219 406 CURVE SMOOTH",
"223 404 OFFCURVE",
"232 401 OFFCURVE",
"245 397 CURVE SMOOTH",
"253 394 OFFCURVE",
"259 390 OFFCURVE",
"264 384 CURVE",
"267 376 OFFCURVE",
"276 363 OFFCURVE",
"276 355 CURVE SMOOTH",
"276 349 OFFCURVE",
"274 340 OFFCURVE",
"265 321 CURVE SMOOTH",
"253 296 OFFCURVE",
"233 279 OFFCURVE",
"213 262 CURVE SMOOTH",
"176 232 OFFCURVE",
"148 211 OFFCURVE",
"130 199 CURVE",
"93 167 LINE SMOOTH",
"84 159 OFFCURVE",
"79 150 OFFCURVE",
"79 138 CURVE SMOOTH",
"79 129 OFFCURVE",
"81 123 OFFCURVE",
"86 119 CURVE SMOOTH",
"91 115 OFFCURVE",
"96 115 OFFCURVE",
"102 120 CURVE SMOOTH",
"145 160 OFFCURVE",
"141 157 OFFCURVE",
"186 186 CURVE SMOOTH",
"203 197 OFFCURVE",
"218 209 OFFCURVE",
"231 222 CURVE SMOOTH",
"260 249 OFFCURVE",
"280 272 OFFCURVE",
"291 291 CURVE SMOOTH"
);
},
{
closed = 1;
nodes = (
"113 664 OFFCURVE",
"105 673 OFFCURVE",
"94 673 CURVE SMOOTH",
"83 673 OFFCURVE",
"77 664 OFFCURVE",
"76 646 CURVE SMOOTH",
"75 627 OFFCURVE",
"73 605 OFFCURVE",
"70 580 CURVE SMOOTH",
"60 489 OFFCURVE",
"52 423 OFFCURVE",
"47 382 CURVE SMOOTH",
"36 288 LINE SMOOTH",
"32 254 OFFCURVE",
"26 166 OFFCURVE",
"26 135 CURVE SMOOTH",
"26 125 OFFCURVE",
"25 109 OFFCURVE",
"24 87 CURVE SMOOTH",
"22 64 OFFCURVE",
"21 48 OFFCURVE",
"21 36 CURVE SMOOTH",
"21 4 OFFCURVE",
"26 -25 OFFCURVE",
"36 -48 CURVE SMOOTH",
"39 -54 OFFCURVE",
"42 -56 OFFCURVE",
"46 -56 CURVE SMOOTH",
"57 -56 OFFCURVE",
"69 -40 OFFCURVE",
"69 -24 CURVE SMOOTH",
"69 -20 OFFCURVE",
"68 -16 OFFCURVE",
"67 -13 CURVE SMOOTH",
"60 2 OFFCURVE",
"56 21 OFFCURVE",
"56 43 CURVE SMOOTH",
"56 50 OFFCURVE",
"57 64 OFFCURVE",
"58 85 CURVE SMOOTH",
"61 140 LINE SMOOTH",
"69 280 OFFCURVE",
"77 340 OFFCURVE",
"81 379 CURVE SMOOTH",
"100 575 LINE",
"105 607 OFFCURVE",
"110 629 OFFCURVE",
"113 644 CURVE"
);
}
);
width = 288;
}
);
unicode = 00DE;
},
{
glyphname = Q;
lastChange = "2021-11-29 06:54:51 +0000";
layers = (
{
layerId = "2018A826-CC5C-461A-95E5-9D849642E9B7";
paths = (
{
closed = 1;
nodes = (
"504 425.667 OFFCURVE",
"494 456.667 OFFCURVE",
"484 478 CURVE SMOOTH",
"466.667 514 OFFCURVE",
"445 542.667 OFFCURVE",
"419 564 CURVE SMOOTH",
"403.667 576.667 OFFCURVE",
"391 585 OFFCURVE",
"381 589 CURVE SMOOTH",
"360.333 597.667 OFFCURVE",
"345.333 602 OFFCURVE",
"336 602 CURVE SMOOTH",
"331.333 602 OFFCURVE",
"326.667 601.667 OFFCURVE",
"322 601 CURVE",
"324 605 OFFCURVE",
"325 609.333 OFFCURVE",
"325 614 CURVE SMOOTH",
"325 630 OFFCURVE",
"320 638 OFFCURVE",
"310 638 CURVE SMOOTH",
"296 638 OFFCURVE",
"273.333 627.667 OFFCURVE",
"242 607 CURVE SMOOTH",
"231.333 599.667 OFFCURVE",
"219.667 589.333 OFFCURVE",
"207 576 CURVE SMOOTH",
"176 540 LINE SMOOTH",
"151.333 512 OFFCURVE",
"133.333 487 OFFCURVE",
"122 465 CURVE SMOOTH",
"72 369.667 OFFCURVE",
"47.667 281.667 OFFCURVE",
"49 201 CURVE SMOOTH",
"49.667 147 OFFCURVE",
"67 98 OFFCURVE",
"101 54 CURVE SMOOTH",
"125 22.667 OFFCURVE",
"154.667 6 OFFCURVE",
"190 4 CURVE SMOOTH",
"211.333 2.667 OFFCURVE",
"244 12.667 OFFCURVE",
"288 34 CURVE",
"308 2 OFFCURVE",
"320.333 -17.333 OFFCURVE",
"325 -24 CURVE",
"326 -23 LINE",
"348.667 -54.333 OFFCURVE",
"363.667 -74.333 OFFCURVE",
"371 -83 CURVE SMOOTH",
"373.667 -86.333 OFFCURVE",
"376.667 -88 OFFCURVE",
"380 -88 CURVE SMOOTH",
"390.667 -88 OFFCURVE",
"400 -72.667 OFFCURVE",
"400 -58 CURVE SMOOTH",
"400 -52.667 OFFCURVE",
"398.667 -48.333 OFFCURVE",
"396 -45 CURVE SMOOTH",
"351 15 LINE SMOOTH",
"334.333 37.667 OFFCURVE",
"324 51 OFFCURVE",
"320 55 CURVE",
"380 89.667 OFFCURVE",
"423 121.667 OFFCURVE",
"449 151 CURVE SMOOTH",
"472.333 177.667 OFFCURVE",
"487.667 196.667 OFFCURVE",
"495 208 CURVE SMOOTH",
"513.667 240 OFFCURVE",
"523 275.667 OFFCURVE",
"523 315 CURVE SMOOTH",
"523 337 OFFCURVE",
"520 360.333 OFFCURVE",
"514 385 CURVE SMOOTH"
);
},
{
closed = 1;
nodes = (
"480.667 375 OFFCURVE",
"488 347.667 OFFCURVE",
"488 317 CURVE SMOOTH",
"488 291 OFFCURVE",
"481.333 265.667 OFFCURVE",
"468 241 CURVE SMOOTH",
"463.333 233 OFFCURVE",
"450.333 215 OFFCURVE",
"429 187 CURVE SMOOTH",
"405.667 155.667 OFFCURVE",
"361.667 123.667 OFFCURVE",
"297 91 CURVE",
"294.333 97 OFFCURVE",
"292 101.333 OFFCURVE",
"290 104 CURVE",
"275.333 133.333 OFFCURVE",
"265 155.333 OFFCURVE",
"259 170 CURVE",
"255 176.667 OFFCURVE",
"251.667 181.667 OFFCURVE",
"249 185 CURVE SMOOTH",
"221 226 LINE SMOOTH",
"218.333 229.333 OFFCURVE",
"215.667 231 OFFCURVE",
"213 231 CURVE SMOOTH",
"202.333 231 OFFCURVE",
"193 216 OFFCURVE",
"193 200 CURVE SMOOTH",
"193 195.333 OFFCURVE",
"194 191 OFFCURVE",
"196 187 CURVE",
"210.667 169 OFFCURVE",
"220.667 155.333 OFFCURVE",
"226 146 CURVE SMOOTH",
"244 114 OFFCURVE",
"256.667 89.333 OFFCURVE",
"264 72 CURVE",
"232 58.667 OFFCURVE",
"208.667 52 OFFCURVE",
"194 52 CURVE",
"160 58.667 OFFCURVE",
"135.667 71.667 OFFCURVE",
"121 91 CURVE SMOOTH",
"93.667 127 OFFCURVE",
"79.667 164.333 OFFCURVE",
"79 203 CURVE SMOOTH",
"78.333 227.667 OFFCURVE",
"84.667 264.333 OFFCURVE",
"98 313 CURVE SMOOTH",
"112 365 OFFCURVE",
"127.667 406 OFFCURVE",
"145 436 CURVE SMOOTH",
"157 456.667 OFFCURVE",
"173 478 OFFCURVE",
"193 500 CURVE SMOOTH",
"251 563 LINE",
"261 569 OFFCURVE",
"272.667 574.333 OFFCURVE",
"286 579 CURVE",
"285 579 LINE",
"283 577 OFFCURVE",
"281.333 575.667 OFFCURVE",
"280 575 CURVE SMOOTH",
"274 570.333 OFFCURVE",
"271 562.667 OFFCURVE",
"271 552 CURVE SMOOTH",
"271 536 OFFCURVE",
"275.333 528 OFFCURVE",
"284 528 CURVE",
"289 529 LINE",
"291 530 LINE",
"306.333 542.667 OFFCURVE",
"321.333 549 OFFCURVE",
"336 549 CURVE SMOOTH",
"344.667 549 OFFCURVE",
"355.667 546 OFFCURVE",
"369 540 CURVE SMOOTH",
"384.333 532 OFFCURVE",
"394.667 525.333 OFFCURVE",
"400 520 CURVE SMOOTH",
"421.333 502.667 OFFCURVE",
"439.333 478.333 OFFCURVE",
"454 447 CURVE"
);
}
);
userData = {
assembly = "NPUSHB[ ]	/* 42 values pushed */\0121 119 119 64 120 2 117 116 108 98 87 73 72 66 61 46 44 26 24 118 117 116 114 95 89 83 73 68 44 42 30 14 8 2 40 17 22 21 1 1 30 70 \012SROUND[ ]	/* SuperRound */\012MDAP[1]	/* MoveDirectAbsPt */\012SHZ[1]	/* ShiftZoneByLastPoint */\012RTG[ ]	/* RoundToGrid */\012SVTCA[0]	/* SetFreedomAndProjectionVectorToAxis */\012MIAP[1]	/* MoveIndirectAbsPt */\012ALIGNRP[ ]	/* AlignRelativePt */\012MDAP[1]	/* MoveDirectAbsPt */\012MDAP[1]	/* MoveDirectAbsPt */\012SVTCA[1]	/* SetFreedomAndProjectionVectorToAxis */\012MDAP[0]	/* MoveDirectAbsPt */\012MDAP[0]	/* MoveDirectAbsPt */\012MDAP[0]	/* MoveDirectAbsPt */\012MDAP[0]	/* MoveDirectAbsPt */\012MDAP[0]	/* MoveDirectAbsPt */\012MDAP[0]	/* MoveDirectAbsPt */\012MDAP[0]	/* MoveDirectAbsPt */\012MDAP[0]	/* MoveDirectAbsPt */\012MDAP[0]	/* MoveDirectAbsPt */\012MDAP[0]	/* MoveDirectAbsPt */\012MDAP[0]	/* MoveDirectAbsPt */\012MDAP[0]	/* MoveDirectAbsPt */\012MDAP[0]	/* MoveDirectAbsPt */\012MDAP[0]	/* MoveDirectAbsPt */\012MDAP[0]	/* MoveDirectAbsPt */\012SVTCA[0]	/* SetFreedomAndProjectionVectorToAxis */\012MDAP[0]	/* MoveDirectAbsPt */\012MDAP[0]	/* MoveDirectAbsPt */\012MDAP[0]	/* MoveDirectAbsPt */\012MDAP[0]	/* MoveDirectAbsPt */\012MDAP[0]	/* MoveDirectAbsPt */\012MDAP[0]	/* MoveDirectAbsPt */\012MDAP[0]	/* MoveDirectAbsPt */\012MDAP[0]	/* MoveDirectAbsPt */\012MDAP[0]	/* MoveDirectAbsPt */\012MDAP[0]	/* MoveDirectAbsPt */\012MDAP[0]	/* MoveDirectAbsPt */\012MDAP[0]	/* MoveDirectAbsPt */\012MDAP[0]	/* MoveDirectAbsPt */\012IUP[1]	/* InterpolateUntPts */\012IUP[0]	/* InterpolateUntPts */\012SVTCA[1]	/* SetFreedomAndProjectionVectorToAxis */\012MD[0]	/* MeasureDistance */\012ROUND[00]	/* Round */\012PUSHW[ ]	/* 2 values pushed */\01230 119 \012MD[0]	/* MeasureDistance */\012ROUND[00]	/* Round */\012SUB[ ]	/* Subtract */\012PUSHB[ ]	/* 1 value pushed */\01264 \012GT[ ]	/* GreaterThan */\012IF[ ]	/* If */\012SHPIX[ ]	/* ShiftZoneByPixel */\012SRP1[ ]	/* SetRefPoint1 */\012SHZ[1]	/* ShiftZoneByLastPoint */\012PUSHW[ ]	/* 2 values pushed */\012119 -64 \012SHPIX[ ]	/* ShiftZoneByPixel */\012EIF[ ]	/* EndIf */";
};
width = 494;
}
);
note = Q;
unicode = 0051;
},
{
glyphname = R;
lastChange = "2021-11-29 06:54:51 +0000";
layers = (
{
layerId = "2018A826-CC5C-461A-95E5-9D849642E9B7";
paths = (
{
closed = 1;
nodes = (
"361.667 503 OFFCURVE",
"355 516 OFFCURVE",
"344 525 CURVE SMOOTH",
"321 544 LINE",
"299.667 565.333 OFFCURVE",
"286 578.333 OFFCURVE",
"280 583 CURVE SMOOTH",
"249.333 606.333 OFFCURVE",
"211 626 OFFCURVE",
"165 626 CURVE SMOOTH",
"164 626 LINE SMOOTH",
"123.497 626 OFFCURVE",
"74 634.005 OFFCURVE",
"74 594 CURVE SMOOTH",
"74 580.667 OFFCURVE",
"78 574 OFFCURVE",
"86 574 CURVE SMOOTH",
"94.667 574 OFFCURVE",
"107.667 574.667 OFFCURVE",
"125 576 CURVE SMOOTH",
"139 576.667 OFFCURVE",
"151 576.667 OFFCURVE",
"161 576 CURVE SMOOTH",
"196.333 574 OFFCURVE",
"229.667 560.667 OFFCURVE",
"261 536 CURVE SMOOTH",
"279.667 522 OFFCURVE",
"293 512 OFFCURVE",
"299 504 CURVE SMOOTH",
"330 465 LINE",
"336 446.333 OFFCURVE",
"338 432 OFFCURVE",
"336 422 CURVE",
"326 410 LINE",
"298 384.667 OFFCURVE",
"275 366 OFFCURVE",
"257 354 CURVE SMOOTH",
"227.667 331.333 OFFCURVE",
"207 314.667 OFFCURVE",
"195 304 CURVE",
"162.567 286.83 OFFCURVE",
"126.483 264.91 OFFCURVE",
"122 241 CURVE SMOOTH",
"120.667 237 OFFCURVE",
"120 232.333 OFFCURVE",
"120 227 CURVE",
"121 229 LINE",
"134.333 211.667 OFFCURVE",
"142.667 200 OFFCURVE",
"146 194 CURVE SMOOTH",
"156.667 176.667 OFFCURVE",
"165 164 OFFCURVE",
"169 155 CURVE SMOOTH",
"200 87 LINE",
"213.333 67.667 OFFCURVE",
"223.667 54 OFFCURVE",
"231 46 CURVE",
"250.333 16.667 OFFCURVE",
"264.333 -5 OFFCURVE",
"273 -19 CURVE SMOOTH",
"277.667 -26.333 OFFCURVE",
"284.333 -34.333 OFFCURVE",
"293 -43 CURVE SMOOTH",
"295.667 -45 OFFCURVE",
"298.333 -46 OFFCURVE",
"301 -46 CURVE SMOOTH",
"311.667 -46 OFFCURVE",
"321 -31.333 OFFCURVE",
"321 -18 CURVE SMOOTH",
"321 -12 OFFCURVE",
"319.333 -7.333 OFFCURVE",
"316 -4 CURVE SMOOTH",
"307.333 4.667 OFFCURVE",
"300.667 12.667 OFFCURVE",
"296 20 CURVE",
"284 34 OFFCURVE",
"270.667 55.333 OFFCURVE",
"256 84 CURVE",
"241.333 102 OFFCURVE",
"231.333 115 OFFCURVE",
"226 123 CURVE",
"211.333 152.333 OFFCURVE",
"200.667 174.667 OFFCURVE",
"194 190 CURVE",
"171 231 LINE",
"170.333 233 OFFCURVE",
"169 234.333 OFFCURVE",
"167 235 CURVE",
"206 261 LINE SMOOTH",
"237 282 OFFCURVE",
"259 299.333 OFFCURVE",
"273 310 CURVE SMOOTH",
"308.333 336 OFFCURVE",
"332.333 355.667 OFFCURVE",
"345 369 CURVE SMOOTH",
"361.667 386.333 OFFCURVE",
"370 410.667 OFFCURVE",
"370 442 CURVE SMOOTH",
"370 455.333 OFFCURVE",
"368.333 469.667 OFFCURVE",
"365 485 CURVE SMOOTH"
);
},
{
closed = 1;
nodes = (
"145 524 OFFCURVE",
"142.333 533 OFFCURVE",
"131 533 CURVE SMOOTH",
"120.333 533 OFFCURVE",
"115 524 OFFCURVE",
"112 506 CURVE SMOOTH",
"106 475 LINE SMOOTH",
"103 462 OFFCURVE",
"101 449 OFFCURVE",
"101 437 CURVE SMOOTH",
"99 399 OFFCURVE",
"101 379 OFFCURVE",
"99 360 CURVE SMOOTH",
"97 338 OFFCURVE",
"92.667 289.667 OFFCURVE",
"90 271 CURVE SMOOTH",
"80.667 187 OFFCURVE",
"74 150 OFFCURVE",
"66 102 CURVE SMOOTH",
"60 69.333 OFFCURVE",
"51.667 47.667 OFFCURVE",
"41 37 CURVE",
"40 34 LINE",
"17.5 20 LINE SMOOTH",
"12 17 OFFCURVE",
"9 10.667 OFFCURVE",
"9 2 CURVE SMOOTH",
"9 -15.333 OFFCURVE",
"14.333 -24 OFFCURVE",
"25 -24 CURVE SMOOTH",
"27 -24 OFFCURVE",
"29 -23 OFFCURVE",
"31 -22 CURVE SMOOTH",
"58 -1 LINE",
"65.333 7 OFFCURVE",
"72 17 OFFCURVE",
"76 29 CURVE SMOOTH",
"86 58 LINE",
"98.667 108.667 OFFCURVE",
"108 145 OFFCURVE",
"108 166 CURVE SMOOTH",
"108 169 LINE SMOOTH",
"108 182.333 OFFCURVE",
"110 198.667 OFFCURVE",
"114 218 CURVE SMOOTH",
"118.667 241.333 OFFCURVE",
"121.667 258.333 OFFCURVE",
"123 269 CURVE SMOOTH",
"127.667 313 OFFCURVE",
"130.333 342.667 OFFCURVE",
"131 358 CURVE SMOOTH",
"133 392 OFFCURVE",
"134 417.667 OFFCURVE",
"134 435 CURVE",
"143 505 LINE SMOOTH"
);
}
);
userData = {
assembly = "NPUSHB[ ]	/* 34 values pushed */\0121 126 126 64 127 2 123 65 63 61 43 42 7 6 103 91 90 80 67 54 43 25 11 7 6 2 72 71 28 101 1 1 103 70 \012SROUND[ ]	/* SuperRound */\012MDAP[1]	/* MoveDirectAbsPt */\012SHZ[1]	/* ShiftZoneByLastPoint */\012RTG[ ]	/* RoundToGrid */\012SVTCA[0]	/* SetFreedomAndProjectionVectorToAxis */\012MIAP[1]	/* MoveIndirectAbsPt */\012MDAP[1]	/* MoveDirectAbsPt */\012MDAP[1]	/* MoveDirectAbsPt */\012ALIGNRP[ ]	/* AlignRelativePt */\012SVTCA[1]	/* SetFreedomAndProjectionVectorToAxis */\012MDAP[0]	/* MoveDirectAbsPt */\012MDAP[0]	/* MoveDirectAbsPt */\012MDAP[0]	/* MoveDirectAbsPt */\012MDAP[0]	/* MoveDirectAbsPt */\012MDAP[0]	/* MoveDirectAbsPt */\012MDAP[0]	/* MoveDirectAbsPt */\012MDAP[0]	/* MoveDirectAbsPt */\012MDAP[0]	/* MoveDirectAbsPt */\012MDAP[0]	/* MoveDirectAbsPt */\012MDAP[0]	/* MoveDirectAbsPt */\012MDAP[0]	/* MoveDirectAbsPt */\012MDAP[0]	/* MoveDirectAbsPt */\012SVTCA[0]	/* SetFreedomAndProjectionVectorToAxis */\012MDAP[0]	/* MoveDirectAbsPt */\012MDAP[0]	/* MoveDirectAbsPt */\012MDAP[0]	/* MoveDirectAbsPt */\012MDAP[0]	/* MoveDirectAbsPt */\012MDAP[0]	/* MoveDirectAbsPt */\012MDAP[0]	/* MoveDirectAbsPt */\012MDAP[0]	/* MoveDirectAbsPt */\012MDAP[0]	/* MoveDirectAbsPt */\012IUP[1]	/* InterpolateUntPts */\012IUP[0]	/* InterpolateUntPts */\012SVTCA[1]	/* SetFreedomAndProjectionVectorToAxis */\012MD[0]	/* MeasureDistance */\012ROUND[00]	/* Round */\012PUSHW[ ]	/* 2 values pushed */\012103 126 \012MD[0]	/* MeasureDistance */\012ROUND[00]	/* Round */\012SUB[ ]	/* Subtract */\012PUSHB[ ]	/* 1 value pushed */\01264 \012GT[ ]	/* GreaterThan */\012IF[ ]	/* If */\012SHPIX[ ]	/* ShiftZoneByPixel */\012SRP1[ ]	/* SetRefPoint1 */\012SHZ[1]	/* ShiftZoneByLastPoint */\012PUSHW[ ]	/* 2 values pushed */\012126 -64 \012SHPIX[ ]	/* ShiftZoneByPixel */\012EIF[ ]	/* EndIf */";
};
width = 316;
}
);
note = R;
unicode = 0052;
},
{
glyphname = S;
lastChange = "2021-11-29 06:54:51 +0000";
layers = (
{
layerId = "2018A826-CC5C-461A-95E5-9D849642E9B7";
paths = (
{
closed = 1;
nodes = (
"353.333 671 OFFCURVE",
"335.333 668.667 OFFCURVE",
"316 664 CURVE SMOOTH",
"287.333 657.333 OFFCURVE",
"260.333 643.333 OFFCURVE",
"235 622 CURVE",
"201.667 586 OFFCURVE",
"173 553.667 OFFCURVE",
"149 525 CURVE SMOOTH",
"131 504.333 OFFCURVE",
"122 478.333 OFFCURVE",
"122 447 CURVE SMOOTH",
"122 419 OFFCURVE",
"131.333 393.667 OFFCURVE",
"150 355 CURVE SMOOTH",
"162.667 328.333 OFFCURVE",
"175.333 310.667 OFFCURVE",
"188 302 CURVE SMOOTH",
"201.333 290.667 OFFCURVE",
"212.333 283 OFFCURVE",
"221 279 CURVE",
"240.333 263.667 OFFCURVE",
"254.667 252 OFFCURVE",
"264 244 CURVE",
"292 226 LINE SMOOTH",
"310.667 214 OFFCURVE",
"325 197.667 OFFCURVE",
"325 167 CURVE SMOOTH",
"325 155 OFFCURVE",
"322.333 145 OFFCURVE",
"317 137 CURVE",
"299.667 117 OFFCURVE",
"286 103.333 OFFCURVE",
"276 96 CURVE SMOOTH",
"252 75.333 OFFCURVE",
"224 58.333 OFFCURVE",
"192 45 CURVE SMOOTH",
"170.667 37.667 OFFCURVE",
"154.667 32.667 OFFCURVE",
"144 30 CURVE",
"110.667 14.667 OFFCURVE",
"87.333 2.667 OFFCURVE",
"74 -6 CURVE SMOOTH",
"68 -9.333 OFFCURVE",
"65 -16.333 OFFCURVE",
"65 -27 CURVE SMOOTH",
"65 -44.333 OFFCURVE",
"70 -53 OFFCURVE",
"80 -53 CURVE",
"85 -52 LINE",
"115.667 -36.667 OFFCURVE",
"137.333 -25.667 OFFCURVE",
"150 -19 CURVE",
"200 -4 LINE",
"230 8.667 OFFCURVE",
"260 28.333 OFFCURVE",
"290 55 CURVE SMOOTH",
"314 76.333 OFFCURVE",
"330 94 OFFCURVE",
"338 108 CURVE SMOOTH",
"350 128.667 OFFCURVE",
"356 152 OFFCURVE",
"356 178 CURVE SMOOTH",
"356 204 OFFCURVE",
"350.333 224.667 OFFCURVE",
"339 240 CURVE SMOOTH",
"320.333 264 OFFCURVE",
"300 275.667 OFFCURVE",
"280 289 CURVE SMOOTH",
"264 301.667 OFFCURVE",
"249.667 313.667 OFFCURVE",
"237 325 CURVE",
"207 343 LINE",
"195.667 353.667 OFFCURVE",
"185 369.667 OFFCURVE",
"175 391 CURVE SMOOTH",
"163 416.333 OFFCURVE",
"156 443 OFFCURVE",
"156 455 CURVE SMOOTH",
"156 460.333 OFFCURVE",
"160.667 471.667 OFFCURVE",
"170 489 CURVE",
"192.667 516.333 OFFCURVE",
"209 535.333 OFFCURVE",
"219 546 CURVE SMOOTH",
"251 582.667 OFFCURVE",
"284.667 605.667 OFFCURVE",
"320 615 CURVE SMOOTH",
"336 619 OFFCURVE",
"351 621 OFFCURVE",
"365 621 CURVE SMOOTH",
"375.667 621 OFFCURVE",
"381 631 OFFCURVE",
"381 651 CURVE SMOOTH",
"381 664.333 OFFCURVE",
"377.333 671 OFFCURVE",
"370 671 CURVE SMOOTH"
);
}
);
userData = {
assembly = "NPUSHB[ ]	/* 21 values pushed */\0121 75 75 64 76 2 64 63 67 64 63 52 40 26 12 2 0 38 1 40 70 \012SROUND[ ]	/* SuperRound */\012MDAP[1]	/* MoveDirectAbsPt */\012SHZ[1]	/* ShiftZoneByLastPoint */\012RTG[ ]	/* RoundToGrid */\012SVTCA[0]	/* SetFreedomAndProjectionVectorToAxis */\012MDAP[1]	/* MoveDirectAbsPt */\012MDAP[1]	/* MoveDirectAbsPt */\012SVTCA[1]	/* SetFreedomAndProjectionVectorToAxis */\012MDAP[0]	/* MoveDirectAbsPt */\012MDAP[0]	/* MoveDirectAbsPt */\012MDAP[0]	/* MoveDirectAbsPt */\012MDAP[0]	/* MoveDirectAbsPt */\012MDAP[0]	/* MoveDirectAbsPt */\012MDAP[0]	/* MoveDirectAbsPt */\012MDAP[0]	/* MoveDirectAbsPt */\012MDAP[0]	/* MoveDirectAbsPt */\012SVTCA[0]	/* SetFreedomAndProjectionVectorToAxis */\012MDAP[0]	/* MoveDirectAbsPt */\012MDAP[0]	/* MoveDirectAbsPt */\012IUP[1]	/* InterpolateUntPts */\012IUP[0]	/* InterpolateUntPts */\012SVTCA[1]	/* SetFreedomAndProjectionVectorToAxis */\012MD[0]	/* MeasureDistance */\012ROUND[00]	/* Round */\012PUSHW[ ]	/* 2 values pushed */\01240 75 \012MD[0]	/* MeasureDistance */\012ROUND[00]	/* Round */\012SUB[ ]	/* Subtract */\012PUSHB[ ]	/* 1 value pushed */\01264 \012GT[ ]	/* GreaterThan */\012IF[ ]	/* If */\012SHPIX[ ]	/* ShiftZoneByPixel */\012SRP1[ ]	/* SetRefPoint1 */\012SHZ[1]	/* ShiftZoneByLastPoint */\012PUSHW[ ]	/* 2 values pushed */\01275 -64 \012SHPIX[ ]	/* ShiftZoneByPixel */\012EIF[ ]	/* EndIf */";
};
width = 356;
}
);
note = S;
unicode = 0053;
},
{
glyphname = Germandbls;
lastChange = "2021-11-29 06:54:51 +0000";
layers = (
{
layerId = "2018A826-CC5C-461A-95E5-9D849642E9B7";
paths = (
{
closed = 1;
nodes = (
"313 62 OFFCURVE",
"340 105 OFFCURVE",
"343 140 CURVE SMOOTH",
"345 161 OFFCURVE",
"341 179 OFFCURVE",
"331 193 CURVE",
"306 220 LINE",
"291 245 OFFCURVE",
"266 265 OFFCURVE",
"231 279 CURVE",
"215 283 OFFCURVE",
"203 285 OFFCURVE",
"196 285 CURVE",
"219 301 LINE SMOOTH",
"250 321 OFFCURVE",
"270 335 OFFCURVE",
"279 344 CURVE SMOOTH",
"327 391 OFFCURVE",
"356 442 OFFCURVE",
"356 475 CURVE SMOOTH",
"356 497 OFFCURVE",
"342 515 OFFCURVE",
"315 529 CURVE",
"279 553 OFFCURVE",
"236 565 OFFCURVE",
"186 565 CURVE SMOOTH",
"148 565 OFFCURVE",
"123 554 OFFCURVE",
"112 531 CURVE SMOOTH",
"107 522 OFFCURVE",
"102 494 OFFCURVE",
"96 449 CURVE SMOOTH",
"88 401 OFFCURVE",
"82 367 OFFCURVE",
"77 346 CURVE SMOOTH",
"72 315 OFFCURVE",
"65 282 OFFCURVE",
"55 245 CURVE SMOOTH",
"48 221 OFFCURVE",
"45 206 OFFCURVE",
"44 199 CURVE",
"33 156 OFFCURVE",
"26 128 OFFCURVE",
"21 117 CURVE",
"-25 -35 LINE SMOOTH",
"-46 -94 OFFCURVE",
"-75 -137 OFFCURVE",
"-114 -162 CURVE SMOOTH",
"-119 -165 OFFCURVE",
"-121 -169 OFFCURVE",
"-121 -174 CURVE SMOOTH",
"-121 -184 OFFCURVE",
"-116 -189 OFFCURVE",
"-106 -189 CURVE SMOOTH",
"-103 -189 OFFCURVE",
"-100 -188 OFFCURVE",
"-97 -187 CURVE",
"-33 -145 OFFCURVE",
"24 -18 OFFCURVE",
"75 195 CURVE SMOOTH",
"78 211 OFFCURVE",
"81 224 OFFCURVE",
"84 233 CURVE SMOOTH",
"110 354 OFFCURVE",
"124 425 OFFCURVE",
"126 446 CURVE SMOOTH",
"127 455 OFFCURVE",
"130 473 OFFCURVE",
"135 502 CURVE",
"150 534 OFFCURVE",
"150 535 OFFCURVE",
"186 535 CURVE SMOOTH",
"219 535 OFFCURVE",
"251 527 OFFCURVE",
"283 512 CURVE SMOOTH",
"310 497 OFFCURVE",
"321 483 OFFCURVE",
"317 472 CURVE",
"320 445 OFFCURVE",
"303 415 OFFCURVE",
"265 382 CURVE SMOOTH",
"240 363 OFFCURVE",
"221 349 OFFCURVE",
"209 342 CURVE SMOOTH",
"185 326 OFFCURVE",
"166 314 OFFCURVE",
"152 305 CURVE",
"145 286 OFFCURVE",
"142 273 OFFCURVE",
"143 265 CURVE",
"144 264 LINE",
"145 257 OFFCURVE",
"149 251 OFFCURVE",
"156 248 CURVE SMOOTH",
"159 247 OFFCURVE",
"162 246 OFFCURVE",
"166 245 CURVE",
"173 242 OFFCURVE",
"181 241 OFFCURVE",
"190 241 CURVE SMOOTH",
"199 240 OFFCURVE",
"205 238 OFFCURVE",
"210 235 CURVE",
"223 236 LINE",
"238 229 LINE SMOOTH",
"251 223 OFFCURVE",
"259 218 OFFCURVE",
"264 214 CURVE SMOOTH",
"266 212 OFFCURVE",
"273 203 OFFCURVE",
"285 187 CURVE SMOOTH",
"302 164 OFFCURVE",
"310 149 OFFCURVE",
"309 141 CURVE",
"300 118 OFFCURVE",
"292 102 OFFCURVE",
"285 91 CURVE",
"221 13 LINE",
"200 -8 OFFCURVE",
"166 -19 OFFCURVE",
"121 -19 CURVE",
"107 -21 LINE SMOOTH",
"98 -22 OFFCURVE",
"92 -23 OFFCURVE",
"89 -22 CURVE SMOOTH",
"76 -18 OFFCURVE",
"70 -23 OFFCURVE",
"70 -36 CURVE SMOOTH",
"70 -43 OFFCURVE",
"74 -48 OFFCURVE",
"81 -50 CURVE SMOOTH",
"102 -56 OFFCURVE",
"113 -59 OFFCURVE",
"116 -59 CURVE SMOOTH",
"169 -59 OFFCURVE",
"218 -36 OFFCURVE",
"263 10 CURVE SMOOTH"
);
}
);
width = 353;
}
);
unicode = 1E9E;
},
{
glyphname = Schwa;
lastChange = "2021-11-29 06:54:51 +0000";
layers = (
{
layerId = "2018A826-CC5C-461A-95E5-9D849642E9B7";
paths = (
{
closed = 1;
nodes = (
"465 602 OFFCURVE",
"456 608 OFFCURVE",
"445 612 CURVE",
"415 619 LINE SMOOTH",
"396 623 OFFCURVE",
"364 621 OFFCURVE",
"317 614 CURVE SMOOTH",
"273 607 OFFCURVE",
"204 591 OFFCURVE",
"167 572 CURVE SMOOTH",
"145 561 OFFCURVE",
"123 547 OFFCURVE",
"100 530 CURVE",
"92 526 OFFCURVE",
"88 519 OFFCURVE",
"88 509 CURVE SMOOTH",
"88 494 OFFCURVE",
"93 487 OFFCURVE",
"102 487 CURVE SMOOTH",
"106 487 OFFCURVE",
"117 493 OFFCURVE",
"135 506 CURVE SMOOTH",
"155 521 OFFCURVE",
"168 529 OFFCURVE",
"174 532 CURVE",
"205 543 OFFCURVE",
"228 550 OFFCURVE",
"241 553 CURVE SMOOTH",
"276 560 OFFCURVE",
"302 565 OFFCURVE",
"317 567 CURVE SMOOTH",
"380 576 LINE",
"389 576 OFFCURVE",
"399 575 OFFCURVE",
"409 572 CURVE",
"409 577 LINE",
"410 572 LINE",
"427 572 OFFCURVE",
"443 564 OFFCURVE",
"458 549 CURVE SMOOTH",
"469 538 OFFCURVE",
"478 516 OFFCURVE",
"485 483 CURVE",
"486 471 OFFCURVE",
"484 457 OFFCURVE",
"480 442 CURVE",
"477 421 OFFCURVE",
"470 399 OFFCURVE",
"461 376 CURVE SMOOTH",
"458 370 OFFCURVE",
"455 363 OFFCURVE",
"450 354 CURVE",
"425 356 OFFCURVE",
"348 352 OFFCURVE",
"318 352 CURVE SMOOTH",
"263 352 OFFCURVE",
"224 334 OFFCURVE",
"190 318 CURVE SMOOTH",
"105 277 OFFCURVE",
"66 195 OFFCURVE",
"51 130 CURVE SMOOTH",
"36 66 OFFCURVE",
"53 -3 OFFCURVE",
"60 -20 CURVE",
"61 -20 LINE",
"76 -39 OFFCURVE",
"82 -48 OFFCURVE",
"119 -48 CURVE SMOOTH",
"136 -48 OFFCURVE",
"153 -44 OFFCURVE",
"168 -37 CURVE",
"214 -7 LINE SMOOTH",
"245 14 OFFCURVE",
"282 46 OFFCURVE",
"324 91 CURVE SMOOTH",
"347 115 OFFCURVE",
"372 149 OFFCURVE",
"400 194 CURVE SMOOTH",
"420 226 OFFCURVE",
"437 257 OFFCURVE",
"452 287 CURVE",
"454 289 LINE",
"459 302 OFFCURVE",
"463 310 OFFCURVE",
"466 312 CURVE",
"498 380 LINE SMOOTH",
"510 406 OFFCURVE",
"515 435 OFFCURVE",
"515 464 CURVE SMOOTH",
"516 520 OFFCURVE",
"502 563 OFFCURVE",
"473 593 CURVE SMOOTH"
);
},
{
closed = 1;
nodes = (
"355 187 OFFCURVE",
"331 156 OFFCURVE",
"306 129 CURVE SMOOTH",
"276 96 OFFCURVE",
"244 68 OFFCURVE",
"211 47 CURVE SMOOTH",
"180 24 OFFCURVE",
"149 -2 OFFCURVE",
"122 -2 CURVE SMOOTH",
"98 -2 OFFCURVE",
"86 25 OFFCURVE",
"86 49 CURVE SMOOTH",
"86 129 OFFCURVE",
"108 179 OFFCURVE",
"133 224 CURVE SMOOTH",
"140 237 OFFCURVE",
"179 273 OFFCURVE",
"233 297 CURVE SMOOTH",
"251 305 OFFCURVE",
"271 307 OFFCURVE",
"292 313 CURVE SMOOTH",
"337 326 OFFCURVE",
"398 317 OFFCURVE",
"427 308 CURVE",
"405 269 OFFCURVE",
"389 240 OFFCURVE",
"378 224 CURVE SMOOTH"
);
}
);
width = 518;
}
);
unicode = 018F;
},
{
glyphname = T;
lastChange = "2021-11-29 06:54:51 +0000";
layers = (
{
layerId = "2018A826-CC5C-461A-95E5-9D849642E9B7";
paths = (
{
closed = 1;
nodes = (
"419.333 574 OFFCURVE",
"400 572.833 OFFCURVE",
"372 570.5 CURVE SMOOTH",
"344 568.167 OFFCURVE",
"326.333 567 OFFCURVE",
"319 567 CURVE SMOOTH",
"205 570 LINE SMOOTH",
"182.333 570.667 OFFCURVE",
"158 571 OFFCURVE",
"132 571 CURVE SMOOTH",
"125.333 571 OFFCURVE",
"117 570.667 OFFCURVE",
"107 570 CURVE SMOOTH",
"84 569 LINE SMOOTH",
"74.667 569 OFFCURVE",
"61.667 568.167 OFFCURVE",
"45 566.5 CURVE SMOOTH",
"28.333 564.833 OFFCURVE",
"15 564 OFFCURVE",
"5 564 CURVE SMOOTH",
"-7.667 564 OFFCURVE",
"-14 554 OFFCURVE",
"-14 534 CURVE SMOOTH",
"-14 505.195 OFFCURVE",
"43.19 512 OFFCURVE",
"78 512 CURVE SMOOTH",
"84 512 OFFCURVE",
"92 513.5 OFFCURVE",
"102 516.5 CURVE SMOOTH",
"112 519.5 OFFCURVE",
"120 521 OFFCURVE",
"126 521 CURVE SMOOTH",
"200 521 LINE",
"192.667 472.333 OFFCURVE",
"186.333 432 OFFCURVE",
"181 400 CURVE",
"147 264 LINE SMOOTH",
"139.667 235.333 OFFCURVE",
"133.667 207.667 OFFCURVE",
"129 181 CURVE SMOOTH",
"113.667 93 OFFCURVE",
"105.667 31 OFFCURVE",
"105 -5 CURVE SMOOTH",
"103 -27.667 OFFCURVE",
"101 -44.667 OFFCURVE",
"99 -56 CURVE SMOOTH",
"97.667 -72 OFFCURVE",
"102 -80 OFFCURVE",
"112 -80 CURVE SMOOTH",
"124 -80 OFFCURVE",
"131.333 -70.667 OFFCURVE",
"134 -52 CURVE SMOOTH",
"138 -26.667 OFFCURVE",
"141.333 -7.667 OFFCURVE",
"144 5 CURVE SMOOTH",
"144.667 11.667 OFFCURVE",
"144.667 29.333 OFFCURVE",
"144 58 CURVE SMOOTH",
"143.333 79.333 OFFCURVE",
"144.667 96.667 OFFCURVE",
"148 110 CURVE SMOOTH",
"153.333 140 OFFCURVE",
"157 162 OFFCURVE",
"159 176 CURVE",
"168.333 214.667 OFFCURVE",
"175.333 242.667 OFFCURVE",
"180 260 CURVE SMOOTH",
"193.333 322.667 OFFCURVE",
"203.667 368.667 OFFCURVE",
"211 398 CURVE SMOOTH",
"220.333 440 OFFCURVE",
"228 481 OFFCURVE",
"234 521 CURVE",
"260.667 521 OFFCURVE",
"287.667 522.333 OFFCURVE",
"315 525 CURVE SMOOTH",
"308.333 524.333 OFFCURVE",
"344.333 524 OFFCURVE",
"423 524 CURVE SMOOTH",
"435.667 524 OFFCURVE",
"442 534.333 OFFCURVE",
"442 555 CURVE SMOOTH",
"442 567.667 OFFCURVE",
"438 574 OFFCURVE",
"430 574 CURVE SMOOTH"
);
}
);
userData = {
assembly = "NPUSHB[ ]	/* 24 values pushed */\0121 57 57 64 58 2 54 51 39 36 35 6 4 43 35 26 20 18 2 0 24 1 43 70 \012SROUND[ ]	/* SuperRound */\012MDAP[1]	/* MoveDirectAbsPt */\012SHZ[1]	/* ShiftZoneByLastPoint */\012RTG[ ]	/* RoundToGrid */\012SVTCA[0]	/* SetFreedomAndProjectionVectorToAxis */\012MDAP[1]	/* MoveDirectAbsPt */\012MDAP[1]	/* MoveDirectAbsPt */\012SVTCA[1]	/* SetFreedomAndProjectionVectorToAxis */\012MDAP[0]	/* MoveDirectAbsPt */\012MDAP[0]	/* MoveDirectAbsPt */\012MDAP[0]	/* MoveDirectAbsPt */\012MDAP[0]	/* MoveDirectAbsPt */\012MDAP[0]	/* MoveDirectAbsPt */\012MDAP[0]	/* MoveDirectAbsPt */\012SVTCA[0]	/* SetFreedomAndProjectionVectorToAxis */\012MDAP[0]	/* MoveDirectAbsPt */\012MDAP[0]	/* MoveDirectAbsPt */\012MDAP[0]	/* MoveDirectAbsPt */\012MDAP[0]	/* MoveDirectAbsPt */\012MDAP[0]	/* MoveDirectAbsPt */\012MDAP[0]	/* MoveDirectAbsPt */\012MDAP[0]	/* MoveDirectAbsPt */\012IUP[1]	/* InterpolateUntPts */\012IUP[0]	/* InterpolateUntPts */\012SVTCA[1]	/* SetFreedomAndProjectionVectorToAxis */\012MD[0]	/* MeasureDistance */\012ROUND[00]	/* Round */\012PUSHW[ ]	/* 2 values pushed */\01243 57 \012MD[0]	/* MeasureDistance */\012ROUND[00]	/* Round */\012SUB[ ]	/* Subtract */\012PUSHB[ ]	/* 1 value pushed */\01264 \012GT[ ]	/* GreaterThan */\012IF[ ]	/* If */\012SHPIX[ ]	/* ShiftZoneByPixel */\012SRP1[ ]	/* SetRefPoint1 */\012SHZ[1]	/* ShiftZoneByLastPoint */\012PUSHW[ ]	/* 2 values pushed */\01257 -64 \012SHPIX[ ]	/* ShiftZoneByPixel */\012EIF[ ]	/* EndIf */";
};
width = 316;
}
);
note = T;
unicode = 0054;
},
{
glyphname = U;
lastChange = "2021-11-29 06:54:51 +0000";
layers = (
{
layerId = "2018A826-CC5C-461A-95E5-9D849642E9B7";
paths = (
{
closed = 1;
nodes = (
"435.667 549.333 OFFCURVE",
"430.667 559 OFFCURVE",
"418 559 CURVE SMOOTH",
"406.667 559 OFFCURVE",
"400.333 550 OFFCURVE",
"399 532 CURVE SMOOTH",
"391 459 LINE SMOOTH",
"380.333 373.667 OFFCURVE",
"367.333 303 OFFCURVE",
"352 247 CURVE SMOOTH",
"322 142 LINE SMOOTH",
"308.667 84.667 OFFCURVE",
"247.333 23.333 OFFCURVE",
"210 22 CURVE SMOOTH",
"144.667 19.333 OFFCURVE",
"123.333 55.667 OFFCURVE",
"110 153 CURVE SMOOTH",
"106.667 177 OFFCURVE",
"106 203.333 OFFCURVE",
"108 232 CURVE SMOOTH",
"114 319 LINE SMOOTH",
"118 393.667 OFFCURVE",
"121.333 443.333 OFFCURVE",
"124 468 CURVE SMOOTH",
"133 539 LINE SMOOTH",
"135.667 559 OFFCURVE",
"130.667 569 OFFCURVE",
"118 569 CURVE SMOOTH",
"107.333 569 OFFCURVE",
"101 560.667 OFFCURVE",
"99 544 CURVE SMOOTH",
"91 470 LINE SMOOTH",
"85.667 398 OFFCURVE",
"82.333 346.833 OFFCURVE",
"81 316.5 CURVE SMOOTH",
"79.667 286.167 OFFCURVE",
"78 256.667 OFFCURVE",
"76 228 CURVE SMOOTH",
"74.667 196.667 OFFCURVE",
"76 167.333 OFFCURVE",
"80 140 CURVE SMOOTH",
"88.667 77.333 OFFCURVE",
"100 35.667 OFFCURVE",
"114 15 CURVE SMOOTH",
"135.333 -16.333 OFFCURVE",
"166.667 -30.333 OFFCURVE",
"208 -27 CURVE SMOOTH",
"232.667 -25 OFFCURVE",
"257 -13 OFFCURVE",
"281 9 CURVE SMOOTH",
"310.333 35.667 OFFCURVE",
"333.667 74.333 OFFCURVE",
"351 125 CURVE SMOOTH",
"364.333 164.333 OFFCURVE",
"375.333 201 OFFCURVE",
"384 235 CURVE SMOOTH",
"401.333 304.333 OFFCURVE",
"414.667 378.667 OFFCURVE",
"424 458 CURVE SMOOTH",
"433 530 LINE SMOOTH"
);
}
);
userData = {
assembly = "NPUSHB[ ]	/* 18 values pushed */\0121 48 48 64 49 0 46 35 30 24 15 0 22 9 1 1 15 70 \012SROUND[ ]	/* SuperRound */\012MDAP[1]	/* MoveDirectAbsPt */\012SHZ[1]	/* ShiftZoneByLastPoint */\012RTG[ ]	/* RoundToGrid */\012SVTCA[0]	/* SetFreedomAndProjectionVectorToAxis */\012MIAP[1]	/* MoveIndirectAbsPt */\012MDAP[1]	/* MoveDirectAbsPt */\012SVTCA[1]	/* SetFreedomAndProjectionVectorToAxis */\012MDAP[0]	/* MoveDirectAbsPt */\012MDAP[0]	/* MoveDirectAbsPt */\012MDAP[0]	/* MoveDirectAbsPt */\012MDAP[0]	/* MoveDirectAbsPt */\012SVTCA[0]	/* SetFreedomAndProjectionVectorToAxis */\012MDAP[0]	/* MoveDirectAbsPt */\012MDAP[0]	/* MoveDirectAbsPt */\012IUP[1]	/* InterpolateUntPts */\012IUP[0]	/* InterpolateUntPts */\012SVTCA[1]	/* SetFreedomAndProjectionVectorToAxis */\012MD[0]	/* MeasureDistance */\012ROUND[00]	/* Round */\012PUSHW[ ]	/* 2 values pushed */\01215 48 \012MD[0]	/* MeasureDistance */\012ROUND[00]	/* Round */\012SUB[ ]	/* Subtract */\012PUSHB[ ]	/* 1 value pushed */\01264 \012GT[ ]	/* GreaterThan */\012IF[ ]	/* If */\012SHPIX[ ]	/* ShiftZoneByPixel */\012SRP1[ ]	/* SetRefPoint1 */\012SHZ[1]	/* ShiftZoneByLastPoint */\012PUSHW[ ]	/* 2 values pushed */\01248 -64 \012SHPIX[ ]	/* ShiftZoneByPixel */\012EIF[ ]	/* EndIf */";
};
width = 454;
}
);
note = U;
unicode = 0055;
},
{
glyphname = V;
lastChange = "2021-11-29 06:54:51 +0000";
layers = (
{
layerId = "2018A826-CC5C-461A-95E5-9D849642E9B7";
paths = (
{
closed = 1;
nodes = (
"498.667 590 OFFCURVE",
"500 595.667 OFFCURVE",
"500 601 CURVE SMOOTH",
"500 615.667 OFFCURVE",
"495.333 623 OFFCURVE",
"486 623 CURVE SMOOTH",
"480 623 OFFCURVE",
"475 618.333 OFFCURVE",
"471 609 CURVE SMOOTH",
"438.333 542.333 OFFCURVE",
"413.667 492.667 OFFCURVE",
"397 460 CURVE SMOOTH",
"344 350 LINE",
"322.667 292 OFFCURVE",
"307.667 249.333 OFFCURVE",
"299 222 CURVE",
"269.667 148.667 OFFCURVE",
"228 79.333 OFFCURVE",
"212 54 CURVE",
"208.667 42.667 OFFCURVE",
"205 34.667 OFFCURVE",
"201 30 CURVE",
"201 39 LINE",
"191 85.667 OFFCURVE",
"184 124.333 OFFCURVE",
"180 155 CURVE SMOOTH",
"167.333 237 OFFCURVE",
"157.667 295.667 OFFCURVE",
"151 331 CURVE SMOOTH",
"127 476 LINE SMOOTH",
"113 542.667 OFFCURVE",
"104.667 584 OFFCURVE",
"102 600 CURVE",
"101 600 LINE",
"99.667 609.333 OFFCURVE",
"95.667 614 OFFCURVE",
"89 614 CURVE SMOOTH",
"78.333 614 OFFCURVE",
"67 597.333 OFFCURVE",
"71 576 CURVE",
"73 576 LINE",
"77 544 OFFCURVE",
"79.667 520 OFFCURVE",
"81 504 CURVE",
"96 457 LINE",
"107.333 391 OFFCURVE",
"115 343.333 OFFCURVE",
"119 314 CURVE SMOOTH",
"141 186 OFFCURVE",
"158 90 OFFCURVE",
"170 26 CURVE",
"169 25 LINE",
"173 -1.667 OFFCURVE",
"176 -19.333 OFFCURVE",
"178 -28 CURVE SMOOTH",
"180.667 -40.667 OFFCURVE",
"185 -47 OFFCURVE",
"191 -47 CURVE SMOOTH",
"196.333 -47 OFFCURVE",
"201 -43 OFFCURVE",
"205 -35 CURVE SMOOTH",
"235 19.667 OFFCURVE",
"258 60.667 OFFCURVE",
"274 88 CURVE SMOOTH",
"302 144 OFFCURVE",
"320 181.333 OFFCURVE",
"328 200 CURVE SMOOTH",
"348 251.333 OFFCURVE",
"364 294.333 OFFCURVE",
"376 329 CURVE SMOOTH",
"390.667 365.667 OFFCURVE",
"406.333 400.333 OFFCURVE",
"423 433 CURVE SMOOTH",
"445 475.667 OFFCURVE",
"461 508 OFFCURVE",
"471 530 CURVE SMOOTH",
"496 584 LINE SMOOTH"
);
}
);
userData = {
assembly = "NPUSHB[ ]	/* 23 values pushed */\0121 62 62 64 63 59 44 34 33 31 28 27 59 44 42 28 19 18 57 14 1 28 70 \012SROUND[ ]	/* SuperRound */\012MDAP[1]	/* MoveDirectAbsPt */\012SHZ[1]	/* ShiftZoneByLastPoint */\012RTG[ ]	/* RoundToGrid */\012SVTCA[0]	/* SetFreedomAndProjectionVectorToAxis */\012MDAP[1]	/* MoveDirectAbsPt */\012MDAP[1]	/* MoveDirectAbsPt */\012SVTCA[1]	/* SetFreedomAndProjectionVectorToAxis */\012MDAP[0]	/* MoveDirectAbsPt */\012MDAP[0]	/* MoveDirectAbsPt */\012MDAP[0]	/* MoveDirectAbsPt */\012MDAP[0]	/* MoveDirectAbsPt */\012MDAP[0]	/* MoveDirectAbsPt */\012MDAP[0]	/* MoveDirectAbsPt */\012SVTCA[0]	/* SetFreedomAndProjectionVectorToAxis */\012MDAP[0]	/* MoveDirectAbsPt */\012MDAP[0]	/* MoveDirectAbsPt */\012MDAP[0]	/* MoveDirectAbsPt */\012MDAP[0]	/* MoveDirectAbsPt */\012MDAP[0]	/* MoveDirectAbsPt */\012MDAP[0]	/* MoveDirectAbsPt */\012IUP[1]	/* InterpolateUntPts */\012IUP[0]	/* InterpolateUntPts */\012SVTCA[1]	/* SetFreedomAndProjectionVectorToAxis */\012MD[0]	/* MeasureDistance */\012ROUND[00]	/* Round */\012PUSHW[ ]	/* 2 values pushed */\01228 62 \012MD[0]	/* MeasureDistance */\012ROUND[00]	/* Round */\012SUB[ ]	/* Subtract */\012PUSHB[ ]	/* 1 value pushed */\01264 \012GT[ ]	/* GreaterThan */\012IF[ ]	/* If */\012SHPIX[ ]	/* ShiftZoneByPixel */\012SRP1[ ]	/* SetRefPoint1 */\012SHZ[1]	/* ShiftZoneByLastPoint */\012PUSHW[ ]	/* 2 values pushed */\01262 -64 \012SHPIX[ ]	/* ShiftZoneByPixel */\012EIF[ ]	/* EndIf */";
};
width = 439;
}
);
note = V;
unicode = 0056;
},
{
glyphname = W;
lastChange = "2021-11-29 06:54:51 +0000";
layers = (
{
layerId = "2018A826-CC5C-461A-95E5-9D849642E9B7";
paths = (
{
closed = 1;
nodes = (
"716.667 590 OFFCURVE",
"718 595.667 OFFCURVE",
"718 601 CURVE SMOOTH",
"718 615.667 OFFCURVE",
"713.333 623 OFFCURVE",
"704 623 CURVE SMOOTH",
"698 623 OFFCURVE",
"693 618.333 OFFCURVE",
"689 609 CURVE SMOOTH",
"664 556 LINE SMOOTH",
"642 512 OFFCURVE",
"625.667 480 OFFCURVE",
"615 460 CURVE SMOOTH",
"587 404.667 OFFCURVE",
"569.333 368.333 OFFCURVE",
"562 351 CURVE SMOOTH",
"541.333 293 OFFCURVE",
"527 250 OFFCURVE",
"519 222 CURVE",
"495.667 172.667 OFFCURVE",
"478.333 137.667 OFFCURVE",
"467 117 CURVE SMOOTH",
"450.333 87 OFFCURVE",
"438 65.333 OFFCURVE",
"430 52 CURVE SMOOTH",
"420 32 LINE",
"420 39 LINE",
"400 155 LINE",
"372 314 LINE",
"424 433 LINE",
"446.667 478.333 OFFCURVE",
"462.333 510.667 OFFCURVE",
"471 530 CURVE SMOOTH",
"496 584 LINE SMOOTH",
"498.667 590 OFFCURVE",
"500 595.667 OFFCURVE",
"500 601 CURVE SMOOTH",
"500 615.667 OFFCURVE",
"495.333 623 OFFCURVE",
"486 623 CURVE SMOOTH",
"480 623 OFFCURVE",
"475 618.333 OFFCURVE",
"471 609 CURVE SMOOTH",
"463 592.333 OFFCURVE",
"450.667 567.5 OFFCURVE",
"434 534.5 CURVE SMOOTH",
"397 460 LINE SMOOTH",
"383 431.333 OFFCURVE",
"370.667 406.667 OFFCURVE",
"360 386 CURVE",
"344 475 LINE SMOOTH",
"336 512.333 OFFCURVE",
"328 554 OFFCURVE",
"320 600 CURVE SMOOTH",
"318 609.333 OFFCURVE",
"314 614 OFFCURVE",
"308 614 CURVE SMOOTH",
"296 614 OFFCURVE",
"285.333 598.333 OFFCURVE",
"288 581 CURVE SMOOTH",
"292.667 546.333 OFFCURVE",
"296 520.667 OFFCURVE",
"298 504 CURVE",
"314 457 LINE",
"324.667 396.333 OFFCURVE",
"332 352.667 OFFCURVE",
"336 326 CURVE",
"318.667 278 OFFCURVE",
"306.333 243 OFFCURVE",
"299 221 CURVE SMOOTH",
"280.333 175 OFFCURVE",
"264.333 140.333 OFFCURVE",
"251 117 CURVE SMOOTH",
"212 54 LINE",
"208.667 42.667 OFFCURVE",
"205 34.667 OFFCURVE",
"201 30 CURVE",
"201 39 LINE",
"191 85.667 OFFCURVE",
"184 124.333 OFFCURVE",
"180 155 CURVE SMOOTH",
"167.333 237 OFFCURVE",
"157.667 295.667 OFFCURVE",
"151 331 CURVE SMOOTH",
"136.333 421 OFFCURVE",
"128.333 469.333 OFFCURVE",
"127 476 CURVE SMOOTH",
"102 600 LINE SMOOTH",
"100 609.333 OFFCURVE",
"96 614 OFFCURVE",
"90 614 CURVE SMOOTH",
"78 614 OFFCURVE",
"67 597.333 OFFCURVE",
"71 576 CURVE",
"73 576 LINE",
"77 544 OFFCURVE",
"79.667 520 OFFCURVE",
"81 504 CURVE",
"96 457 LINE",
"107.333 391 OFFCURVE",
"115 343.333 OFFCURVE",
"119 314 CURVE SMOOTH",
"141 186 OFFCURVE",
"158 90 OFFCURVE",
"170 26 CURVE",
"169 25 LINE",
"173 -1.667 OFFCURVE",
"176 -19.333 OFFCURVE",
"178 -28 CURVE SMOOTH",
"180.667 -40.667 OFFCURVE",
"185 -47 OFFCURVE",
"191 -47 CURVE SMOOTH",
"196.333 -47 OFFCURVE",
"201 -43 OFFCURVE",
"205 -35 CURVE SMOOTH",
"235 19.667 OFFCURVE",
"258 60.667 OFFCURVE",
"274 88 CURVE SMOOTH",
"292.667 125.333 OFFCURVE",
"310 162.667 OFFCURVE",
"326 200 CURVE SMOOTH",
"349 253 LINE",
"368 139 LINE",
"386.5 22 LINE SMOOTH",
"390.167 -2 OFFCURVE",
"393 -18.667 OFFCURVE",
"395 -28 CURVE",
"396 -28 LINE",
"398 -40 OFFCURVE",
"402.667 -46 OFFCURVE",
"410 -46 CURVE SMOOTH",
"415.333 -46 OFFCURVE",
"420 -42.333 OFFCURVE",
"424 -35 CURVE SMOOTH",
"453.333 19.667 OFFCURVE",
"475.667 60.667 OFFCURVE",
"491 88 CURVE SMOOTH",
"515 134.667 OFFCURVE",
"533 172 OFFCURVE",
"545 200 CURVE SMOOTH",
"585 295.333 OFFCURVE",
"617 373 OFFCURVE",
"641 433 CURVE",
"689 530.5 LINE SMOOTH",
"699.667 551.5 OFFCURVE",
"708 569.333 OFFCURVE",
"714 584 CURVE SMOOTH"
);
}
);
userData = {
assembly = "NPUSHB[ ]	/* 36 values pushed */\0121 119 119 64 120 117 99 78 72 55 43 40 39 18 117 99 98 95 87 69 63 55 53 40 31 30 115 85 11 26 14 13 1 1 40 70 \012SROUND[ ]	/* SuperRound */\012MDAP[1]	/* MoveDirectAbsPt */\012SHZ[1]	/* ShiftZoneByLastPoint */\012RTG[ ]	/* RoundToGrid */\012SVTCA[0]	/* SetFreedomAndProjectionVectorToAxis */\012MIAP[1]	/* MoveIndirectAbsPt */\012ALIGNRP[ ]	/* AlignRelativePt */\012MDAP[1]	/* MoveDirectAbsPt */\012ALIGNRP[ ]	/* AlignRelativePt */\012MDAP[1]	/* MoveDirectAbsPt */\012ALIGNRP[ ]	/* AlignRelativePt */\012SVTCA[1]	/* SetFreedomAndProjectionVectorToAxis */\012MDAP[0]	/* MoveDirectAbsPt */\012MDAP[0]	/* MoveDirectAbsPt */\012MDAP[0]	/* MoveDirectAbsPt */\012MDAP[0]	/* MoveDirectAbsPt */\012MDAP[0]	/* MoveDirectAbsPt */\012MDAP[0]	/* MoveDirectAbsPt */\012MDAP[0]	/* MoveDirectAbsPt */\012MDAP[0]	/* MoveDirectAbsPt */\012MDAP[0]	/* MoveDirectAbsPt */\012MDAP[0]	/* MoveDirectAbsPt */\012MDAP[0]	/* MoveDirectAbsPt */\012MDAP[0]	/* MoveDirectAbsPt */\012SVTCA[0]	/* SetFreedomAndProjectionVectorToAxis */\012MDAP[0]	/* MoveDirectAbsPt */\012MDAP[0]	/* MoveDirectAbsPt */\012MDAP[0]	/* MoveDirectAbsPt */\012MDAP[0]	/* MoveDirectAbsPt */\012MDAP[0]	/* MoveDirectAbsPt */\012MDAP[0]	/* MoveDirectAbsPt */\012MDAP[0]	/* MoveDirectAbsPt */\012MDAP[0]	/* MoveDirectAbsPt */\012IUP[1]	/* InterpolateUntPts */\012IUP[0]	/* InterpolateUntPts */\012SVTCA[1]	/* SetFreedomAndProjectionVectorToAxis */\012MD[0]	/* MeasureDistance */\012ROUND[00]	/* Round */\012PUSHW[ ]	/* 2 values pushed */\01240 119 \012MD[0]	/* MeasureDistance */\012ROUND[00]	/* Round */\012SUB[ ]	/* Subtract */\012PUSHB[ ]	/* 1 value pushed */\01264 \012GT[ ]	/* GreaterThan */\012IF[ ]	/* If */\012SHPIX[ ]	/* ShiftZoneByPixel */\012SRP1[ ]	/* SetRefPoint1 */\012SHZ[1]	/* ShiftZoneByLastPoint */\012PUSHW[ ]	/* 2 values pushed */\012119 -64 \012SHPIX[ ]	/* ShiftZoneByPixel */\012EIF[ ]	/* EndIf */";
};
width = 668;
}
);
note = W;
unicode = 0057;
},
{
glyphname = X;
lastChange = "2021-11-29 06:54:51 +0000";
layers = (
{
layerId = "2018A826-CC5C-461A-95E5-9D849642E9B7";
paths = (
{
closed = 1;
nodes = (
"438 544.333 OFFCURVE",
"474.833 597.167 OFFCURVE",
"478.5 603.5 CURVE SMOOTH",
"482.167 609.833 OFFCURVE",
"484 616.667 OFFCURVE",
"484 624 CURVE SMOOTH",
"484 644 OFFCURVE",
"478.667 654 OFFCURVE",
"468 654 CURVE SMOOTH",
"464 654 OFFCURVE",
"460.333 651.333 OFFCURVE",
"457 646 CURVE SMOOTH",
"439 619.333 OFFCURVE",
"424 596.333 OFFCURVE",
"412 577 CURVE SMOOTH",
"382.667 533.667 OFFCURVE",
"360.667 501.667 OFFCURVE",
"346 481 CURVE SMOOTH",
"315.333 439 OFFCURVE",
"293.667 408.667 OFFCURVE",
"281 390 CURVE",
"279.667 384.667 OFFCURVE",
"278.333 381.667 OFFCURVE",
"277 381 CURVE",
"264.333 406.333 OFFCURVE",
"255 425.667 OFFCURVE",
"249 439 CURVE SMOOTH",
"225.667 486.333 OFFCURVE",
"202.333 523.667 OFFCURVE",
"179 551 CURVE",
"177 551 LINE",
"154.333 572.333 OFFCURVE",
"137.333 587 OFFCURVE",
"126 595 CURVE SMOOTH",
"124 597 OFFCURVE",
"121.667 598 OFFCURVE",
"119 598 CURVE SMOOTH",
"109.667 598 OFFCURVE",
"101 581.667 OFFCURVE",
"101 567 CURVE SMOOTH",
"101 543.264 OFFCURVE",
"138.376 533.985 OFFCURVE",
"158 510 CURVE SMOOTH",
"170 496 OFFCURVE",
"181 480.333 OFFCURVE",
"191 463 CURVE SMOOTH",
"196.333 453.667 OFFCURVE",
"206 434.333 OFFCURVE",
"220 405 CURVE SMOOTH",
"249 344 LINE",
"239.667 331.333 OFFCURVE",
"232.333 321.333 OFFCURVE",
"227 314 CURVE SMOOTH",
"137 192 LINE",
"89.667 120 OFFCURVE",
"53.667 55 OFFCURVE",
"29 -3 CURVE SMOOTH",
"26.333 -9 OFFCURVE",
"25 -15 OFFCURVE",
"25 -21 CURVE SMOOTH",
"25 -35.667 OFFCURVE",
"29.667 -43 OFFCURVE",
"39 -43 CURVE SMOOTH",
"44.333 -43 OFFCURVE",
"49 -39 OFFCURVE",
"53 -31 CURVE SMOOTH",
"90 48 LINE",
"121.333 100 OFFCURVE",
"145 137 OFFCURVE",
"161 159 CURVE SMOOTH",
"189.667 203 OFFCURVE",
"217.667 242.667 OFFCURVE",
"245 278 CURVE SMOOTH",
"265 304 LINE",
"269.667 292.667 OFFCURVE",
"272.333 286.667 OFFCURVE",
"273 286 CURVE",
"313 187 LINE SMOOTH",
"315 181 OFFCURVE",
"318.667 166.333 OFFCURVE",
"324 143 CURVE SMOOTH",
"328 124.333 OFFCURVE",
"332.667 108.667 OFFCURVE",
"338 96 CURVE SMOOTH",
"358 48 OFFCURVE",
"369.667 21.333 OFFCURVE",
"373 16 CURVE SMOOTH",
"399 -18.5 LINE SMOOTH",
"403 -23.5 OFFCURVE",
"407.333 -26 OFFCURVE",
"412 -26 CURVE SMOOTH",
"426 -26 OFFCURVE",
"433 -17 OFFCURVE",
"433 1 CURVE SMOOTH",
"433 4.333 OFFCURVE",
"432.333 7.667 OFFCURVE",
"431 11 CURVE SMOOTH",
"406.333 57 OFFCURVE",
"384.667 96 OFFCURVE",
"366 128 CURVE",
"354 163.333 OFFCURVE",
"346 191 OFFCURVE",
"342 211 CURVE",
"324 259.667 OFFCURVE",
"310.667 294 OFFCURVE",
"302 314 CURVE SMOOTH",
"298.667 322.667 OFFCURVE",
"296 330.667 OFFCURVE",
"294 338 CURVE",
"298 344 OFFCURVE",
"301.333 348.333 OFFCURVE",
"304 351 CURVE",
"304 353 LINE",
"368 445 LINE SMOOTH"
);
}
);
userData = {
assembly = "NPUSHB[ ]	/* 27 values pushed */\0121 87 87 64 88 85 73 69 68 64 31 85 61 51 43 16 6 4 3 83 41 1 18 1 1 43 70 \012SROUND[ ]	/* SuperRound */\012MDAP[1]	/* MoveDirectAbsPt */\012SHZ[1]	/* ShiftZoneByLastPoint */\012RTG[ ]	/* RoundToGrid */\012SVTCA[0]	/* SetFreedomAndProjectionVectorToAxis */\012MIAP[1]	/* MoveIndirectAbsPt */\012MIAP[1]	/* MoveIndirectAbsPt */\012MDAP[1]	/* MoveDirectAbsPt */\012SVTCA[1]	/* SetFreedomAndProjectionVectorToAxis */\012MDAP[0]	/* MoveDirectAbsPt */\012MDAP[0]	/* MoveDirectAbsPt */\012MDAP[0]	/* MoveDirectAbsPt */\012MDAP[0]	/* MoveDirectAbsPt */\012MDAP[0]	/* MoveDirectAbsPt */\012MDAP[0]	/* MoveDirectAbsPt */\012MDAP[0]	/* MoveDirectAbsPt */\012MDAP[0]	/* MoveDirectAbsPt */\012SVTCA[0]	/* SetFreedomAndProjectionVectorToAxis */\012MDAP[0]	/* MoveDirectAbsPt */\012MDAP[0]	/* MoveDirectAbsPt */\012MDAP[0]	/* MoveDirectAbsPt */\012MDAP[0]	/* MoveDirectAbsPt */\012MDAP[0]	/* MoveDirectAbsPt */\012IUP[1]	/* InterpolateUntPts */\012IUP[0]	/* InterpolateUntPts */\012SVTCA[1]	/* SetFreedomAndProjectionVectorToAxis */\012MD[0]	/* MeasureDistance */\012ROUND[00]	/* Round */\012PUSHW[ ]	/* 2 values pushed */\01243 87 \012MD[0]	/* MeasureDistance */\012ROUND[00]	/* Round */\012SUB[ ]	/* Subtract */\012PUSHB[ ]	/* 1 value pushed */\01264 \012GT[ ]	/* GreaterThan */\012IF[ ]	/* If */\012SHPIX[ ]	/* ShiftZoneByPixel */\012SRP1[ ]	/* SetRefPoint1 */\012SHZ[1]	/* ShiftZoneByLastPoint */\012PUSHW[ ]	/* 2 values pushed */\01287 -64 \012SHPIX[ ]	/* ShiftZoneByPixel */\012EIF[ ]	/* EndIf */";
};
width = 468;
}
);
note = X;
unicode = 0058;
},
{
glyphname = Y;
lastChange = "2021-11-29 06:54:51 +0000";
layers = (
{
layerId = "2018A826-CC5C-461A-95E5-9D849642E9B7";
paths = (
{
closed = 1;
nodes = (
"467.333 620 OFFCURVE",
"469 624.333 OFFCURVE",
"469 629 CURVE SMOOTH",
"469 645 OFFCURVE",
"453 661 OFFCURVE",
"441 661 CURVE SMOOTH",
"436.333 661 OFFCURVE",
"432.667 659.333 OFFCURVE",
"430 656 CURVE SMOOTH",
"392 613.333 OFFCURVE",
"357 563.333 OFFCURVE",
"325 506 CURVE SMOOTH",
"242 344 LINE SMOOTH",
"209.333 286 OFFCURVE",
"185.667 244.667 OFFCURVE",
"171 220 CURVE",
"169 218 OFFCURVE",
"167.333 217 OFFCURVE",
"166 217 CURVE SMOOTH",
"152.667 217 OFFCURVE",
"137.333 270.333 OFFCURVE",
"120 377 CURVE SMOOTH",
"106.667 462.333 OFFCURVE",
"98.333 530.333 OFFCURVE",
"95 581 CURVE",
"93 589.667 OFFCURVE",
"90 594 OFFCURVE",
"86 594 CURVE SMOOTH",
"78.667 594 OFFCURVE",
"70.333 582.333 OFFCURVE",
"61 559 CURVE",
"131 160 LINE",
"70.333 36.667 OFFCURVE",
"33.667 -56 OFFCURVE",
"21 -118 CURVE",
"19.667 -139.333 OFFCURVE",
"25 -150 OFFCURVE",
"37 -150 CURVE SMOOTH",
"45.667 -150 OFFCURVE",
"51 -142 OFFCURVE",
"53 -126 CURVE",
"70.333 -52 OFFCURVE",
"102 28.667 OFFCURVE",
"148 116 CURVE",
"160 114.667 OFFCURVE",
"174.333 131.667 OFFCURVE",
"169 149 CURVE",
"169 151 LINE",
"178.333 167 OFFCURVE",
"186.667 179.667 OFFCURVE",
"194 189 CURVE",
"216 227 OFFCURVE",
"239.333 268.333 OFFCURVE",
"264 313 CURVE SMOOTH",
"327.333 429 OFFCURVE",
"394 530 OFFCURVE",
"464 616 CURVE SMOOTH"
);
}
);
userData = {
assembly = "NPUSHB[ ]	/* 23 values pushed */\0121 44 44 64 45 42 29 23 13 12 42 21 19 17 13 12 7 6 39 15 1 17 70 \012SROUND[ ]	/* SuperRound */\012MDAP[1]	/* MoveDirectAbsPt */\012SHZ[1]	/* ShiftZoneByLastPoint */\012RTG[ ]	/* RoundToGrid */\012SVTCA[0]	/* SetFreedomAndProjectionVectorToAxis */\012MDAP[1]	/* MoveDirectAbsPt */\012MDAP[1]	/* MoveDirectAbsPt */\012SVTCA[1]	/* SetFreedomAndProjectionVectorToAxis */\012MDAP[0]	/* MoveDirectAbsPt */\012MDAP[0]	/* MoveDirectAbsPt */\012MDAP[0]	/* MoveDirectAbsPt */\012MDAP[0]	/* MoveDirectAbsPt */\012MDAP[0]	/* MoveDirectAbsPt */\012MDAP[0]	/* MoveDirectAbsPt */\012MDAP[0]	/* MoveDirectAbsPt */\012MDAP[0]	/* MoveDirectAbsPt */\012SVTCA[0]	/* SetFreedomAndProjectionVectorToAxis */\012MDAP[0]	/* MoveDirectAbsPt */\012MDAP[0]	/* MoveDirectAbsPt */\012MDAP[0]	/* MoveDirectAbsPt */\012MDAP[0]	/* MoveDirectAbsPt */\012IUP[1]	/* InterpolateUntPts */\012IUP[0]	/* InterpolateUntPts */\012SVTCA[1]	/* SetFreedomAndProjectionVectorToAxis */\012MD[0]	/* MeasureDistance */\012ROUND[00]	/* Round */\012PUSHW[ ]	/* 2 values pushed */\01217 44 \012MD[0]	/* MeasureDistance */\012ROUND[00]	/* Round */\012SUB[ ]	/* Subtract */\012PUSHB[ ]	/* 1 value pushed */\01264 \012GT[ ]	/* GreaterThan */\012IF[ ]	/* If */\012SHPIX[ ]	/* ShiftZoneByPixel */\012SRP1[ ]	/* SetRefPoint1 */\012SHZ[1]	/* ShiftZoneByLastPoint */\012PUSHW[ ]	/* 2 values pushed */\01244 -64 \012SHPIX[ ]	/* ShiftZoneByPixel */\012EIF[ ]	/* EndIf */";
};
width = 340;
}
);
note = Y;
unicode = 0059;
},
{
glyphname = Z;
lastChange = "2021-11-29 06:54:51 +0000";
layers = (
{
layerId = "2018A826-CC5C-461A-95E5-9D849642E9B7";
paths = (
{
closed = 1;
nodes = (
"469.333 578 OFFCURVE",
"471 584 OFFCURVE",
"471 592 CURVE SMOOTH",
"471 608.667 OFFCURVE",
"466.333 616.667 OFFCURVE",
"457 616 CURVE SMOOTH",
"445 615.333 OFFCURVE",
"426.667 615 OFFCURVE",
"402 615 CURVE SMOOTH",
"329 615 LINE SMOOTH",
"321 615 OFFCURVE",
"310 616 OFFCURVE",
"296 618 CURVE SMOOTH",
"282 620 OFFCURVE",
"270.333 621 OFFCURVE",
"261 621 CURVE SMOOTH",
"251.667 621 OFFCURVE",
"241.667 619 OFFCURVE",
"231 615 CURVE SMOOTH",
"217 609 OFFCURVE",
"207.333 605.667 OFFCURVE",
"202 605 CURVE SMOOTH",
"203 605 LINE SMOOTH",
"193.667 603 OFFCURVE",
"189 594.667 OFFCURVE",
"189 580 CURVE SMOOTH",
"189 564 OFFCURVE",
"194 556 OFFCURVE",
"204 556 CURVE",
"208.667 557.333 OFFCURVE",
"218.333 561 OFFCURVE",
"233 567 CURVE SMOOTH",
"242.333 571 OFFCURVE",
"250.667 573 OFFCURVE",
"258 573 CURVE SMOOTH",
"266 573 OFFCURVE",
"277 571.667 OFFCURVE",
"291 569 CURVE SMOOTH",
"305 566.333 OFFCURVE",
"316.667 565 OFFCURVE",
"326 565 CURVE SMOOTH",
"408 565 LINE",
"378.667 529 OFFCURVE",
"361.667 509.333 OFFCURVE",
"357 506 CURVE",
"242 349 LINE",
"208 295.667 OFFCURVE",
"183.667 254.667 OFFCURVE",
"169 226 CURVE",
"165 220 OFFCURVE",
"156 208.667 OFFCURVE",
"142 192 CURVE SMOOTH",
"128 175.333 OFFCURVE",
"117.333 161.333 OFFCURVE",
"110 150 CURVE SMOOTH",
"68 82 OFFCURVE",
"42 39 OFFCURVE",
"32 21 CURVE SMOOTH",
"30 17 OFFCURVE",
"29 12.667 OFFCURVE",
"29 8 CURVE SMOOTH",
"29 -10 OFFCURVE",
"34.333 -19 OFFCURVE",
"45 -19 CURVE SMOOTH",
"49.667 -19 OFFCURVE",
"55.667 -19.333 OFFCURVE",
"63 -20 CURVE SMOOTH",
"83 -21 LINE SMOOTH",
"99.307 -21 OFFCURVE",
"178.832 -15.494 OFFCURVE",
"204 -11 CURVE SMOOTH",
"220.667 -8.333 OFFCURVE",
"234.333 -7 OFFCURVE",
"245 -7 CURVE SMOOTH",
"253 -7 OFFCURVE",
"262.833 -6 OFFCURVE",
"274.5 -4 CURVE SMOOTH",
"286.167 -2 OFFCURVE",
"294.333 -1 OFFCURVE",
"299 -1 CURVE SMOOTH",
"306.333 -1 OFFCURVE",
"313 -2.333 OFFCURVE",
"319 -5 CURVE SMOOTH",
"321.667 -6.333 OFFCURVE",
"327.167 -10.333 OFFCURVE",
"335.5 -17 CURVE SMOOTH",
"343.833 -23.667 OFFCURVE",
"349.667 -27 OFFCURVE",
"353 -27 CURVE SMOOTH",
"364.333 -27 OFFCURVE",
"370 -16.667 OFFCURVE",
"370 4 CURVE SMOOTH",
"370 12 OFFCURVE",
"368 17.667 OFFCURVE",
"364 21 CURVE SMOOTH",
"348.667 31 OFFCURVE",
"337.667 38.667 OFFCURVE",
"331 44 CURVE",
"323 47.333 OFFCURVE",
"314.667 49 OFFCURVE",
"306 49 CURVE SMOOTH",
"299.333 49 OFFCURVE",
"290 47.5 OFFCURVE",
"278 44.5 CURVE SMOOTH",
"266 41.5 OFFCURVE",
"256.667 40 OFFCURVE",
"250 40 CURVE SMOOTH",
"233.372 40 OFFCURVE",
"142.526 33.383 OFFCURVE",
"118 30 CURVE SMOOTH",
"102.667 27.333 OFFCURVE",
"91.333 26.667 OFFCURVE",
"84 28 CURVE",
"103.333 66.667 OFFCURVE",
"119.667 96.667 OFFCURVE",
"133 118 CURVE SMOOTH",
"157.667 152 OFFCURVE",
"177 177.667 OFFCURVE",
"191 195 CURVE",
"225.667 248.333 OFFCURVE",
"250.333 287 OFFCURVE",
"265 311 CURVE",
"312.333 377 OFFCURVE",
"348.667 428.667 OFFCURVE",
"374 466 CURVE",
"466 574 LINE SMOOTH"
);
}
);
userData = {
assembly = "NPUSHB[ ]	/* 37 values pushed */\0121 87 87 64 88 85 83 81 80 73 72 68 67 63 60 59 32 19 10 85 73 72 70 68 67 59 46 25 10 77 41 1 27 1 1 46 70 \012SROUND[ ]	/* SuperRound */\012MDAP[1]	/* MoveDirectAbsPt */\012SHZ[1]	/* ShiftZoneByLastPoint */\012RTG[ ]	/* RoundToGrid */\012SVTCA[0]	/* SetFreedomAndProjectionVectorToAxis */\012MIAP[1]	/* MoveIndirectAbsPt */\012MIAP[1]	/* MoveIndirectAbsPt */\012MDAP[1]	/* MoveDirectAbsPt */\012SVTCA[1]	/* SetFreedomAndProjectionVectorToAxis */\012MDAP[0]	/* MoveDirectAbsPt */\012MDAP[0]	/* MoveDirectAbsPt */\012MDAP[0]	/* MoveDirectAbsPt */\012MDAP[0]	/* MoveDirectAbsPt */\012MDAP[0]	/* MoveDirectAbsPt */\012MDAP[0]	/* MoveDirectAbsPt */\012MDAP[0]	/* MoveDirectAbsPt */\012MDAP[0]	/* MoveDirectAbsPt */\012MDAP[0]	/* MoveDirectAbsPt */\012MDAP[0]	/* MoveDirectAbsPt */\012SVTCA[0]	/* SetFreedomAndProjectionVectorToAxis */\012MDAP[0]	/* MoveDirectAbsPt */\012MDAP[0]	/* MoveDirectAbsPt */\012MDAP[0]	/* MoveDirectAbsPt */\012MDAP[0]	/* MoveDirectAbsPt */\012MDAP[0]	/* MoveDirectAbsPt */\012MDAP[0]	/* MoveDirectAbsPt */\012MDAP[0]	/* MoveDirectAbsPt */\012MDAP[0]	/* MoveDirectAbsPt */\012MDAP[0]	/* MoveDirectAbsPt */\012MDAP[0]	/* MoveDirectAbsPt */\012MDAP[0]	/* MoveDirectAbsPt */\012MDAP[0]	/* MoveDirectAbsPt */\012MDAP[0]	/* MoveDirectAbsPt */\012IUP[1]	/* InterpolateUntPts */\012IUP[0]	/* InterpolateUntPts */\012SVTCA[1]	/* SetFreedomAndProjectionVectorToAxis */\012MD[0]	/* MeasureDistance */\012ROUND[00]	/* Round */\012PUSHW[ ]	/* 2 values pushed */\01246 87 \012MD[0]	/* MeasureDistance */\012ROUND[00]	/* Round */\012SUB[ ]	/* Subtract */\012PUSHB[ ]	/* 1 value pushed */\01264 \012GT[ ]	/* GreaterThan */\012IF[ ]	/* If */\012SHPIX[ ]	/* ShiftZoneByPixel */\012SRP1[ ]	/* SetRefPoint1 */\012SHZ[1]	/* ShiftZoneByLastPoint */\012PUSHW[ ]	/* 2 values pushed */\01287 -64 \012SHPIX[ ]	/* ShiftZoneByPixel */\012EIF[ ]	/* EndIf */";
};
width = 373;
}
);
note = Z;
unicode = 005A;
},
{
glyphname = a;
lastChange = "2021-11-29 06:54:51 +0000";
layers = (
{
layerId = "2018A826-CC5C-461A-95E5-9D849642E9B7";
paths = (
{
closed = 1;
nodes = (
"318 200 OFFCURVE",
"323 213.333 OFFCURVE",
"323 224 CURVE SMOOTH",
"323 237.333 OFFCURVE",
"317 244 OFFCURVE",
"305 244 CURVE SMOOTH",
"294.333 244 OFFCURVE",
"287.333 239.333 OFFCURVE",
"284 230 CURVE SMOOTH",
"279.333 216 OFFCURVE",
"273.333 204.333 OFFCURVE",
"266 195 CURVE SMOOTH",
"239.333 159 OFFCURVE",
"190.667 117.667 OFFCURVE",
"120 71 CURVE SMOOTH",
"90.667 51.667 OFFCURVE",
"70.667 42 OFFCURVE",
"60 42 CURVE SMOOTH",
"48.667 42 OFFCURVE",
"44.667 50.667 OFFCURVE",
"48 68 CURVE SMOOTH",
"51.333 88 OFFCURVE",
"65.667 114.333 OFFCURVE",
"91 147 CURVE SMOOTH",
"118.333 182.333 OFFCURVE",
"147.333 209.667 OFFCURVE",
"178 229 CURVE SMOOTH",
"196.667 241 OFFCURVE",
"211.333 247 OFFCURVE",
"222 247 CURVE SMOOTH",
"232 247 OFFCURVE",
"243 242 OFFCURVE",
"255 232 CURVE",
"259 229 OFFCURVE",
"263 229 OFFCURVE",
"267 229 CURVE SMOOTH",
"272.333 229 OFFCURVE",
"275 232.333 OFFCURVE",
"275 239 CURVE SMOOTH",
"275 259 OFFCURVE",
"260.667 269 OFFCURVE",
"232 269 CURVE SMOOTH",
"219.333 269 OFFCURVE",
"205.667 266.333 OFFCURVE",
"191 261 CURVE SMOOTH",
"116.333 233 OFFCURVE",
"19.333 124 OFFCURVE",
"10 56 CURVE SMOOTH",
"6 32 OFFCURVE",
"26 -1 OFFCURVE",
"50 -1 CURVE SMOOTH",
"70 -1 OFFCURVE",
"87 5.333 OFFCURVE",
"101 18 CURVE SMOOTH",
"163 68.667 OFFCURVE",
"207.667 103.667 OFFCURVE",
"235 123 CURVE",
"243.667 126.333 OFFCURVE",
"249 121 OFFCURVE",
"248 107 CURVE SMOOTH",
"246.5 86 LINE SMOOTH",
"246 76 OFFCURVE",
"245 68.667 OFFCURVE",
"245 64 CURVE SMOOTH",
"246.333 27.333 OFFCURVE",
"255.667 0 OFFCURVE",
"273 -18 CURVE SMOOTH",
"275.667 -20.667 OFFCURVE",
"278.667 -22 OFFCURVE",
"282 -22 CURVE SMOOTH",
"292.667 -22 OFFCURVE",
"308 -6 OFFCURVE",
"308 6 CURVE SMOOTH",
"308 9.333 OFFCURVE",
"307 12 OFFCURVE",
"305 14 CURVE SMOOTH",
"291.667 30.667 OFFCURVE",
"284.667 53.667 OFFCURVE",
"284 83 CURVE SMOOTH",
"284 101.667 OFFCURVE",
"292 135.333 OFFCURVE",
"308 184 CURVE"
);
}
);
userData = {
assembly = "NPUSHB[ ]	/* 30 values pushed */\0121 59 59 64 60 57 55 47 39 37 36 34 22 18 57 45 37 36 32 25 16 13 6 2 30 9 1 1 25 70 \012SROUND[ ]	/* SuperRound */\012MDAP[1]	/* MoveDirectAbsPt */\012SHZ[1]	/* ShiftZoneByLastPoint */\012RTG[ ]	/* RoundToGrid */\012SVTCA[0]	/* SetFreedomAndProjectionVectorToAxis */\012MIAP[1]	/* MoveIndirectAbsPt */\012MDAP[1]	/* MoveDirectAbsPt */\012SVTCA[1]	/* SetFreedomAndProjectionVectorToAxis */\012MDAP[0]	/* MoveDirectAbsPt */\012MDAP[0]	/* MoveDirectAbsPt */\012MDAP[0]	/* MoveDirectAbsPt */\012MDAP[0]	/* MoveDirectAbsPt */\012MDAP[0]	/* MoveDirectAbsPt */\012MDAP[0]	/* MoveDirectAbsPt */\012MDAP[0]	/* MoveDirectAbsPt */\012MDAP[0]	/* MoveDirectAbsPt */\012MDAP[0]	/* MoveDirectAbsPt */\012MDAP[0]	/* MoveDirectAbsPt */\012SVTCA[0]	/* SetFreedomAndProjectionVectorToAxis */\012MDAP[0]	/* MoveDirectAbsPt */\012MDAP[0]	/* MoveDirectAbsPt */\012MDAP[0]	/* MoveDirectAbsPt */\012MDAP[0]	/* MoveDirectAbsPt */\012MDAP[0]	/* MoveDirectAbsPt */\012MDAP[0]	/* MoveDirectAbsPt */\012MDAP[0]	/* MoveDirectAbsPt */\012MDAP[0]	/* MoveDirectAbsPt */\012IUP[1]	/* InterpolateUntPts */\012IUP[0]	/* InterpolateUntPts */\012SVTCA[1]	/* SetFreedomAndProjectionVectorToAxis */\012MD[0]	/* MeasureDistance */\012ROUND[00]	/* Round */\012PUSHW[ ]	/* 2 values pushed */\01225 59 \012MD[0]	/* MeasureDistance */\012ROUND[00]	/* Round */\012SUB[ ]	/* Subtract */\012PUSHB[ ]	/* 1 value pushed */\01264 \012GT[ ]	/* GreaterThan */\012IF[ ]	/* If */\012SHPIX[ ]	/* ShiftZoneByPixel */\012SRP1[ ]	/* SetRefPoint1 */\012SHZ[1]	/* ShiftZoneByLastPoint */\012PUSHW[ ]	/* 2 values pushed */\01259 -64 \012SHPIX[ ]	/* ShiftZoneByPixel */\012EIF[ ]	/* EndIf */";
};
width = 368;
}
);
note = a;
unicode = 0061;
},
{
glyphname = ae;
lastChange = "2021-11-29 06:54:51 +0000";
layers = (
{
background = {
paths = (
{
closed = 1;
nodes = (
"442 248 OFFCURVE",
"431 261 OFFCURVE",
"409 261 CURVE SMOOTH",
"381 261 OFFCURVE",
"349 243 OFFCURVE",
"312 208 CURVE SMOOTH",
"278 175 OFFCURVE",
"258 144 OFFCURVE",
"251 116 CURVE SMOOTH",
"248 102 OFFCURVE",
"246 89 OFFCURVE",
"246 76 CURVE SMOOTH",
"246 15 OFFCURVE",
"286 -24 OFFCURVE",
"345 -24 CURVE SMOOTH",
"370 -24 OFFCURVE",
"392 -18 OFFCURVE",
"411 -5 CURVE SMOOTH",
"417 -2 OFFCURVE",
"420 3 OFFCURVE",
"420 9 CURVE SMOOTH",
"420 18 OFFCURVE",
"416 22 OFFCURVE",
"407 22 CURVE SMOOTH",
"405 22 OFFCURVE",
"403 22 OFFCURVE",
"401 21 CURVE SMOOTH",
"384 14 OFFCURVE",
"369 11 OFFCURVE",
"356 11 CURVE SMOOTH",
"312 10 OFFCURVE",
"289 32 OFFCURVE",
"287 76 CURVE",
"288 76 LINE SMOOTH",
"323 84 OFFCURVE",
"356 101 OFFCURVE",
"387 127 CURVE SMOOTH",
"422 158 OFFCURVE",
"440 190 OFFCURVE",
"441 223 CURVE SMOOTH"
);
},
{
closed = 1;
nodes = (
"405 191 OFFCURVE",
"392 170 OFFCURVE",
"367 149 CURVE SMOOTH",
"353 137 OFFCURVE",
"335 128 OFFCURVE",
"314 123 CURVE",
"303 123 OFFCURVE",
"298 127 OFFCURVE",
"301 136 CURVE",
"312 157 OFFCURVE",
"321 173 OFFCURVE",
"328 182 CURVE SMOOTH",
"351 212 OFFCURVE",
"373 227 OFFCURVE",
"394 227 CURVE",
"397 230 OFFCURVE",
"407 223 OFFCURVE",
"406 212 CURVE SMOOTH"
);
}
);
};
layerId = "2018A826-CC5C-461A-95E5-9D849642E9B7";
paths = (
{
closed = 1;
nodes = (
"422 158 OFFCURVE",
"440 190 OFFCURVE",
"441 223 CURVE SMOOTH",
"442 248 OFFCURVE",
"431 261 OFFCURVE",
"409 261 CURVE SMOOTH",
"384 261 OFFCURVE",
"355 246 OFFCURVE",
"322 218 CURVE",
"323 220 OFFCURVE",
"323 222 OFFCURVE",
"323 224 CURVE SMOOTH",
"323 237 OFFCURVE",
"317 244 OFFCURVE",
"305 244 CURVE SMOOTH",
"294 244 OFFCURVE",
"287 239 OFFCURVE",
"284 230 CURVE SMOOTH",
"279 216 OFFCURVE",
"273 204 OFFCURVE",
"266 195 CURVE SMOOTH",
"239 159 OFFCURVE",
"191 118 OFFCURVE",
"120 71 CURVE SMOOTH",
"91 52 OFFCURVE",
"71 42 OFFCURVE",
"60 42 CURVE SMOOTH",
"49 42 OFFCURVE",
"45 51 OFFCURVE",
"48 68 CURVE SMOOTH",
"51 88 OFFCURVE",
"66 114 OFFCURVE",
"91 147 CURVE SMOOTH",
"118 182 OFFCURVE",
"147 210 OFFCURVE",
"178 229 CURVE SMOOTH",
"197 241 OFFCURVE",
"211 247 OFFCURVE",
"222 247 CURVE SMOOTH",
"232 247 OFFCURVE",
"243 242 OFFCURVE",
"255 232 CURVE SMOOTH",
"259 229 OFFCURVE",
"263 229 OFFCURVE",
"267 229 CURVE SMOOTH",
"272 229 OFFCURVE",
"275 232 OFFCURVE",
"275 239 CURVE SMOOTH",
"275 259 OFFCURVE",
"261 269 OFFCURVE",
"232 269 CURVE SMOOTH",
"219 269 OFFCURVE",
"206 266 OFFCURVE",
"191 261 CURVE SMOOTH",
"116 233 OFFCURVE",
"19 124 OFFCURVE",
"10 56 CURVE SMOOTH",
"6 32 OFFCURVE",
"26 -1 OFFCURVE",
"50 -1 CURVE SMOOTH",
"70 -1 OFFCURVE",
"87 5 OFFCURVE",
"101 18 CURVE SMOOTH",
"163 69 OFFCURVE",
"208 104 OFFCURVE",
"235 123 CURVE",
"244 126 OFFCURVE",
"249 121 OFFCURVE",
"248 107 CURVE SMOOTH",
"248 97 LINE SMOOTH",
"247 90 OFFCURVE",
"246 83 OFFCURVE",
"246 76 CURVE SMOOTH",
"246 15 OFFCURVE",
"286 -24 OFFCURVE",
"345 -24 CURVE SMOOTH",
"370 -24 OFFCURVE",
"392 -18 OFFCURVE",
"411 -5 CURVE",
"417 -2 OFFCURVE",
"420 3 OFFCURVE",
"420 9 CURVE SMOOTH",
"420 18 OFFCURVE",
"416 22 OFFCURVE",
"407 22 CURVE SMOOTH",
"405 22 OFFCURVE",
"403 22 OFFCURVE",
"401 21 CURVE SMOOTH",
"384 14 OFFCURVE",
"369 11 OFFCURVE",
"356 11 CURVE SMOOTH",
"312 10 OFFCURVE",
"289 32 OFFCURVE",
"287 76 CURVE",
"288 76 LINE SMOOTH",
"323 84 OFFCURVE",
"356 101 OFFCURVE",
"387 127 CURVE SMOOTH"
);
},
{
closed = 1;
nodes = (
"397 230 OFFCURVE",
"407 223 OFFCURVE",
"406 212 CURVE SMOOTH",
"405 191 OFFCURVE",
"392 170 OFFCURVE",
"367 149 CURVE SMOOTH",
"353 137 OFFCURVE",
"335 128 OFFCURVE",
"314 123 CURVE",
"303 123 OFFCURVE",
"298 127 OFFCURVE",
"301 136 CURVE",
"312 157 OFFCURVE",
"321 173 OFFCURVE",
"328 182 CURVE SMOOTH",
"351 212 OFFCURVE",
"373 227 OFFCURVE",
"394 227 CURVE"
);
}
);
width = 455;
}
);
unicode = 00E6;
},
{
glyphname = b;
lastChange = "2021-11-29 06:54:51 +0000";
layers = (
{
layerId = "2018A826-CC5C-461A-95E5-9D849642E9B7";
paths = (
{
closed = 1;
nodes = (
"354 221.333 OFFCURVE",
"331.667 246 OFFCURVE",
"287 262 CURVE SMOOTH",
"255.667 272.667 OFFCURVE",
"220.333 278 OFFCURVE",
"181 278 CURVE SMOOTH",
"167 278 OFFCURVE",
"151.667 276.667 OFFCURVE",
"135 274 CURVE SMOOTH",
"115.667 270.667 OFFCURVE",
"106 282.667 OFFCURVE",
"106 310 CURVE SMOOTH",
"106 316.667 OFFCURVE",
"106.667 324.333 OFFCURVE",
"108 333 CURVE SMOOTH",
"126.667 489.667 OFFCURVE",
"149 593.333 OFFCURVE",
"175 644 CURVE SMOOTH",
"176.333 646.667 OFFCURVE",
"177 649.333 OFFCURVE",
"177 652 CURVE SMOOTH",
"177 660 OFFCURVE",
"173.333 664 OFFCURVE",
"166 664 CURVE SMOOTH",
"160.667 664 OFFCURVE",
"156.667 661 OFFCURVE",
"154 655 CURVE SMOOTH",
"120.667 590.333 OFFCURVE",
"88.333 454.333 OFFCURVE",
"57 247 CURVE",
"39 238.333 OFFCURVE",
"20 228 OFFCURVE",
"0 216 CURVE SMOOTH",
"-4.667 213.333 OFFCURVE",
"-7 209.667 OFFCURVE",
"-7 205 CURVE SMOOTH",
"-7 197.667 OFFCURVE",
"-3 194 OFFCURVE",
"5 194 CURVE",
"53 213 LINE",
"39 119 OFFCURVE",
"32 51.667 OFFCURVE",
"32 11 CURVE SMOOTH",
"32 -5 OFFCURVE",
"39.667 -13 OFFCURVE",
"55 -13 CURVE SMOOTH",
"59.667 -13 OFFCURVE",
"64.667 -12 OFFCURVE",
"70 -10 CURVE SMOOTH",
"109.333 2.667 OFFCURVE",
"162.333 29.333 OFFCURVE",
"229 70 CURVE SMOOTH",
"312.333 120 OFFCURVE",
"354 159.333 OFFCURVE",
"354 188 CURVE SMOOTH"
);
},
{
closed = 1;
nodes = (
"315 162 OFFCURVE",
"284.667 132.667 OFFCURVE",
"224 98 CURVE SMOOTH",
"170.667 66.667 OFFCURVE",
"130 49 OFFCURVE",
"102 45 CURVE SMOOTH",
"88 43 OFFCURVE",
"81 53.667 OFFCURVE",
"81 77 CURVE SMOOTH",
"81 85.667 OFFCURVE",
"82 98.667 OFFCURVE",
"84 116 CURVE",
"83 117 LINE",
"86.333 149 OFFCURVE",
"88.667 173.667 OFFCURVE",
"90 191 CURVE SMOOTH",
"92.667 211 OFFCURVE",
"109.667 235 OFFCURVE",
"131 239 CURVE SMOOTH",
"151.667 241 OFFCURVE",
"167.333 242 OFFCURVE",
"178 242 CURVE SMOOTH",
"207.333 242.667 OFFCURVE",
"235 239.333 OFFCURVE",
"261 232 CURVE SMOOTH",
"297 222.667 OFFCURVE",
"315 207.333 OFFCURVE",
"315 186 CURVE SMOOTH"
);
}
);
userData = {
assembly = "NPUSHB[ ]	/* 28 values pushed */\0121 58 58 64 59 0 54 42 34 32 12 52 50 49 38 30 24 14 10 8 0 22 6 10 2 1 14 70 \012SROUND[ ]	/* SuperRound */\012MDAP[1]	/* MoveDirectAbsPt */\012SHZ[1]	/* ShiftZoneByLastPoint */\012RTG[ ]	/* RoundToGrid */\012SVTCA[0]	/* SetFreedomAndProjectionVectorToAxis */\012MIAP[1]	/* MoveIndirectAbsPt */\012MDAP[1]	/* MoveDirectAbsPt */\012MDAP[1]	/* MoveDirectAbsPt */\012SVTCA[1]	/* SetFreedomAndProjectionVectorToAxis */\012MDAP[0]	/* MoveDirectAbsPt */\012MDAP[0]	/* MoveDirectAbsPt */\012MDAP[0]	/* MoveDirectAbsPt */\012MDAP[0]	/* MoveDirectAbsPt */\012MDAP[0]	/* MoveDirectAbsPt */\012MDAP[0]	/* MoveDirectAbsPt */\012MDAP[0]	/* MoveDirectAbsPt */\012MDAP[0]	/* MoveDirectAbsPt */\012MDAP[0]	/* MoveDirectAbsPt */\012MDAP[0]	/* MoveDirectAbsPt */\012SVTCA[0]	/* SetFreedomAndProjectionVectorToAxis */\012MDAP[0]	/* MoveDirectAbsPt */\012MDAP[0]	/* MoveDirectAbsPt */\012MDAP[0]	/* MoveDirectAbsPt */\012MDAP[0]	/* MoveDirectAbsPt */\012MDAP[0]	/* MoveDirectAbsPt */\012IUP[1]	/* InterpolateUntPts */\012IUP[0]	/* InterpolateUntPts */\012SVTCA[1]	/* SetFreedomAndProjectionVectorToAxis */\012MD[0]	/* MeasureDistance */\012ROUND[00]	/* Round */\012PUSHW[ ]	/* 2 values pushed */\01214 58 \012MD[0]	/* MeasureDistance */\012ROUND[00]	/* Round */\012SUB[ ]	/* Subtract */\012PUSHB[ ]	/* 1 value pushed */\01264 \012GT[ ]	/* GreaterThan */\012IF[ ]	/* If */\012SHPIX[ ]	/* ShiftZoneByPixel */\012SRP1[ ]	/* SetRefPoint1 */\012SHZ[1]	/* ShiftZoneByLastPoint */\012PUSHW[ ]	/* 2 values pushed */\01258 -64 \012SHPIX[ ]	/* ShiftZoneByPixel */\012EIF[ ]	/* EndIf */";
};
width = 356;
}
);
note = b;
unicode = 0062;
},
{
glyphname = c;
lastChange = "2021-11-29 06:54:51 +0000";
layers = (
{
layerId = "2018A826-CC5C-461A-95E5-9D849642E9B7";
paths = (
{
closed = 1;
nodes = (
"207 243 OFFCURVE",
"186.333 270 OFFCURVE",
"157 270 CURVE SMOOTH",
"115 270 OFFCURVE",
"80 250 OFFCURVE",
"52 210 CURVE SMOOTH",
"28 174 OFFCURVE",
"14.667 132.667 OFFCURVE",
"12 86 CURVE SMOOTH",
"10.667 62 OFFCURVE",
"17 39 OFFCURVE",
"31 17 CURVE SMOOTH",
"46.333 -7 OFFCURVE",
"65.667 -19 OFFCURVE",
"89 -19 CURVE SMOOTH",
"136.333 -19.667 OFFCURVE",
"173 -5 OFFCURVE",
"199 25 CURVE SMOOTH",
"203 29 OFFCURVE",
"205 33.667 OFFCURVE",
"205 39 CURVE SMOOTH",
"205 47 OFFCURVE",
"201.667 51 OFFCURVE",
"195 51 CURVE SMOOTH",
"191.667 51 OFFCURVE",
"188.333 49.667 OFFCURVE",
"185 47 CURVE SMOOTH",
"161 27 OFFCURVE",
"134 16.667 OFFCURVE",
"104 16 CURVE SMOOTH",
"86 15.333 OFFCURVE",
"71.667 23 OFFCURVE",
"61 39 CURVE SMOOTH",
"51.667 52.333 OFFCURVE",
"47 68 OFFCURVE",
"47 86 CURVE SMOOTH",
"47 121.333 OFFCURVE",
"56.333 155.667 OFFCURVE",
"75 189 CURVE SMOOTH",
"96.333 227 OFFCURVE",
"121.667 246 OFFCURVE",
"151 246 CURVE SMOOTH",
"165.667 246 OFFCURVE",
"181 232.667 OFFCURVE",
"181 218 CURVE SMOOTH",
"181 213.333 OFFCURVE",
"179.667 209 OFFCURVE",
"177 205 CURVE",
"178 205 LINE",
"176 202.333 OFFCURVE",
"175 199.667 OFFCURVE",
"175 197 CURVE SMOOTH",
"175 192.333 OFFCURVE",
"177.333 190 OFFCURVE",
"182 190 CURVE SMOOTH",
"192.667 190 OFFCURVE",
"199.667 199.667 OFFCURVE",
"203 219 CURVE SMOOTH"
);
}
);
userData = {
assembly = "NPUSHB[ ]	/* 27 values pushed */\0121 41 41 64 42 26 24 20 12 2 34 26 16 9 7 6 4 0 38 30 1 7 6 2 1 34 70 \012SROUND[ ]	/* SuperRound */\012MDAP[1]	/* MoveDirectAbsPt */\012SHZ[1]	/* ShiftZoneByLastPoint */\012RTG[ ]	/* RoundToGrid */\012SVTCA[0]	/* SetFreedomAndProjectionVectorToAxis */\012MIAP[1]	/* MoveIndirectAbsPt */\012ALIGNRP[ ]	/* AlignRelativePt */\012MIAP[1]	/* MoveIndirectAbsPt */\012MDAP[1]	/* MoveDirectAbsPt */\012SVTCA[1]	/* SetFreedomAndProjectionVectorToAxis */\012MDAP[0]	/* MoveDirectAbsPt */\012MDAP[0]	/* MoveDirectAbsPt */\012MDAP[0]	/* MoveDirectAbsPt */\012MDAP[0]	/* MoveDirectAbsPt */\012MDAP[0]	/* MoveDirectAbsPt */\012MDAP[0]	/* MoveDirectAbsPt */\012MDAP[0]	/* MoveDirectAbsPt */\012MDAP[0]	/* MoveDirectAbsPt */\012SVTCA[0]	/* SetFreedomAndProjectionVectorToAxis */\012MDAP[0]	/* MoveDirectAbsPt */\012MDAP[0]	/* MoveDirectAbsPt */\012MDAP[0]	/* MoveDirectAbsPt */\012MDAP[0]	/* MoveDirectAbsPt */\012IUP[1]	/* InterpolateUntPts */\012IUP[0]	/* InterpolateUntPts */\012SVTCA[1]	/* SetFreedomAndProjectionVectorToAxis */\012MD[0]	/* MeasureDistance */\012ROUND[00]	/* Round */\012PUSHW[ ]	/* 2 values pushed */\01234 41 \012MD[0]	/* MeasureDistance */\012ROUND[00]	/* Round */\012SUB[ ]	/* Subtract */\012PUSHB[ ]	/* 1 value pushed */\01264 \012GT[ ]	/* GreaterThan */\012IF[ ]	/* If */\012SHPIX[ ]	/* ShiftZoneByPixel */\012SRP1[ ]	/* SetRefPoint1 */\012SHZ[1]	/* ShiftZoneByLastPoint */\012PUSHW[ ]	/* 2 values pushed */\01241 -64 \012SHPIX[ ]	/* ShiftZoneByPixel */\012EIF[ ]	/* EndIf */";
};
width = 199;
}
);
note = c;
unicode = 0063;
},
{
glyphname = d;
lastChange = "2021-11-29 06:54:51 +0000";
layers = (
{
layerId = "2018A826-CC5C-461A-95E5-9D849642E9B7";
paths = (
{
closed = 1;
nodes = (
"376.667 599.333 OFFCURVE",
"360.667 624 OFFCURVE",
"332 624 CURVE SMOOTH",
"312.667 624 OFFCURVE",
"297.667 610.667 OFFCURVE",
"287 584 CURVE SMOOTH",
"267.667 534 OFFCURVE",
"255 493 OFFCURVE",
"249 461 CURVE SMOOTH",
"231 363 OFFCURVE",
"219.667 281 OFFCURVE",
"215 215 CURVE SMOOTH",
"215 211 OFFCURVE",
"214 209 OFFCURVE",
"212 209 CURVE SMOOTH",
"210.667 209 OFFCURVE",
"208 210.667 OFFCURVE",
"204 214 CURVE SMOOTH",
"200 217.333 OFFCURVE",
"196.667 219.667 OFFCURVE",
"194 221 CURVE SMOOTH",
"178.667 227.667 OFFCURVE",
"164.667 231 OFFCURVE",
"152 231 CURVE SMOOTH",
"134 231 OFFCURVE",
"112 221 OFFCURVE",
"86 201 CURVE SMOOTH",
"66.667 185.667 OFFCURVE",
"48.667 161.667 OFFCURVE",
"32 129 CURVE SMOOTH",
"14 94.333 OFFCURVE",
"5 63 OFFCURVE",
"5 35 CURVE SMOOTH",
"5 -3.667 OFFCURVE",
"19.333 -23 OFFCURVE",
"48 -23 CURVE SMOOTH",
"75.333 -23 OFFCURVE",
"125.667 9.333 OFFCURVE",
"199 74 CURVE",
"203 68.667 OFFCURVE",
"204.333 51.667 OFFCURVE",
"203 23 CURVE SMOOTH",
"200 -33 LINE",
"202.667 -77.667 OFFCURVE",
"213.333 -100 OFFCURVE",
"232 -100 CURVE SMOOTH",
"250.667 -100 OFFCURVE",
"268 -73 OFFCURVE",
"268 -41 CURVE SMOOTH",
"268 -38.963 OFFCURVE",
"253.027 44.138 OFFCURVE",
"251 71.5 CURVE SMOOTH",
"247.667 116.5 OFFCURVE",
"246.667 150.333 OFFCURVE",
"248 173 CURVE",
"344 365 LINE",
"372 431.667 OFFCURVE",
"384 493.333 OFFCURVE",
"380 550 CURVE SMOOTH"
);
},
{
closed = 1;
nodes = (
"357.667 497.333 OFFCURVE",
"347.333 447.333 OFFCURVE",
"324 392 CURVE SMOOTH",
"257 251 LINE",
"266.333 339.667 OFFCURVE",
"274 405.667 OFFCURVE",
"280 449 CURVE",
"281 450 LINE",
"285.667 487.333 OFFCURVE",
"293.833 521.167 OFFCURVE",
"305.5 551.5 CURVE SMOOTH",
"317.167 581.833 OFFCURVE",
"327.667 597 OFFCURVE",
"337 597 CURVE SMOOTH",
"347 597 OFFCURVE",
"353 578.667 OFFCURVE",
"355 542 CURVE SMOOTH"
);
},
{
closed = 1;
nodes = (
"173.333 87.667 OFFCURVE",
"147 58.333 OFFCURVE",
"117 39 CURVE SMOOTH",
"91 23 OFFCURVE",
"66.667 16 OFFCURVE",
"44 18 CURVE SMOOTH",
"34.667 18.667 OFFCURVE",
"30 25.667 OFFCURVE",
"30 39 CURVE SMOOTH",
"30 57.667 OFFCURVE",
"38 82.333 OFFCURVE",
"54 113 CURVE SMOOTH",
"65.333 135 OFFCURVE",
"79.333 155 OFFCURVE",
"96 173 CURVE SMOOTH",
"118.667 197 OFFCURVE",
"140 209 OFFCURVE",
"160 209 CURVE SMOOTH",
"186.667 209 OFFCURVE",
"200 190.667 OFFCURVE",
"200 154 CURVE SMOOTH",
"200 144.667 OFFCURVE",
"199 135.667 OFFCURVE",
"197 127 CURVE",
"196 127 LINE"
);
}
);
userData = {
assembly = "NPUSHB[ ]	/* 33 values pushed */\0121 71 71 64 72 0 70 66 58 54 50 44 27 17 64 56 50 42 21 15 13 8 4 0 40 11 32 2 19 1 1 21 70 \012SROUND[ ]	/* SuperRound */\012MDAP[1]	/* MoveDirectAbsPt */\012SHZ[1]	/* ShiftZoneByLastPoint */\012RTG[ ]	/* RoundToGrid */\012SVTCA[0]	/* SetFreedomAndProjectionVectorToAxis */\012MIAP[1]	/* MoveIndirectAbsPt */\012MIAP[1]	/* MoveIndirectAbsPt */\012MDAP[1]	/* MoveDirectAbsPt */\012MDAP[1]	/* MoveDirectAbsPt */\012SVTCA[1]	/* SetFreedomAndProjectionVectorToAxis */\012MDAP[0]	/* MoveDirectAbsPt */\012MDAP[0]	/* MoveDirectAbsPt */\012MDAP[0]	/* MoveDirectAbsPt */\012MDAP[0]	/* MoveDirectAbsPt */\012MDAP[0]	/* MoveDirectAbsPt */\012MDAP[0]	/* MoveDirectAbsPt */\012MDAP[0]	/* MoveDirectAbsPt */\012MDAP[0]	/* MoveDirectAbsPt */\012MDAP[0]	/* MoveDirectAbsPt */\012MDAP[0]	/* MoveDirectAbsPt */\012SVTCA[0]	/* SetFreedomAndProjectionVectorToAxis */\012MDAP[0]	/* MoveDirectAbsPt */\012MDAP[0]	/* MoveDirectAbsPt */\012MDAP[0]	/* MoveDirectAbsPt */\012MDAP[0]	/* MoveDirectAbsPt */\012MDAP[0]	/* MoveDirectAbsPt */\012MDAP[0]	/* MoveDirectAbsPt */\012MDAP[0]	/* MoveDirectAbsPt */\012MDAP[0]	/* MoveDirectAbsPt */\012IUP[1]	/* InterpolateUntPts */\012IUP[0]	/* InterpolateUntPts */\012SVTCA[1]	/* SetFreedomAndProjectionVectorToAxis */\012MD[0]	/* MeasureDistance */\012ROUND[00]	/* Round */\012PUSHW[ ]	/* 2 values pushed */\01221 71 \012MD[0]	/* MeasureDistance */\012ROUND[00]	/* Round */\012SUB[ ]	/* Subtract */\012PUSHB[ ]	/* 1 value pushed */\01264 \012GT[ ]	/* GreaterThan */\012IF[ ]	/* If */\012SHPIX[ ]	/* ShiftZoneByPixel */\012SRP1[ ]	/* SetRefPoint1 */\012SHZ[1]	/* ShiftZoneByLastPoint */\012PUSHW[ ]	/* 2 values pushed */\01271 -64 \012SHPIX[ ]	/* ShiftZoneByPixel */\012EIF[ ]	/* EndIf */";
};
width = 334;
}
);
note = d;
unicode = 0064;
},
{
glyphname = eth;
lastChange = "2021-11-29 06:54:51 +0000";
layers = (
{
layerId = "2018A826-CC5C-461A-95E5-9D849642E9B7";
paths = (
{
closed = 1;
nodes = (
"173 414 OFFCURVE",
"193 429 OFFCURVE",
"206 437 CURVE SMOOTH",
"215 442 OFFCURVE",
"221 448 OFFCURVE",
"215 459 CURVE SMOOTH",
"210 469 OFFCURVE",
"204 466 OFFCURVE",
"193 460 CURVE SMOOTH",
"175 450 OFFCURVE",
"152 436 OFFCURVE",
"129 421 CURVE",
"110 438 OFFCURVE",
"87 453 OFFCURVE",
"60 465 CURVE",
"31 465 OFFCURVE",
"30 444 OFFCURVE",
"42 439 CURVE SMOOTH",
"65 430 OFFCURVE",
"85 417 OFFCURVE",
"102 402 CURVE",
"76 385 OFFCURVE",
"53 369 OFFCURVE",
"41 360 CURVE SMOOTH",
"31 352 OFFCURVE",
"30 344 OFFCURVE",
"34 338 CURVE",
"37 331 OFFCURVE",
"50 329 OFFCURVE",
"66 339 CURVE SMOOTH",
"81 348 OFFCURVE",
"102 363 OFFCURVE",
"124 379 CURVE",
"159 337 OFFCURVE",
"176 287 OFFCURVE",
"184 256 CURVE",
"145 250 OFFCURVE",
"111 224 OFFCURVE",
"66 167 CURVE SMOOTH",
"33 126 OFFCURVE",
"17 87 OFFCURVE",
"17 52 CURVE SMOOTH",
"17 32 OFFCURVE",
"24 15 OFFCURVE",
"37 0 CURVE SMOOTH",
"52 -17 OFFCURVE",
"70 -25 OFFCURVE",
"91 -25 CURVE SMOOTH",
"170 -25 OFFCURVE",
"245 36 OFFCURVE",
"245 130 CURVE SMOOTH",
"245 192 OFFCURVE",
"232 312 OFFCURVE",
"152 399 CURVE"
);
},
{
closed = 1;
nodes = (
"71 6 OFFCURVE",
"60 21 OFFCURVE",
"60 50 CURVE SMOOTH",
"60 77 OFFCURVE",
"73 108 OFFCURVE",
"99 142 CURVE SMOOTH",
"121 170 OFFCURVE",
"146 203 OFFCURVE",
"189 224 CURVE",
"196 211 OFFCURVE",
"207 161 OFFCURVE",
"207 127 CURVE SMOOTH",
"207 51 OFFCURVE",
"141 7 OFFCURVE",
"92 6 CURVE SMOOTH"
);
}
);
width = 260;
}
);
unicode = 00F0;
},
{
glyphname = e;
lastChange = "2021-11-29 06:54:51 +0000";
layers = (
{
layerId = "2018A826-CC5C-461A-95E5-9D849642E9B7";
paths = (
{
closed = 1;
nodes = (
"221.667 241.333 OFFCURVE",
"211 254 OFFCURVE",
"189 254 CURVE SMOOTH",
"161 254 OFFCURVE",
"128.667 236.333 OFFCURVE",
"92 201 CURVE SMOOTH",
"58 167.667 OFFCURVE",
"37.667 137 OFFCURVE",
"31 109 CURVE SMOOTH",
"27.667 95 OFFCURVE",
"26 81.667 OFFCURVE",
"26 69 CURVE SMOOTH",
"26 7.667 OFFCURVE",
"66.333 -31 OFFCURVE",
"125 -31 CURVE SMOOTH",
"150.333 -31 OFFCURVE",
"172.333 -24.667 OFFCURVE",
"191 -12 CURVE SMOOTH",
"197 -8.667 OFFCURVE",
"200 -4 OFFCURVE",
"200 2 CURVE SMOOTH",
"200 10.667 OFFCURVE",
"195.667 15 OFFCURVE",
"187 15 CURVE SMOOTH",
"185 15 OFFCURVE",
"183 14.667 OFFCURVE",
"181 14 CURVE SMOOTH",
"163.667 7.333 OFFCURVE",
"148.667 4 OFFCURVE",
"136 4 CURVE SMOOTH",
"92 3.333 OFFCURVE",
"69 25 OFFCURVE",
"67 69 CURVE",
"68 69 LINE SMOOTH",
"102.667 77 OFFCURVE",
"135.667 94 OFFCURVE",
"167 120 CURVE SMOOTH",
"202.333 150.667 OFFCURVE",
"220.333 182.667 OFFCURVE",
"221 216 CURVE SMOOTH"
);
},
{
closed = 1;
nodes = (
"184.667 183.667 OFFCURVE",
"171.667 162.667 OFFCURVE",
"147 142 CURVE SMOOTH",
"133 130 OFFCURVE",
"115.333 121.333 OFFCURVE",
"94 116 CURVE",
"82.667 116 OFFCURVE",
"78.333 120.333 OFFCURVE",
"81 129 CURVE",
"91.667 150.333 OFFCURVE",
"100.667 165.667 OFFCURVE",
"108 175 CURVE SMOOTH",
"130.667 205 OFFCURVE",
"152.667 220 OFFCURVE",
"174 220 CURVE",
"176.667 222.667 OFFCURVE",
"187.333 215.667 OFFCURVE",
"186 205 CURVE SMOOTH"
);
}
);
userData = {
assembly = "NPUSHB[ ]	/* 24 values pushed */\0121 41 41 64 42 0 37 31 11 7 5 4 35 28 20 13 5 0 26 17 1 1 20 70 \012SROUND[ ]	/* SuperRound */\012MDAP[1]	/* MoveDirectAbsPt */\012SHZ[1]	/* ShiftZoneByLastPoint */\012RTG[ ]	/* RoundToGrid */\012SVTCA[0]	/* SetFreedomAndProjectionVectorToAxis */\012MIAP[1]	/* MoveIndirectAbsPt */\012MDAP[1]	/* MoveDirectAbsPt */\012SVTCA[1]	/* SetFreedomAndProjectionVectorToAxis */\012MDAP[0]	/* MoveDirectAbsPt */\012MDAP[0]	/* MoveDirectAbsPt */\012MDAP[0]	/* MoveDirectAbsPt */\012MDAP[0]	/* MoveDirectAbsPt */\012MDAP[0]	/* MoveDirectAbsPt */\012MDAP[0]	/* MoveDirectAbsPt */\012SVTCA[0]	/* SetFreedomAndProjectionVectorToAxis */\012MDAP[0]	/* MoveDirectAbsPt */\012MDAP[0]	/* MoveDirectAbsPt */\012MDAP[0]	/* MoveDirectAbsPt */\012MDAP[0]	/* MoveDirectAbsPt */\012MDAP[0]	/* MoveDirectAbsPt */\012MDAP[0]	/* MoveDirectAbsPt */\012IUP[1]	/* InterpolateUntPts */\012IUP[0]	/* InterpolateUntPts */\012SVTCA[1]	/* SetFreedomAndProjectionVectorToAxis */\012MD[0]	/* MeasureDistance */\012ROUND[00]	/* Round */\012PUSHW[ ]	/* 2 values pushed */\01220 41 \012MD[0]	/* MeasureDistance */\012ROUND[00]	/* Round */\012SUB[ ]	/* Subtract */\012PUSHB[ ]	/* 1 value pushed */\01264 \012GT[ ]	/* GreaterThan */\012IF[ ]	/* If */\012SHPIX[ ]	/* ShiftZoneByPixel */\012SRP1[ ]	/* SetRefPoint1 */\012SHZ[1]	/* ShiftZoneByLastPoint */\012PUSHW[ ]	/* 2 values pushed */\01241 -64 \012SHPIX[ ]	/* ShiftZoneByPixel */\012EIF[ ]	/* EndIf */";
};
width = 235;
}
);
note = e;
unicode = 0065;
},
{
glyphname = schwa;
lastChange = "2021-11-29 06:54:51 +0000";
layers = (
{
layerId = "2018A826-CC5C-461A-95E5-9D849642E9B7";
paths = (
{
closed = 1;
nodes = (
"30 -1 OFFCURVE",
"41 -14 OFFCURVE",
"63 -14 CURVE SMOOTH",
"91 -14 OFFCURVE",
"123 4 OFFCURVE",
"160 39 CURVE SMOOTH",
"194 72 OFFCURVE",
"214 103 OFFCURVE",
"221 131 CURVE SMOOTH",
"224 145 OFFCURVE",
"226 158 OFFCURVE",
"226 171 CURVE SMOOTH",
"226 232 OFFCURVE",
"186 271 OFFCURVE",
"127 271 CURVE SMOOTH",
"102 271 OFFCURVE",
"80 265 OFFCURVE",
"61 252 CURVE SMOOTH",
"55 249 OFFCURVE",
"52 244 OFFCURVE",
"52 238 CURVE SMOOTH",
"52 229 OFFCURVE",
"56 225 OFFCURVE",
"65 225 CURVE SMOOTH",
"67 225 OFFCURVE",
"69 225 OFFCURVE",
"71 226 CURVE SMOOTH",
"88 233 OFFCURVE",
"103 236 OFFCURVE",
"116 236 CURVE SMOOTH",
"160 237 OFFCURVE",
"183 215 OFFCURVE",
"185 171 CURVE",
"184 171 LINE SMOOTH",
"149 163 OFFCURVE",
"116 146 OFFCURVE",
"85 120 CURVE SMOOTH",
"50 89 OFFCURVE",
"32 57 OFFCURVE",
"31 24 CURVE SMOOTH"
);
},
{
closed = 1;
nodes = (
"67 56 OFFCURVE",
"80 77 OFFCURVE",
"105 98 CURVE SMOOTH",
"119 110 OFFCURVE",
"137 119 OFFCURVE",
"158 124 CURVE",
"169 124 OFFCURVE",
"174 120 OFFCURVE",
"171 111 CURVE",
"160 90 OFFCURVE",
"151 74 OFFCURVE",
"144 65 CURVE SMOOTH",
"121 35 OFFCURVE",
"99 20 OFFCURVE",
"78 20 CURVE",
"75 17 OFFCURVE",
"65 24 OFFCURVE",
"66 35 CURVE SMOOTH"
);
}
);
width = 235;
}
);
unicode = 0259;
},
{
glyphname = f;
lastChange = "2021-11-29 06:54:51 +0000";
layers = (
{
layerId = "2018A826-CC5C-461A-95E5-9D849642E9B7";
paths = (
{
closed = 1;
nodes = (
"387.667 615.667 OFFCURVE",
"368.333 626 OFFCURVE",
"347 626 CURVE SMOOTH",
"321 626 OFFCURVE",
"295.667 611.333 OFFCURVE",
"271 582 CURVE SMOOTH",
"241 546 OFFCURVE",
"215 498.333 OFFCURVE",
"193 439 CURVE SMOOTH",
"172.333 383.667 OFFCURVE",
"159.667 331.333 OFFCURVE",
"155 282 CURVE SMOOTH",
"149 231 LINE",
"131 219 OFFCURVE",
"108 209.667 OFFCURVE",
"80 203 CURVE SMOOTH",
"42.667 193.667 OFFCURVE",
"18.333 186.667 OFFCURVE",
"7 182 CURVE",
"8 183 LINE",
"-0.667 179 OFFCURVE",
"-5 172.333 OFFCURVE",
"-5 163 CURVE SMOOTH",
"-5 153 OFFCURVE",
"0 149 OFFCURVE",
"10 151 CURVE SMOOTH",
"74.667 164.333 OFFCURVE",
"109.333 171 OFFCURVE",
"114 171 CURVE SMOOTH",
"124.667 171 OFFCURVE",
"131.667 166.333 OFFCURVE",
"135 157 CURVE",
"129.667 111 OFFCURVE",
"126 76.667 OFFCURVE",
"124 54 CURVE",
"117.333 54.667 OFFCURVE",
"112.333 50.667 OFFCURVE",
"109 42 CURVE SMOOTH",
"97.667 8.667 OFFCURVE",
"91.667 -20.667 OFFCURVE",
"91 -46 CURVE SMOOTH",
"91 -63.333 OFFCURVE",
"107.333 -100 OFFCURVE",
"122 -100 CURVE SMOOTH",
"126 -100 OFFCURVE",
"129.667 -97.333 OFFCURVE",
"133 -92 CURVE SMOOTH",
"147 -70 OFFCURVE",
"164 18.333 OFFCURVE",
"184 173 CURVE",
"205.333 186.333 OFFCURVE",
"230 194 OFFCURVE",
"258 196 CURVE",
"336 196 LINE SMOOTH",
"346.667 196 OFFCURVE",
"352 201.667 OFFCURVE",
"352 213 CURVE SMOOTH",
"352 225.667 OFFCURVE",
"342 232.333 OFFCURVE",
"322 233 CURVE SMOOTH",
"258 231 LINE SMOOTH",
"234 231 OFFCURVE",
"212.667 234 OFFCURVE",
"194 240 CURVE",
"194.667 246.667 OFFCURVE",
"195.333 255.667 OFFCURVE",
"196 267 CURVE SMOOTH",
"197 284 LINE SMOOTH",
"208.333 374.667 OFFCURVE",
"227.667 447 OFFCURVE",
"255 501 CURVE SMOOTH",
"288.333 567 OFFCURVE",
"320 600 OFFCURVE",
"350 600 CURVE SMOOTH",
"362.667 600 OFFCURVE",
"374.333 593.667 OFFCURVE",
"385 581 CURVE SMOOTH",
"388.333 577 OFFCURVE",
"392.333 575 OFFCURVE",
"397 575 CURVE SMOOTH",
"405 575 OFFCURVE",
"409 578.667 OFFCURVE",
"409 586 CURVE SMOOTH",
"409 588.667 OFFCURVE",
"407.667 591.667 OFFCURVE",
"405 595 CURVE SMOOTH"
);
}
);
userData = {
assembly = "NPUSHB[ ]	/* 29 values pushed */\0121 64 64 64 65 2 50 49 45 43 26 24 20 18 8 4 50 49 47 41 35 22 16 2 62 32 1 47 70 \012SROUND[ ]	/* SuperRound */\012MDAP[1]	/* MoveDirectAbsPt */\012SHZ[1]	/* ShiftZoneByLastPoint */\012RTG[ ]	/* RoundToGrid */\012SVTCA[0]	/* SetFreedomAndProjectionVectorToAxis */\012MDAP[1]	/* MoveDirectAbsPt */\012MDAP[1]	/* MoveDirectAbsPt */\012SVTCA[1]	/* SetFreedomAndProjectionVectorToAxis */\012MDAP[0]	/* MoveDirectAbsPt */\012MDAP[0]	/* MoveDirectAbsPt */\012MDAP[0]	/* MoveDirectAbsPt */\012MDAP[0]	/* MoveDirectAbsPt */\012MDAP[0]	/* MoveDirectAbsPt */\012MDAP[0]	/* MoveDirectAbsPt */\012MDAP[0]	/* MoveDirectAbsPt */\012MDAP[0]	/* MoveDirectAbsPt */\012SVTCA[0]	/* SetFreedomAndProjectionVectorToAxis */\012MDAP[0]	/* MoveDirectAbsPt */\012MDAP[0]	/* MoveDirectAbsPt */\012MDAP[0]	/* MoveDirectAbsPt */\012MDAP[0]	/* MoveDirectAbsPt */\012MDAP[0]	/* MoveDirectAbsPt */\012MDAP[0]	/* MoveDirectAbsPt */\012MDAP[0]	/* MoveDirectAbsPt */\012MDAP[0]	/* MoveDirectAbsPt */\012MDAP[0]	/* MoveDirectAbsPt */\012MDAP[0]	/* MoveDirectAbsPt */\012IUP[1]	/* InterpolateUntPts */\012IUP[0]	/* InterpolateUntPts */\012SVTCA[1]	/* SetFreedomAndProjectionVectorToAxis */\012MD[0]	/* MeasureDistance */\012ROUND[00]	/* Round */\012PUSHW[ ]	/* 2 values pushed */\01247 64 \012MD[0]	/* MeasureDistance */\012ROUND[00]	/* Round */\012SUB[ ]	/* Subtract */\012PUSHB[ ]	/* 1 value pushed */\01264 \012GT[ ]	/* GreaterThan */\012IF[ ]	/* If */\012SHPIX[ ]	/* ShiftZoneByPixel */\012SRP1[ ]	/* SetRefPoint1 */\012SHZ[1]	/* ShiftZoneByLastPoint */\012PUSHW[ ]	/* 2 values pushed */\01264 -64 \012SHPIX[ ]	/* ShiftZoneByPixel */\012EIF[ ]	/* EndIf */";
};
width = 343;
}
);
note = f;
unicode = 0066;
},
{
glyphname = g;
lastChange = "2021-11-29 06:54:51 +0000";
layers = (
{
layerId = "2018A826-CC5C-461A-95E5-9D849642E9B7";
paths = (
{
closed = 1;
nodes = (
"295.667 72.333 OFFCURVE",
"299 77.333 OFFCURVE",
"299 84 CURVE SMOOTH",
"299 98.667 OFFCURVE",
"290.667 100.333 OFFCURVE",
"274 89 CURVE SMOOTH",
"261.333 80.333 OFFCURVE",
"251.667 74 OFFCURVE",
"245 70 CURVE SMOOTH",
"241.667 67.333 OFFCURVE",
"238.333 66 OFFCURVE",
"235 66 CURVE SMOOTH",
"227 66 OFFCURVE",
"223.667 71.667 OFFCURVE",
"225 83 CURVE SMOOTH",
"231.667 146.333 OFFCURVE",
"238.333 189.667 OFFCURVE",
"245 213 CURVE SMOOTH",
"249 227 OFFCURVE",
"245.333 234 OFFCURVE",
"234 234 CURVE SMOOTH",
"224.667 234 OFFCURVE",
"219 229.333 OFFCURVE",
"217 220 CURVE SMOOTH",
"201.667 134.667 OFFCURVE",
"161.667 82 OFFCURVE",
"97 62 CURVE SMOOTH",
"91.667 60 OFFCURVE",
"86.667 59 OFFCURVE",
"82 59 CURVE SMOOTH",
"62 59 OFFCURVE",
"52 71.333 OFFCURVE",
"52 96 CURVE SMOOTH",
"52 102.667 OFFCURVE",
"53.333 109.333 OFFCURVE",
"56 116 CURVE SMOOTH",
"71.333 157.333 OFFCURVE",
"92 191.333 OFFCURVE",
"118 218 CURVE SMOOTH",
"148 248.667 OFFCURVE",
"180.333 264 OFFCURVE",
"215 264 CURVE SMOOTH",
"214 264 LINE SMOOTH",
"224 262.667 OFFCURVE",
"229 268 OFFCURVE",
"229 280 CURVE SMOOTH",
"229 290.667 OFFCURVE",
"224.667 296 OFFCURVE",
"216 296 CURVE SMOOTH",
"173.333 296.667 OFFCURVE",
"130.667 272 OFFCURVE",
"88 222 CURVE SMOOTH",
"48 176.667 OFFCURVE",
"26 133 OFFCURVE",
"22 91 CURVE SMOOTH",
"18 55 OFFCURVE",
"36 25 OFFCURVE",
"68 25 CURVE SMOOTH",
"88.667 25 OFFCURVE",
"112.333 31.333 OFFCURVE",
"139 44 CURVE SMOOTH",
"161 54.667 OFFCURVE",
"176.667 65 OFFCURVE",
"186 75 CURVE",
"186 66.333 OFFCURVE",
"185.333 48 OFFCURVE",
"184 20 CURVE",
"76 -84 LINE SMOOTH",
"43.333 -115.333 OFFCURVE",
"16 -149.667 OFFCURVE",
"-6 -187 CURVE SMOOTH",
"-32.667 -231.667 OFFCURVE",
"-46 -273 OFFCURVE",
"-46 -311 CURVE SMOOTH",
"-46 -372.333 OFFCURVE",
"-24.667 -403 OFFCURVE",
"18 -403 CURVE SMOOTH",
"67.333 -403 OFFCURVE",
"109.333 -371 OFFCURVE",
"144 -307 CURVE SMOOTH",
"170 -259.667 OFFCURVE",
"189 -202 OFFCURVE",
"201 -134 CURVE SMOOTH",
"207 -100 OFFCURVE",
"213.333 -48.667 OFFCURVE",
"220 20 CURVE",
"246.667 43.333 OFFCURVE",
"269.667 59.667 OFFCURVE",
"289 69 CURVE SMOOTH"
);
},
{
closed = 1;
nodes = (
"153.333 -267.667 OFFCURVE",
"98 -371 OFFCURVE",
"10 -371 CURVE SMOOTH",
"-14.667 -371 OFFCURVE",
"-26.667 -350.333 OFFCURVE",
"-26 -309 CURVE SMOOTH",
"-25.333 -275.667 OFFCURVE",
"-11 -236.667 OFFCURVE",
"17 -192 CURVE SMOOTH",
"40.333 -153.333 OFFCURVE",
"68.333 -118.333 OFFCURVE",
"101 -87 CURVE SMOOTH",
"122.333 -67 OFFCURVE",
"138.667 -52 OFFCURVE",
"150 -42 CURVE SMOOTH",
"149 -43 LINE SMOOTH",
"157 -35 OFFCURVE",
"163.333 -31 OFFCURVE",
"168 -31 CURVE SMOOTH",
"175.333 -31 OFFCURVE",
"178 -41 OFFCURVE",
"176 -61 CURVE SMOOTH"
);
}
);
userData = {
assembly = "NPUSHB[ ]	/* 39 values pushed */\0121 77 77 64 78 60 75 58 54 48 42 34 33 22 18 73 67 66 62 60 52 50 40 34 33 31 25 18 10 29 8 67 66 1 64 1 1 10 70 \012SROUND[ ]	/* SuperRound */\012MDAP[1]	/* MoveDirectAbsPt */\012SHZ[1]	/* ShiftZoneByLastPoint */\012RTG[ ]	/* RoundToGrid */\012SVTCA[0]	/* SetFreedomAndProjectionVectorToAxis */\012MIAP[1]	/* MoveIndirectAbsPt */\012MIAP[1]	/* MoveIndirectAbsPt */\012ALIGNRP[ ]	/* AlignRelativePt */\012MDAP[1]	/* MoveDirectAbsPt */\012MDAP[1]	/* MoveDirectAbsPt */\012SVTCA[1]	/* SetFreedomAndProjectionVectorToAxis */\012MDAP[0]	/* MoveDirectAbsPt */\012MDAP[0]	/* MoveDirectAbsPt */\012MDAP[0]	/* MoveDirectAbsPt */\012MDAP[0]	/* MoveDirectAbsPt */\012MDAP[0]	/* MoveDirectAbsPt */\012MDAP[0]	/* MoveDirectAbsPt */\012MDAP[0]	/* MoveDirectAbsPt */\012MDAP[0]	/* MoveDirectAbsPt */\012MDAP[0]	/* MoveDirectAbsPt */\012MDAP[0]	/* MoveDirectAbsPt */\012MDAP[0]	/* MoveDirectAbsPt */\012MDAP[0]	/* MoveDirectAbsPt */\012MDAP[0]	/* MoveDirectAbsPt */\012MDAP[0]	/* MoveDirectAbsPt */\012SVTCA[0]	/* SetFreedomAndProjectionVectorToAxis */\012MDAP[0]	/* MoveDirectAbsPt */\012MDAP[0]	/* MoveDirectAbsPt */\012MDAP[0]	/* MoveDirectAbsPt */\012MDAP[0]	/* MoveDirectAbsPt */\012MDAP[0]	/* MoveDirectAbsPt */\012MDAP[0]	/* MoveDirectAbsPt */\012MDAP[0]	/* MoveDirectAbsPt */\012MDAP[0]	/* MoveDirectAbsPt */\012MDAP[0]	/* MoveDirectAbsPt */\012IUP[1]	/* InterpolateUntPts */\012IUP[0]	/* InterpolateUntPts */\012SVTCA[1]	/* SetFreedomAndProjectionVectorToAxis */\012MD[0]	/* MeasureDistance */\012ROUND[00]	/* Round */\012PUSHW[ ]	/* 2 values pushed */\01210 77 \012MD[0]	/* MeasureDistance */\012ROUND[00]	/* Round */\012SUB[ ]	/* Subtract */\012PUSHB[ ]	/* 1 value pushed */\01264 \012GT[ ]	/* GreaterThan */\012IF[ ]	/* If */\012SHPIX[ ]	/* ShiftZoneByPixel */\012SRP1[ ]	/* SetRefPoint1 */\012SHZ[1]	/* ShiftZoneByLastPoint */\012PUSHW[ ]	/* 2 values pushed */\01277 -64 \012SHPIX[ ]	/* ShiftZoneByPixel */\012EIF[ ]	/* EndIf */";
};
width = 281;
}
);
note = g;
unicode = 0067;
},
{
glyphname = h;
lastChange = "2021-11-29 06:54:51 +0000";
layers = (
{
layerId = "2018A826-CC5C-461A-95E5-9D849642E9B7";
paths = (
{
closed = 1;
nodes = (
"369 68.333 OFFCURVE",
"371 73.333 OFFCURVE",
"371 78 CURVE SMOOTH",
"371 83.333 OFFCURVE",
"369.333 86.667 OFFCURVE",
"366 88 CURVE SMOOTH",
"362 88.667 OFFCURVE",
"358 86.333 OFFCURVE",
"354 81 CURVE SMOOTH",
"336.667 59 OFFCURVE",
"311 48 OFFCURVE",
"277 48 CURVE SMOOTH",
"271 48 OFFCURVE",
"265.667 48.333 OFFCURVE",
"261 49 CURVE SMOOTH",
"237.667 52.333 OFFCURVE",
"226.333 87.333 OFFCURVE",
"227 154 CURVE SMOOTH",
"227 178 OFFCURVE",
"220 190 OFFCURVE",
"206 190 CURVE SMOOTH",
"198 190 OFFCURVE",
"180.333 179 OFFCURVE",
"153 157 CURVE SMOOTH",
"101 114 LINE SMOOTH",
"95 109.333 OFFCURVE",
"89.667 107 OFFCURVE",
"85 107 CURVE SMOOTH",
"76.333 107 OFFCURVE",
"71 116 OFFCURVE",
"69 134 CURVE SMOOTH",
"68.333 143.333 OFFCURVE",
"68 152.333 OFFCURVE",
"68 161 CURVE SMOOTH",
"68 182.333 OFFCURVE",
"70.333 205 OFFCURVE",
"75 229 CURVE SMOOTH",
"89 288 LINE SMOOTH",
"93.667 303.333 OFFCURVE",
"115.333 338 OFFCURVE",
"154 392 CURVE SMOOTH",
"192.667 446 OFFCURVE",
"216.333 487 OFFCURVE",
"225 515 CURVE SMOOTH",
"231 534.333 OFFCURVE",
"234 553 OFFCURVE",
"234 571 CURVE SMOOTH",
"234 625.667 OFFCURVE",
"204 664 OFFCURVE",
"172 664 CURVE SMOOTH",
"161.333 664 OFFCURVE",
"152 660 OFFCURVE",
"144 652 CURVE SMOOTH",
"125.333 634 OFFCURVE",
"109.333 600.333 OFFCURVE",
"96 551 CURVE SMOOTH",
"92 535.667 OFFCURVE",
"81.667 488.333 OFFCURVE",
"65 409 CURVE SMOOTH",
"37.667 278.333 OFFCURVE",
"24 165.667 OFFCURVE",
"24 71 CURVE SMOOTH",
"24 45.667 OFFCURVE",
"25.333 23.667 OFFCURVE",
"28 5 CURVE SMOOTH",
"30 -10.333 OFFCURVE",
"39.333 -18 OFFCURVE",
"56 -18 CURVE SMOOTH",
"69.333 -18 OFFCURVE",
"79 -11 OFFCURVE",
"85 3 CURVE SMOOTH",
"97.667 34.333 OFFCURVE",
"107.667 55 OFFCURVE",
"115 65 CURVE SMOOTH",
"129 86.333 OFFCURVE",
"149 102.333 OFFCURVE",
"175 113 CURVE",
"187.667 115 OFFCURVE",
"197.333 100.667 OFFCURVE",
"204 70 CURVE SMOOTH",
"212 35.333 OFFCURVE",
"222.667 14 OFFCURVE",
"236 6 CURVE",
"238 6 LINE",
"242 4 OFFCURVE",
"247 3 OFFCURVE",
"253 3 CURVE SMOOTH",
"269 3 OFFCURVE",
"290.667 11 OFFCURVE",
"318 27 CURVE SMOOTH",
"341.333 41 OFFCURVE",
"357 53 OFFCURVE",
"365 63 CURVE SMOOTH"
);
},
{
closed = 1;
nodes = (
"192.667 497.667 OFFCURVE",
"181.333 470.667 OFFCURVE",
"172 454 CURVE SMOOTH",
"155.333 424 OFFCURVE",
"132.667 397.333 OFFCURVE",
"104 374 CURVE",
"104 373 LINE",
"118 518 LINE",
"128.667 585.333 OFFCURVE",
"144.667 622.667 OFFCURVE",
"166 630 CURVE SMOOTH",
"187.333 636.667 OFFCURVE",
"212 604.333 OFFCURVE",
"212 567 CURVE SMOOTH",
"212 555.667 OFFCURVE",
"210 545 OFFCURVE",
"206 535 CURVE SMOOTH"
);
}
);
userData = {
assembly = "NPUSHB[ ]	/* 29 values pushed */\0121 79 79 64 80 63 74 70 61 57 51 45 11 7 6 4 75 74 67 63 41 32 21 29 17 1 1 21 70 \012SROUND[ ]	/* SuperRound */\012MDAP[1]	/* MoveDirectAbsPt */\012SHZ[1]	/* ShiftZoneByLastPoint */\012RTG[ ]	/* RoundToGrid */\012SVTCA[0]	/* SetFreedomAndProjectionVectorToAxis */\012MIAP[1]	/* MoveIndirectAbsPt */\012MDAP[1]	/* MoveDirectAbsPt */\012SVTCA[1]	/* SetFreedomAndProjectionVectorToAxis */\012MDAP[0]	/* MoveDirectAbsPt */\012MDAP[0]	/* MoveDirectAbsPt */\012MDAP[0]	/* MoveDirectAbsPt */\012MDAP[0]	/* MoveDirectAbsPt */\012MDAP[0]	/* MoveDirectAbsPt */\012MDAP[0]	/* MoveDirectAbsPt */\012MDAP[0]	/* MoveDirectAbsPt */\012SVTCA[0]	/* SetFreedomAndProjectionVectorToAxis */\012MDAP[0]	/* MoveDirectAbsPt */\012MDAP[0]	/* MoveDirectAbsPt */\012MDAP[0]	/* MoveDirectAbsPt */\012MDAP[0]	/* MoveDirectAbsPt */\012MDAP[0]	/* MoveDirectAbsPt */\012MDAP[0]	/* MoveDirectAbsPt */\012MDAP[0]	/* MoveDirectAbsPt */\012MDAP[0]	/* MoveDirectAbsPt */\012MDAP[0]	/* MoveDirectAbsPt */\012MDAP[0]	/* MoveDirectAbsPt */\012IUP[1]	/* InterpolateUntPts */\012IUP[0]	/* InterpolateUntPts */\012SVTCA[1]	/* SetFreedomAndProjectionVectorToAxis */\012MD[0]	/* MeasureDistance */\012ROUND[00]	/* Round */\012PUSHW[ ]	/* 2 values pushed */\01221 79 \012MD[0]	/* MeasureDistance */\012ROUND[00]	/* Round */\012SUB[ ]	/* Subtract */\012PUSHB[ ]	/* 1 value pushed */\01264 \012GT[ ]	/* GreaterThan */\012IF[ ]	/* If */\012SHPIX[ ]	/* ShiftZoneByPixel */\012SRP1[ ]	/* SetRefPoint1 */\012SHZ[1]	/* ShiftZoneByLastPoint */\012PUSHW[ ]	/* 2 values pushed */\01279 -64 \012SHPIX[ ]	/* ShiftZoneByPixel */\012EIF[ ]	/* EndIf */";
};
width = 325;
}
);
note = h;
unicode = 0068;
},
{
glyphname = i;
lastChange = "2021-11-29 06:54:51 +0000";
layers = (
{
layerId = "2018A826-CC5C-461A-95E5-9D849642E9B7";
paths = (
{
closed = 1;
nodes = (
"107.667 381.667 OFFCURVE",
"101.333 388 OFFCURVE",
"86 388 CURVE SMOOTH",
"78.667 388 OFFCURVE",
"74 384.333 OFFCURVE",
"72 377 CURVE SMOOTH",
"62 339 LINE",
"60.667 327 OFFCURVE",
"65.333 321 OFFCURVE",
"76 321 CURVE SMOOTH",
"97.082 321 OFFCURVE",
"103.078 349.781 OFFCURVE",
"105 369 CURVE SMOOTH"
);
},
{
closed = 1;
nodes = (
"93 220.333 OFFCURVE",
"88.667 226 OFFCURVE",
"76 226 CURVE SMOOTH",
"69.333 226 OFFCURVE",
"64.667 222.667 OFFCURVE",
"62 216 CURVE SMOOTH",
"38.667 154 OFFCURVE",
"26 107.667 OFFCURVE",
"24 77 CURVE SMOOTH",
"22.667 50.333 OFFCURVE",
"24.333 29.333 OFFCURVE",
"29 14 CURVE SMOOTH",
"31 8.667 OFFCURVE",
"35 6 OFFCURVE",
"41 6 CURVE SMOOTH",
"54.333 6 OFFCURVE",
"70 19.667 OFFCURVE",
"66 33 CURVE SMOOTH",
"65.333 35 OFFCURVE",
"65 52 OFFCURVE",
"65 84 CURVE SMOOTH",
"65 102 OFFCURVE",
"68.667 126.333 OFFCURVE",
"76 157 CURVE SMOOTH",
"80 174.333 OFFCURVE",
"84.333 191.667 OFFCURVE",
"89 209 CURVE SMOOTH"
);
}
);
userData = {
assembly = "NPUSHB[ ]	/* 19 values pushed */\0121 31 31 64 32 0 29 4 25 18 16 12 6 0 10 21 1 25 70 \012SROUND[ ]	/* SuperRound */\012MDAP[1]	/* MoveDirectAbsPt */\012SHZ[1]	/* ShiftZoneByLastPoint */\012RTG[ ]	/* RoundToGrid */\012SVTCA[0]	/* SetFreedomAndProjectionVectorToAxis */\012MDAP[1]	/* MoveDirectAbsPt */\012MDAP[1]	/* MoveDirectAbsPt */\012SVTCA[1]	/* SetFreedomAndProjectionVectorToAxis */\012MDAP[0]	/* MoveDirectAbsPt */\012MDAP[0]	/* MoveDirectAbsPt */\012MDAP[0]	/* MoveDirectAbsPt */\012MDAP[0]	/* MoveDirectAbsPt */\012MDAP[0]	/* MoveDirectAbsPt */\012MDAP[0]	/* MoveDirectAbsPt */\012SVTCA[0]	/* SetFreedomAndProjectionVectorToAxis */\012MDAP[0]	/* MoveDirectAbsPt */\012MDAP[0]	/* MoveDirectAbsPt */\012IUP[1]	/* InterpolateUntPts */\012IUP[0]	/* InterpolateUntPts */\012SVTCA[1]	/* SetFreedomAndProjectionVectorToAxis */\012MD[0]	/* MeasureDistance */\012ROUND[00]	/* Round */\012PUSHW[ ]	/* 2 values pushed */\01225 31 \012MD[0]	/* MeasureDistance */\012ROUND[00]	/* Round */\012SUB[ ]	/* Subtract */\012PUSHB[ ]	/* 1 value pushed */\01264 \012GT[ ]	/* GreaterThan */\012IF[ ]	/* If */\012SHPIX[ ]	/* ShiftZoneByPixel */\012SRP1[ ]	/* SetRefPoint1 */\012SHZ[1]	/* ShiftZoneByLastPoint */\012PUSHW[ ]	/* 2 values pushed */\01231 -64 \012SHPIX[ ]	/* ShiftZoneByPixel */\012EIF[ ]	/* EndIf */";
};
width = 130;
}
);
note = i;
unicode = 0069;
},
{
color = 11;
glyphname = idotless;
lastChange = "2021-11-29 06:55:02 +0000";
layers = (
{
layerId = "2018A826-CC5C-461A-95E5-9D849642E9B7";
paths = (
{
closed = 1;
nodes = (
"93 220 OFFCURVE",
"89 226 OFFCURVE",
"76 226 CURVE SMOOTH",
"69 226 OFFCURVE",
"65 223 OFFCURVE",
"62 216 CURVE SMOOTH",
"39 154 OFFCURVE",
"26 108 OFFCURVE",
"24 77 CURVE SMOOTH",
"23 50 OFFCURVE",
"24 29 OFFCURVE",
"29 14 CURVE SMOOTH",
"31 9 OFFCURVE",
"35 6 OFFCURVE",
"41 6 CURVE SMOOTH",
"54 6 OFFCURVE",
"70 20 OFFCURVE",
"66 33 CURVE SMOOTH",
"65 35 OFFCURVE",
"65 52 OFFCURVE",
"65 84 CURVE SMOOTH",
"65 102 OFFCURVE",
"69 126 OFFCURVE",
"76 157 CURVE SMOOTH",
"80 174 OFFCURVE",
"84 192 OFFCURVE",
"89 209 CURVE SMOOTH"
);
}
);
width = 130;
}
);
unicode = 0131;
},
